<svg width="192" height="175" viewBox="0 0 192 175" fill="none" xmlns="http://www.w3.org/2000/svg">
<g clip-path="url(#clip0)">
<path d="M126 103.92H10C8.67392 103.92 7.40215 103.393 6.46447 102.456C5.52678 101.518 5 100.246 5 98.92V30C5 28.6739 5.52678 27.4021 6.46447 26.4645C7.40215 25.5268 8.67392 25 10 25H126C127.326 25 128.598 25.5268 129.536 26.4645C130.473 27.4021 131 28.6739 131 30V98.92C131 100.246 130.473 101.518 129.536 102.456C128.598 103.393 127.326 103.92 126 103.92ZM10 27C9.20435 27 8.44129 27.3161 7.87868 27.8787C7.31607 28.4413 7 29.2044 7 30V98.92C7 99.7156 7.31607 100.479 7.87868 101.041C8.44129 101.604 9.20435 101.92 10 101.92H126C126.796 101.92 127.559 101.604 128.121 101.041C128.684 100.479 129 99.7156 129 98.92V30C129 29.2044 128.684 28.4413 128.121 27.8787C127.559 27.3161 126.796 27 126 27H10Z" fill="#475059"/>
<path d="M86 125.92H50V101.92H86V125.92ZM52 123.92H84V103.92H52V123.92Z" fill="#475059"/>
<path d="M91 123.92H45V125.92H91V123.92Z" fill="#475059"/>
<path d="M54.22 121.92H81.78L82.12 105.92H53.85L54.22 121.92Z" fill="#DEDEDD"/>
<path d="M110 137.08H10C9.46957 137.08 8.96086 137.291 8.58579 137.666C8.21071 138.041 8 138.55 8 139.08V171.08C8 171.611 8.21071 172.119 8.58579 172.494C8.96086 172.869 9.46957 173.08 10 173.08H110C110.53 173.08 111.039 172.869 111.414 172.494C111.789 172.119 112 171.611 112 171.08V139.08C112 138.55 111.789 138.041 111.414 137.666C111.039 137.291 110.53 137.08 110 137.08ZM95 140.08H101V146.08H95V140.08ZM97 154.08H91V148.08H97V154.08ZM87 140.08H93V146.08H87V140.08ZM89 154.08H83V148.08H89V154.08ZM79 140.08H85V146.08H79V140.08ZM23 156.08H29V162.08H23V156.08ZM19 148.08H25V154.08H19V148.08ZM27 148.08H33V154.08H27V148.08ZM31 156.08H37V162.08H31V156.08ZM35 148.08H41V154.08H35V148.08ZM39 156.08H45V162.08H39V156.08ZM43 148.08H49V154.08H43V148.08ZM47 156.08H53V162.08H47V156.08ZM51 148.08H57V154.08H51V148.08ZM55 156.08H61V162.08H55V156.08ZM59 148.08H65V154.08H59V148.08ZM63 156.08H69V162.08H63V156.08ZM67 148.08H73V154.08H67V148.08ZM71 156.08H77V162.08H71V156.08ZM75 148.08H81V154.08H75V148.08ZM71 140.08H77V146.08H71V140.08ZM63 140.08H69V146.08H63V140.08ZM55 140.08H61V146.08H55V140.08ZM47 140.08H53V146.08H47V140.08ZM39 140.08H45V146.08H39V140.08ZM31 140.08H37V146.08H31V140.08ZM23 140.08H29V146.08H23V140.08ZM11 140.08H21V146.08H11V140.08ZM11 148.08H17V154.08H11V148.08ZM11 156.08H21V162.08H11V156.08ZM17 170.08H11V164.08H17V170.08ZM25 170.08H19V164.08H25V170.08ZM33 170.08H27V164.08H33V170.08ZM41 170.08H35V164.08H41V170.08ZM85 170.08H43V164.08H85V170.08ZM85 162.08H79V156.08H85V162.08ZM93 170.08H87V164.08H93V170.08ZM93 162.08H87V156.08H93V162.08ZM101 170.08H95V164.08H101V170.08ZM101 162.08H95V156.08H101V162.08ZM109 170.08H103V164.08H109V170.08ZM109 162.08H103V156.08H109V162.08ZM109 154.08H99V148.08H109V154.08ZM109 146.08H103V140.08H109V146.08Z" fill="#DEDEDD"/>
<path d="M110 174.08H10C9.20435 174.08 8.44129 173.764 7.87868 173.201C7.31607 172.639 7 171.876 7 171.08V139.08C7 138.284 7.31607 137.521 7.87868 136.959C8.44129 136.396 9.20435 136.08 10 136.08H110C110.796 136.08 111.559 136.396 112.121 136.959C112.684 137.521 113 138.284 113 139.08V171.08C113 171.876 112.684 172.639 112.121 173.201C111.559 173.764 110.796 174.08 110 174.08ZM10 138.08C9.73478 138.08 9.48043 138.185 9.29289 138.373C9.10536 138.561 9 138.815 9 139.08V171.08C9 171.345 9.10536 171.6 9.29289 171.787C9.48043 171.975 9.73478 172.08 10 172.08H110C110.265 172.08 110.52 171.975 110.707 171.787C110.895 171.6 111 171.345 111 171.08V139.08C111 138.815 110.895 138.561 110.707 138.373C110.52 138.185 110.265 138.08 110 138.08H10Z" fill="#48515A"/>
<path d="M139 172H127C125.674 172 124.402 171.473 123.464 170.536C122.527 169.598 122 168.326 122 167V145C122 143.674 122.527 142.402 123.464 141.464C124.402 140.527 125.674 140 127 140H139C140.326 140 141.598 140.527 142.536 141.464C143.473 142.402 144 143.674 144 145V167C144 168.326 143.473 169.598 142.536 170.536C141.598 171.473 140.326 172 139 172ZM127 142C126.204 142 125.441 142.316 124.879 142.879C124.316 143.441 124 144.204 124 145V167C124 167.796 124.316 168.559 124.879 169.121C125.441 169.684 126.204 170 127 170H139C139.796 170 140.559 169.684 141.121 169.121C141.684 168.559 142 167.796 142 167V145C142 144.204 141.684 143.441 141.121 142.879C140.559 142.316 139.796 142 139 142H127Z" fill="#48515A"/>
<path d="M139 144H134V151H132V144H127C126.735 144 126.48 144.105 126.293 144.293C126.105 144.48 126 144.735 126 145V167C126 167.265 126.105 167.52 126.293 167.707C126.48 167.895 126.735 168 127 168H139C139.265 168 139.52 167.895 139.707 167.707C139.895 167.52 140 167.265 140 167V145C140 144.735 139.895 144.48 139.707 144.293C139.52 144.105 139.265 144 139 144Z" fill="#DEDEDD"/>
<path d="M126 103.92H10C8.67392 103.92 7.40215 103.393 6.46447 102.456C5.52678 101.518 5 100.246 5 98.92V30C5 28.6739 5.52678 27.4021 6.46447 26.4645C7.40215 25.5268 8.67392 25 10 25H126C127.326 25 128.598 25.5268 129.536 26.4645C130.473 27.4021 131 28.6739 131 30V98.92C131 100.246 130.473 101.518 129.536 102.456C128.598 103.393 127.326 103.92 126 103.92ZM10 27C9.20435 27 8.44129 27.3161 7.87868 27.8787C7.31607 28.4413 7 29.2044 7 30V98.92C7 99.7156 7.31607 100.479 7.87868 101.041C8.44129 101.604 9.20435 101.92 10 101.92H126C126.796 101.92 127.559 101.604 128.121 101.041C128.684 100.479 129 99.7156 129 98.92V30C129 29.2044 128.684 28.4413 128.121 27.8787C127.559 27.3161 126.796 27 126 27H10Z" fill="#475059"/>
<path d="M86 125.92H50V101.92H86V125.92ZM52 123.92H84V103.92H52V123.92Z" fill="#475059"/>
<path d="M91 123.92H45V125.92H91V123.92Z" fill="#475059"/>
<path d="M54.22 121.92H81.78L82.12 105.92H53.85L54.22 121.92Z" fill="#DEDEDD"/>
<path d="M49.44 137.07H47.44V134.07C47.44 132.744 47.9668 131.472 48.9045 130.534C49.8422 129.597 51.1139 129.07 52.44 129.07H123.44C124.236 129.07 124.999 128.754 125.561 128.191C126.124 127.629 126.44 126.866 126.44 126.07V124C126.44 122.674 126.967 121.402 127.904 120.464C128.842 119.527 130.114 119 131.44 119H141V121H131.45C130.654 121 129.891 121.316 129.329 121.879C128.766 122.441 128.45 123.204 128.45 124V126.08C128.45 127.406 127.923 128.678 126.986 129.616C126.048 130.553 124.776 131.08 123.45 131.08H52.45C51.6544 131.08 50.8913 131.396 50.3287 131.959C49.7661 132.521 49.45 133.284 49.45 134.08L49.44 137.07Z" fill="#48515A"/>
<path d="M110 137.08H10C9.46957 137.08 8.96086 137.291 8.58579 137.666C8.21071 138.041 8 138.55 8 139.08V171.08C8 171.611 8.21071 172.119 8.58579 172.494C8.96086 172.869 9.46957 173.08 10 173.08H110C110.53 173.08 111.039 172.869 111.414 172.494C111.789 172.119 112 171.611 112 171.08V139.08C112 138.55 111.789 138.041 111.414 137.666C111.039 137.291 110.53 137.08 110 137.08ZM95 140.08H101V146.08H95V140.08ZM97 154.08H91V148.08H97V154.08ZM87 140.08H93V146.08H87V140.08ZM89 154.08H83V148.08H89V154.08ZM79 140.08H85V146.08H79V140.08ZM23 156.08H29V162.08H23V156.08ZM19 148.08H25V154.08H19V148.08ZM27 148.08H33V154.08H27V148.08ZM31 156.08H37V162.08H31V156.08ZM35 148.08H41V154.08H35V148.08ZM39 156.08H45V162.08H39V156.08ZM43 148.08H49V154.08H43V148.08ZM47 156.08H53V162.08H47V156.08ZM51 148.08H57V154.08H51V148.08ZM55 156.08H61V162.08H55V156.08ZM59 148.08H65V154.08H59V148.08ZM63 156.08H69V162.08H63V156.08ZM67 148.08H73V154.08H67V148.08ZM71 156.08H77V162.08H71V156.08ZM75 148.08H81V154.08H75V148.08ZM71 140.08H77V146.08H71V140.08ZM63 140.08H69V146.08H63V140.08ZM55 140.08H61V146.08H55V140.08ZM47 140.08H53V146.08H47V140.08ZM39 140.08H45V146.08H39V140.08ZM31 140.08H37V146.08H31V140.08ZM23 140.08H29V146.08H23V140.08ZM11 140.08H21V146.08H11V140.08ZM11 148.08H17V154.08H11V148.08ZM11 156.08H21V162.08H11V156.08ZM17 170.08H11V164.08H17V170.08ZM25 170.08H19V164.08H25V170.08ZM33 170.08H27V164.08H33V170.08ZM41 170.08H35V164.08H41V170.08ZM85 170.08H43V164.08H85V170.08ZM85 162.08H79V156.08H85V162.08ZM93 170.08H87V164.08H93V170.08ZM93 162.08H87V156.08H93V162.08ZM101 170.08H95V164.08H101V170.08ZM101 162.08H95V156.08H101V162.08ZM109 170.08H103V164.08H109V170.08ZM109 162.08H103V156.08H109V162.08ZM109 154.08H99V148.08H109V154.08ZM109 146.08H103V140.08H109V146.08Z" fill="#DEDEDD"/>
<path d="M110 174.08H10C9.20435 174.08 8.44129 173.764 7.87868 173.201C7.31607 172.639 7 171.876 7 171.08V139.08C7 138.284 7.31607 137.521 7.87868 136.959C8.44129 136.396 9.20435 136.08 10 136.08H110C110.796 136.08 111.559 136.396 112.121 136.959C112.684 137.521 113 138.284 113 139.08V171.08C113 171.876 112.684 172.639 112.121 173.201C111.559 173.764 110.796 174.08 110 174.08ZM10 138.08C9.73478 138.08 9.48043 138.185 9.29289 138.373C9.10536 138.561 9 138.815 9 139.08V171.08C9 171.345 9.10536 171.6 9.29289 171.787C9.48043 171.975 9.73478 172.08 10 172.08H110C110.265 172.08 110.52 171.975 110.707 171.787C110.895 171.6 111 171.345 111 171.08V139.08C111 138.815 110.895 138.561 110.707 138.373C110.52 138.185 110.265 138.08 110 138.08H10Z" fill="#48515A"/>
<path d="M139 172H127C125.674 172 124.402 171.473 123.464 170.536C122.527 169.598 122 168.326 122 167V145C122 143.674 122.527 142.402 123.464 141.464C124.402 140.527 125.674 140 127 140H139C140.326 140 141.598 140.527 142.536 141.464C143.473 142.402 144 143.674 144 145V167C144 168.326 143.473 169.598 142.536 170.536C141.598 171.473 140.326 172 139 172ZM127 142C126.204 142 125.441 142.316 124.879 142.879C124.316 143.441 124 144.204 124 145V167C124 167.796 124.316 168.559 124.879 169.121C125.441 169.684 126.204 170 127 170H139C139.796 170 140.559 169.684 141.121 169.121C141.684 168.559 142 167.796 142 167V145C142 144.204 141.684 143.441 141.121 142.879C140.559 142.316 139.796 142 139 142H127Z" fill="#48515A"/>
<path d="M139 144H134V151H132V144H127C126.735 144 126.48 144.105 126.293 144.293C126.105 144.48 126 144.735 126 145V167C126 167.265 126.105 167.52 126.293 167.707C126.48 167.895 126.735 168 127 168H139C139.265 168 139.52 167.895 139.707 167.707C139.895 167.52 140 167.265 140 167V145C140 144.735 139.895 144.48 139.707 144.293C139.52 144.105 139.265 144 139 144Z" fill="#DEDEDD"/>
<path d="M183 29H145C144.735 29 144.48 29.1054 144.293 29.2929C144.105 29.4804 144 29.7348 144 30V122C144 122.265 144.105 122.52 144.293 122.707C144.48 122.895 144.735 123 145 123H183C183.265 123 183.52 122.895 183.707 122.707C183.895 122.52 184 122.265 184 122V30C184 29.7348 183.895 29.4804 183.707 29.2929C183.52 29.1054 183.265 29 183 29ZM181 118H147V110H181V118ZM181 106H147V98H181V106ZM181 94H147V86H181V94ZM162 76C162 75.6044 162.117 75.2178 162.337 74.8889C162.557 74.56 162.869 74.3036 163.235 74.1522C163.6 74.0009 164.002 73.9613 164.39 74.0384C164.778 74.1156 165.135 74.3061 165.414 74.5858C165.694 74.8655 165.884 75.2219 165.962 75.6098C166.039 75.9978 165.999 76.3999 165.848 76.7654C165.696 77.1308 165.44 77.4432 165.111 77.6629C164.782 77.8827 164.396 78 164 78C163.47 78 162.961 77.7893 162.586 77.4142C162.211 77.0391 162 76.5304 162 76ZM181 66H147V58H181V66ZM181 54H147V46H181V54ZM181 42H147V34H181V42Z" fill="#DEDEDD"/>
<path d="M184 129H174V127H154V129H144V127H140V30C140 28.6739 140.527 27.4021 141.464 26.4645C142.402 25.5268 143.674 25 145 25H183C184.326 25 185.598 25.5268 186.536 26.4645C187.473 27.4021 188 28.6739 188 30V127H184V129ZM176 127H182V125H186V30C186 29.2044 185.684 28.4413 185.121 27.8787C184.559 27.3161 183.796 27 183 27H145C144.204 27 143.441 27.3161 142.879 27.8787C142.316 28.4413 142 29.2044 142 30V125H146V127H152V125H176V127Z" fill="#475059"/>
<path d="M179 36H149V40H179V36Z" fill="#DEDEDD"/>
<path d="M179 48.01H149V52.01H179V48.01Z" fill="#DEDEDD"/>
<path d="M179 60.02H149V64.02H179V60.02Z" fill="#DEDEDD"/>
<path d="M179 112H149V116H179V112Z" fill="#DEDEDD"/>
<path d="M179 99.99H149V103.99H179V99.99Z" fill="#DEDEDD"/>
<path d="M179 87.98H149V91.98H179V87.98Z" fill="#DEDEDD"/>
<path d="M119 121H85V119H119C119.796 119 120.559 118.684 121.121 118.121C121.684 117.559 122 116.796 122 116C122 114.674 122.527 113.402 123.464 112.464C124.402 111.527 125.674 111 127 111H141V113H127C126.204 113 125.441 113.316 124.879 113.879C124.316 114.441 124 115.204 124 116C124 117.326 123.473 118.598 122.536 119.536C121.598 120.473 120.326 121 119 121Z" fill="#48515A"/>
<path d="M126 30H10V98H126V30Z" fill="#3388E5"/>
<path d="M186 140H184V144H186V140Z" fill="#48515A"/>
<path d="M186 150H184V154H186V150Z" fill="#48515A"/>
<path d="M192 146H188V148H192V146Z" fill="#48515A"/>
<path d="M182 146H178V148H182V146Z" fill="#48515A"/>
<path d="M8 8H6V12H8V8Z" fill="#48515A"/>
<path d="M8 18H6V22H8V18Z" fill="#48515A"/>
<path d="M14 14H10V16H14V14Z" fill="#48515A"/>
<path d="M4 14H0V16H4V14Z" fill="#48515A"/>
<path d="M170 0H168V4H170V0Z" fill="#48515A"/>
<path d="M170 10H168V14H170V10Z" fill="#48515A"/>
<path d="M176 6H172V8H176V6Z" fill="#48515A"/>
<path d="M166 6H162V8H166V6Z" fill="#48515A"/>
<path d="M72 15.56C72 16.0426 71.8569 16.5143 71.5888 16.9156C71.3207 17.3168 70.9396 17.6296 70.4937 17.8143C70.0479 17.9989 69.5573 18.0473 69.084 17.9531C68.6107 17.859 68.1759 17.6266 67.8347 17.2853C67.4934 16.9441 67.261 16.5093 67.1669 16.036C67.0727 15.5627 67.1211 15.0721 67.3057 14.6262C67.4904 14.1804 67.8031 13.7993 68.2044 13.5312C68.6057 13.2631 69.0774 13.12 69.56 13.12C70.2071 13.12 70.8277 13.3771 71.2853 13.8347C71.7429 14.2922 72 14.9129 72 15.56Z" fill="#3388E5"/>
<path d="M24.87 113.56C24.87 114.043 24.7266 114.515 24.4581 114.917C24.1895 115.318 23.8078 115.631 23.3614 115.815C22.915 115.999 22.4239 116.047 21.9503 115.952C21.4767 115.857 21.0419 115.624 20.7011 115.282C20.3603 114.939 20.1287 114.504 20.0357 114.03C19.9426 113.556 19.9924 113.065 20.1786 112.619C20.3648 112.174 20.6791 111.793 21.0817 111.526C21.4843 111.259 21.957 111.118 22.44 111.12C22.7599 111.12 23.0768 111.183 23.3722 111.306C23.6677 111.429 23.936 111.608 24.1618 111.835C24.3876 112.062 24.5664 112.331 24.6879 112.627C24.8094 112.923 24.8713 113.24 24.87 113.56Z" fill="#3388E5"/>
<path d="M22.44 116.5C21.8585 116.5 21.2901 116.328 20.8066 116.005C20.3231 115.682 19.9463 115.222 19.7238 114.685C19.5013 114.148 19.4431 113.557 19.5565 112.987C19.6699 112.416 19.9499 111.892 20.3611 111.481C20.7723 111.07 21.2961 110.79 21.8664 110.677C22.4367 110.563 23.0279 110.621 23.5651 110.844C24.1023 111.066 24.5615 111.443 24.8845 111.927C25.2076 112.41 25.38 112.979 25.38 113.56C25.38 114.34 25.0703 115.088 24.5189 115.639C23.9675 116.19 23.2197 116.5 22.44 116.5ZM22.44 111.63C22.0555 111.628 21.679 111.74 21.3584 111.953C21.0379 112.165 20.7877 112.468 20.6396 112.823C20.4915 113.178 20.4523 113.569 20.5268 113.946C20.6014 114.323 20.7863 114.67 21.0582 114.942C21.3302 115.214 21.6767 115.399 22.054 115.473C22.4313 115.548 22.8221 115.509 23.177 115.361C23.5319 115.212 23.8348 114.962 24.0472 114.642C24.2596 114.321 24.372 113.945 24.37 113.56C24.37 113.048 24.1667 112.557 23.8047 112.195C23.4428 111.833 22.9519 111.63 22.44 111.63Z" fill="#3388E5"/>
<path d="M118 111C118 111.198 117.941 111.391 117.831 111.556C117.722 111.72 117.565 111.848 117.383 111.924C117.2 112 116.999 112.019 116.805 111.981C116.611 111.942 116.433 111.847 116.293 111.707C116.153 111.567 116.058 111.389 116.019 111.195C115.981 111.001 116 110.8 116.076 110.617C116.152 110.435 116.28 110.278 116.444 110.169C116.609 110.059 116.802 110 117 110C117.265 110 117.52 110.105 117.707 110.293C117.895 110.48 118 110.735 118 111Z" fill="#3388E5"/>
<path d="M108 108C108 108.396 107.883 108.782 107.663 109.111C107.443 109.44 107.131 109.696 106.765 109.848C106.4 109.999 105.998 110.039 105.61 109.962C105.222 109.884 104.865 109.694 104.586 109.414C104.306 109.135 104.116 108.778 104.038 108.39C103.961 108.002 104.001 107.6 104.152 107.235C104.304 106.869 104.56 106.557 104.889 106.337C105.218 106.117 105.604 106 106 106C106.53 106 107.039 106.211 107.414 106.586C107.789 106.961 108 107.47 108 108Z" fill="#DEDEDD"/>
<path d="M50 20C50 20.3956 49.8827 20.7822 49.6629 21.1111C49.4432 21.44 49.1308 21.6964 48.7654 21.8478C48.3999 21.9991 47.9978 22.0387 47.6098 21.9616C47.2219 21.8844 46.8655 21.6939 46.5858 21.4142C46.3061 21.1345 46.1156 20.7781 46.0384 20.3902C45.9613 20.0022 46.0009 19.6001 46.1522 19.2346C46.3036 18.8692 46.56 18.5568 46.8889 18.3371C47.2178 18.1173 47.6044 18 48 18C48.5304 18 49.0391 18.2107 49.4142 18.5858C49.7893 18.9609 50 19.4696 50 20Z" fill="#DEDEDD"/>
<path d="M170 138C170 138.396 169.883 138.782 169.663 139.111C169.443 139.44 169.131 139.696 168.765 139.848C168.4 139.999 167.998 140.039 167.61 139.962C167.222 139.884 166.865 139.694 166.586 139.414C166.306 139.135 166.116 138.778 166.038 138.39C165.961 138.002 166.001 137.6 166.152 137.235C166.304 136.869 166.56 136.557 166.889 136.337C167.218 136.117 167.604 136 168 136C168.53 136 169.039 136.211 169.414 136.586C169.789 136.961 170 137.47 170 138Z" fill="#DEDEDD"/>
<path d="M150 141C150 141.198 149.941 141.391 149.831 141.556C149.722 141.72 149.565 141.848 149.383 141.924C149.2 142 148.999 142.019 148.805 141.981C148.611 141.942 148.433 141.847 148.293 141.707C148.153 141.567 148.058 141.389 148.019 141.195C147.981 141.001 148 140.8 148.076 140.617C148.152 140.435 148.28 140.278 148.444 140.169C148.609 140.059 148.802 140 149 140C149.265 140 149.52 140.105 149.707 140.293C149.895 140.48 150 140.735 150 141Z" fill="#DEDEDD"/>
<path d="M35 133C34.2089 133 33.4355 132.765 32.7777 132.326C32.1199 131.886 31.6072 131.262 31.3045 130.531C31.0017 129.8 30.9225 128.996 31.0769 128.22C31.2312 127.444 31.6122 126.731 32.1716 126.172C32.731 125.612 33.4437 125.231 34.2196 125.077C34.9956 124.923 35.7998 125.002 36.5307 125.304C37.2616 125.607 37.8864 126.12 38.3259 126.778C38.7654 127.436 39 128.209 39 129C39 130.061 38.5786 131.078 37.8284 131.828C37.0783 132.579 36.0609 133 35 133ZM35 127C34.6044 127 34.2178 127.117 33.8889 127.337C33.56 127.557 33.3036 127.869 33.1522 128.235C33.0009 128.6 32.9613 129.002 33.0384 129.39C33.1156 129.778 33.3061 130.135 33.5858 130.414C33.8655 130.694 34.2219 130.884 34.6098 130.962C34.9978 131.039 35.3999 130.999 35.7654 130.848C36.1308 130.696 36.4432 130.44 36.6629 130.111C36.8827 129.782 37 129.396 37 129C37 128.47 36.7893 127.961 36.4142 127.586C36.0391 127.211 35.5304 127 35 127Z" fill="#48515A"/>
<path d="M169 160.49H167V153.49H166V151.49H169V160.49Z" fill="#48515A"/>
<path d="M170 159.49H166V161.49H170V159.49Z" fill="#48515A"/>
<path d="M12 123C11.2044 123 10.4413 122.684 9.87868 122.121C9.31607 121.559 9 120.796 9 120V116C9 115.204 9.31607 114.441 9.87868 113.879C10.4413 113.316 11.2044 113 12 113C12.7956 113 13.5587 113.316 14.1213 113.879C14.6839 114.441 15 115.204 15 116V120C15 120.796 14.6839 121.559 14.1213 122.121C13.5587 122.684 12.7956 123 12 123ZM12 115C11.7348 115 11.4804 115.105 11.2929 115.293C11.1054 115.48 11 115.735 11 116V120C11 120.265 11.1054 120.52 11.2929 120.707C11.4804 120.895 11.7348 121 12 121C12.2652 121 12.5196 120.895 12.7071 120.707C12.8946 120.52 13 120.265 13 120V116C13 115.735 12.8946 115.48 12.7071 115.293C12.5196 115.105 12.2652 115 12 115Z" fill="#48515A"/>
<path d="M154 157C153.204 157 152.441 156.684 151.879 156.121C151.316 155.559 151 154.796 151 154V150C151 149.204 151.316 148.441 151.879 147.879C152.441 147.316 153.204 147 154 147C154.796 147 155.559 147.316 156.121 147.879C156.684 148.441 157 149.204 157 150V154C157 154.796 156.684 155.559 156.121 156.121C155.559 156.684 154.796 157 154 157ZM154 149C153.735 149 153.48 149.105 153.293 149.293C153.105 149.48 153 149.735 153 150V154C153 154.265 153.105 154.52 153.293 154.707C153.48 154.895 153.735 155 154 155C154.265 155 154.52 154.895 154.707 154.707C154.895 154.52 155 154.265 155 154V150C155 149.735 154.895 149.48 154.707 149.293C154.52 149.105 154.265 149 154 149Z" fill="#48515A"/>
</g>
<defs>
<clipPath id="clip0">
<rect width="192" height="174.08" fill="white"/>
</clipPath>
</defs>
</svg>
