<svg width="192" height="188" viewBox="0 0 192 188" fill="none" xmlns="http://www.w3.org/2000/svg">
<g clip-path="url(#clip0)">
<path d="M162.14 51.5799C162.138 51.0989 162.279 50.6281 162.545 50.2271C162.81 49.8262 163.189 49.5132 163.633 49.3277C164.077 49.1423 164.566 49.0927 165.038 49.1854C165.51 49.278 165.944 49.5086 166.285 49.8481C166.626 50.1875 166.858 50.6205 166.953 51.0921C167.047 51.5638 167 52.0529 166.816 52.4975C166.632 52.9421 166.321 53.3222 165.921 53.5897C165.521 53.8571 165.051 53.9999 164.57 53.9999C163.926 53.9999 163.307 53.7439 162.852 53.2882C162.396 52.8325 162.14 52.2144 162.14 51.5699" fill="#3388E5"/>
<path d="M8 108H0V152H8V108Z" fill="#3388E5"/>
<path d="M128.16 24.95V48.79H152" fill="#3388E5"/>
<path d="M47 115C46.7348 115 46.4804 114.895 46.2929 114.707C46.1054 114.52 46 114.265 46 114V24H63.69C63.9552 24 64.2096 24.1054 64.3971 24.2929C64.5846 24.4804 64.69 24.7348 64.69 25C64.69 25.2652 64.5846 25.5196 64.3971 25.7071C64.2096 25.8946 63.9552 26 63.69 26H48V114C48 114.265 47.8946 114.52 47.7071 114.707C47.5196 114.895 47.2652 115 47 115Z" fill="#48515A"/>
<path d="M68.44 26.0001C68.3093 25.9985 68.1802 25.9713 68.06 25.9201C67.9381 25.8718 67.8287 25.7966 67.74 25.7001C67.5516 25.5154 67.4438 25.2638 67.44 25.0001C67.4406 24.8678 67.4673 24.7369 67.5188 24.615C67.5703 24.4931 67.6455 24.3827 67.74 24.2901C67.9274 24.1038 68.1808 23.9993 68.445 23.9993C68.7092 23.9993 68.9626 24.1038 69.15 24.2901C69.2427 24.3835 69.316 24.4943 69.3658 24.6162C69.4155 24.738 69.4408 24.8685 69.44 25.0001C69.4389 25.2624 69.3347 25.5138 69.15 25.7001C69.0574 25.7945 68.9469 25.8697 68.8251 25.9212C68.7032 25.9727 68.5723 25.9995 68.44 26.0001Z" fill="#48515A"/>
<path d="M172.25 143.82H167.25L164.8 135.23V75.8301C164.8 74.504 165.327 73.2322 166.264 72.2945C167.202 71.3569 168.474 70.8301 169.8 70.8301C171.126 70.8301 172.398 71.3569 173.336 72.2945C174.273 73.2322 174.8 74.504 174.8 75.8301V135.37L172.25 143.82ZM168.73 141.82H170.73L172.73 135.08V75.8301C172.73 75.0344 172.414 74.2714 171.851 73.7088C171.289 73.1461 170.526 72.8301 169.73 72.8301C168.934 72.8301 168.171 73.1461 167.609 73.7088C167.046 74.2714 166.73 75.0344 166.73 75.8301V135.09L168.73 141.82Z" fill="#475059"/>
<path d="M174.46 146.9H165.09V141.82H174.46V146.9ZM167.09 144.9H172.46V143.82H167.09V144.9Z" fill="#48515A"/>
<path d="M169.75 164.43L162.75 151.28L163.52 150.78C164.33 150.247 165.036 149.569 165.6 148.78C166.123 147.847 166.488 146.833 166.68 145.78L166.81 144.93H172.73L172.86 145.78C173.046 146.833 173.408 147.847 173.93 148.78C174.495 149.572 175.204 150.251 176.02 150.78L176.79 151.28L169.75 164.43ZM165.36 151.91L169.76 160.18L174.19 151.91C173.408 151.322 172.732 150.605 172.19 149.79C171.67 148.896 171.279 147.933 171.03 146.93H168.44C168.195 147.93 167.807 148.89 167.29 149.78C166.751 150.6 166.074 151.32 165.29 151.91" fill="#48515A"/>
<path d="M169.75 156.36C169.485 156.36 169.23 156.255 169.043 156.067C168.855 155.88 168.75 155.625 168.75 155.36V152.44C168.75 152.175 168.855 151.92 169.043 151.733C169.23 151.545 169.485 151.44 169.75 151.44C170.015 151.44 170.27 151.545 170.457 151.733C170.645 151.92 170.75 152.175 170.75 152.44V155.36C170.75 155.625 170.645 155.88 170.457 156.067C170.27 156.255 170.015 156.36 169.75 156.36Z" fill="#48515A"/>
<path d="M135 123H105.92V125H135V123Z" fill="#48515A"/>
<path d="M127 126.92H106V128.92H127V126.92Z" fill="#48515A"/>
<path d="M112 143.92C110.409 143.92 108.883 143.288 107.757 142.163C106.632 141.037 106 139.511 106 137.92C106.021 136.335 106.66 134.821 107.78 133.7C108.901 132.579 110.415 131.941 112 131.92C113.591 131.92 115.117 132.552 116.243 133.677C117.368 134.802 118 136.329 118 137.92V139.92C118 140.185 118.105 140.439 118.293 140.627C118.48 140.815 118.735 140.92 119 140.92C119.265 140.92 119.52 140.815 119.707 140.627C119.895 140.439 120 140.185 120 139.92C120 139.124 120.316 138.361 120.879 137.799C121.441 137.236 122.204 136.92 123 136.92C123.796 136.92 124.559 137.236 125.121 137.799C125.684 138.361 126 139.124 126 139.92C126 140.185 126.105 140.439 126.293 140.627C126.48 140.815 126.735 140.92 127 140.92C127.265 140.92 127.52 141.025 127.707 141.213C127.895 141.4 128 141.655 128 141.92C128 142.185 127.895 142.439 127.707 142.627C127.52 142.815 127.265 142.92 127 142.92C126.204 142.92 125.441 142.604 124.879 142.041C124.316 141.479 124 140.716 124 139.92C124 139.655 123.895 139.4 123.707 139.213C123.52 139.025 123.265 138.92 123 138.92C122.735 138.92 122.48 139.025 122.293 139.213C122.105 139.4 122 139.655 122 139.92C122 140.716 121.684 141.479 121.121 142.041C120.559 142.604 119.796 142.92 119 142.92C118.204 142.92 117.441 142.604 116.879 142.041C116.316 141.479 116 140.716 116 139.92V137.92C116 136.859 115.579 135.842 114.828 135.091C114.078 134.341 113.061 133.92 112 133.92C110.943 133.933 109.933 134.358 109.186 135.106C108.439 135.853 108.013 136.863 108 137.92C108 138.981 108.421 139.998 109.172 140.748C109.922 141.498 110.939 141.92 112 141.92C112.265 141.92 112.52 142.025 112.707 142.213C112.895 142.4 113 142.655 113 142.92C113 143.185 112.895 143.439 112.707 143.627C112.52 143.815 112.265 143.92 112 143.92Z" fill="#48515A"/>
<path d="M131 142.92C130.868 142.921 130.738 142.896 130.616 142.846C130.494 142.796 130.383 142.723 130.29 142.63C130.196 142.537 130.122 142.427 130.071 142.305C130.02 142.183 129.994 142.052 129.994 141.92C129.994 141.788 130.02 141.657 130.071 141.535C130.122 141.414 130.196 141.303 130.29 141.21C130.431 141.071 130.609 140.977 130.803 140.94C130.997 140.903 131.198 140.923 131.38 141C131.501 141.051 131.613 141.122 131.71 141.21C131.804 141.303 131.878 141.414 131.929 141.535C131.98 141.657 132.006 141.788 132.006 141.92C132.006 142.052 131.98 142.183 131.929 142.305C131.878 142.427 131.804 142.537 131.71 142.63C131.613 142.718 131.501 142.789 131.38 142.84C131.26 142.891 131.131 142.918 131 142.92Z" fill="#48515A"/>
<path d="M102 147C101.87 147.001 101.741 146.978 101.62 146.93C101.497 146.878 101.385 146.803 101.29 146.71C101.197 146.616 101.126 146.504 101.08 146.38C101.027 146.26 101 146.131 101 146C101 145.869 101.027 145.74 101.08 145.62C101.131 145.499 101.202 145.387 101.29 145.29C101.384 145.197 101.496 145.126 101.62 145.08C101.863 144.98 102.137 144.98 102.38 145.08C102.504 145.125 102.617 145.196 102.71 145.29C102.803 145.383 102.875 145.496 102.92 145.62C102.973 145.74 103 145.869 103 146C103 146.131 102.973 146.26 102.92 146.38C102.874 146.504 102.803 146.616 102.71 146.71C102.613 146.801 102.502 146.876 102.38 146.93C102.259 146.978 102.13 147.001 102 147Z" fill="#48515A"/>
<path d="M133 146C133 145.802 133.059 145.609 133.169 145.444C133.278 145.28 133.435 145.152 133.617 145.076C133.8 145 134.001 144.981 134.195 145.019C134.389 145.058 134.567 145.153 134.707 145.293C134.847 145.433 134.942 145.611 134.981 145.805C135.019 145.999 135 146.2 134.924 146.383C134.848 146.565 134.72 146.722 134.556 146.831C134.391 146.941 134.198 147 134 147C133.735 147 133.48 146.895 133.293 146.707C133.105 146.52 133 146.265 133 146ZM129 146C129 145.802 129.059 145.609 129.169 145.444C129.278 145.28 129.435 145.152 129.617 145.076C129.8 145 130.001 144.981 130.195 145.019C130.389 145.058 130.567 145.153 130.707 145.293C130.847 145.433 130.942 145.611 130.981 145.805C131.019 145.999 131 146.2 130.924 146.383C130.848 146.565 130.72 146.722 130.556 146.831C130.391 146.941 130.198 147 130 147C129.735 147 129.48 146.895 129.293 146.707C129.105 146.52 129 146.265 129 146ZM125 146C125 145.802 125.059 145.609 125.169 145.444C125.278 145.28 125.435 145.152 125.617 145.076C125.8 145 126.001 144.981 126.195 145.019C126.389 145.058 126.567 145.153 126.707 145.293C126.847 145.433 126.942 145.611 126.981 145.805C127.019 145.999 127 146.2 126.924 146.383C126.848 146.565 126.72 146.722 126.556 146.831C126.391 146.941 126.198 147 126 147C125.735 147 125.48 146.895 125.293 146.707C125.105 146.52 125 146.265 125 146ZM121 146C121 145.802 121.059 145.609 121.169 145.444C121.278 145.28 121.435 145.152 121.617 145.076C121.8 145 122.001 144.981 122.195 145.019C122.389 145.058 122.567 145.153 122.707 145.293C122.847 145.433 122.942 145.611 122.981 145.805C123.019 145.999 123 146.2 122.924 146.383C122.848 146.565 122.72 146.722 122.556 146.831C122.391 146.941 122.198 147 122 147C121.735 147 121.48 146.895 121.293 146.707C121.105 146.52 121 146.265 121 146ZM117 146C117 145.802 117.059 145.609 117.169 145.444C117.278 145.28 117.435 145.152 117.617 145.076C117.8 145 118.001 144.981 118.195 145.019C118.389 145.058 118.567 145.153 118.707 145.293C118.847 145.433 118.942 145.611 118.981 145.805C119.019 145.999 119 146.2 118.924 146.383C118.848 146.565 118.72 146.722 118.556 146.831C118.391 146.941 118.198 147 118 147C117.735 147 117.48 146.895 117.293 146.707C117.105 146.52 117 146.265 117 146ZM113 146C113 145.802 113.059 145.609 113.169 145.444C113.278 145.28 113.435 145.152 113.617 145.076C113.8 145 114.001 144.981 114.195 145.019C114.389 145.058 114.567 145.153 114.707 145.293C114.847 145.433 114.942 145.611 114.981 145.805C115.019 145.999 115 146.2 114.924 146.383C114.848 146.565 114.72 146.722 114.556 146.831C114.391 146.941 114.198 147 114 147C113.735 147 113.48 146.895 113.293 146.707C113.105 146.52 113 146.265 113 146ZM109 146C109 145.802 109.059 145.609 109.169 145.444C109.278 145.28 109.435 145.152 109.617 145.076C109.8 145 110.001 144.981 110.195 145.019C110.389 145.058 110.567 145.153 110.707 145.293C110.847 145.433 110.942 145.611 110.981 145.805C111.019 145.999 111 146.2 110.924 146.383C110.848 146.565 110.72 146.722 110.556 146.831C110.391 146.941 110.198 147 110 147C109.735 147 109.48 146.895 109.293 146.707C109.105 146.52 109 146.265 109 146ZM105 146C105 145.802 105.059 145.609 105.169 145.444C105.278 145.28 105.435 145.152 105.617 145.076C105.8 145 106.001 144.981 106.195 145.019C106.389 145.058 106.567 145.153 106.707 145.293C106.847 145.433 106.942 145.611 106.981 145.805C107.019 145.999 107 146.2 106.924 146.383C106.848 146.565 106.72 146.722 106.556 146.831C106.391 146.941 106.198 147 106 147C105.735 147 105.48 146.895 105.293 146.707C105.105 146.52 105 146.265 105 146Z" fill="#48515A"/>
<path d="M138 147C137.868 147.001 137.738 146.976 137.616 146.926C137.494 146.876 137.383 146.803 137.29 146.71C137.197 146.617 137.124 146.506 137.074 146.384C137.024 146.262 136.999 146.132 137 146C137 145.735 137.105 145.48 137.293 145.293C137.48 145.105 137.735 145 138 145C138.265 145 138.52 145.105 138.707 145.293C138.895 145.48 139 145.735 139 146C139.001 146.132 138.976 146.262 138.926 146.384C138.876 146.506 138.803 146.617 138.71 146.71C138.617 146.803 138.506 146.876 138.384 146.926C138.262 146.976 138.132 147.001 138 147Z" fill="#48515A"/>
<path d="M115 119H106V121H115V119Z" fill="#3388E5"/>
<path d="M82 51H64V53H82V51Z" fill="#48515A"/>
<path d="M82 55H64V57H82V55Z" fill="#48515A"/>
<path d="M136 67H70V69H136V67Z" fill="#48515A"/>
<path d="M136 71H64V73H136V71Z" fill="#48515A"/>
<path d="M136 75H64V77H136V75Z" fill="#48515A"/>
<path d="M124 79H64V81H124V79Z" fill="#48515A"/>
<path d="M136 93H70V95H136V93Z" fill="#48515A"/>
<path d="M136 97H64V99H136V97Z" fill="#48515A"/>
<path d="M136 101H64V103H136V101Z" fill="#48515A"/>
<path d="M124 105H64V107H124V105Z" fill="#48515A"/>
<path d="M136 55H124V57H136V55Z" fill="#48515A"/>
<path d="M156.98 174H154.98V178H156.98V174Z" fill="#48515A"/>
<path d="M156.98 184H154.98V188H156.98V184Z" fill="#48515A"/>
<path d="M162.98 180H158.98V182H162.98V180Z" fill="#48515A"/>
<path d="M152.98 180H148.98V182H152.98V180Z" fill="#48515A"/>
<path d="M184 61C184 60.2089 184.235 59.4355 184.674 58.7777C185.114 58.1199 185.738 57.6072 186.469 57.3045C187.2 57.0017 188.004 56.9225 188.78 57.0769C189.556 57.2312 190.269 57.6122 190.828 58.1716C191.388 58.731 191.769 59.4437 191.923 60.2196C192.077 60.9956 191.998 61.7998 191.696 62.5307C191.393 63.2616 190.88 63.8864 190.222 64.3259C189.564 64.7654 188.791 65 188 65C186.939 65 185.922 64.5786 185.172 63.8284C184.421 63.0783 184 62.0609 184 61Z" fill="#3388E5"/>
<path d="M16 61.5399C16.0059 61.0606 16.1535 60.5938 16.424 60.1981C16.6946 59.8025 17.0762 59.4957 17.5207 59.3164C17.9652 59.137 18.4528 59.0932 18.9222 59.1903C19.3916 59.2874 19.8217 59.5212 20.1586 59.8622C20.4954 60.2032 20.7239 60.6362 20.8153 61.1068C20.9066 61.5773 20.8568 62.0643 20.672 62.5066C20.4872 62.9489 20.1758 63.3266 19.7769 63.5924C19.3779 63.8581 18.9093 63.9999 18.43 63.9999C18.1084 63.9999 17.7899 63.9361 17.4931 63.8121C17.1963 63.6881 16.9271 63.5064 16.701 63.2776C16.475 63.0488 16.2966 62.7773 16.1763 62.479C16.056 62.1807 15.996 61.8615 16 61.5399Z" fill="#3388E5"/>
<path d="M78 142.44C77.998 141.959 78.1388 141.488 78.4046 141.087C78.6705 140.686 79.0493 140.373 79.4931 140.188C79.937 140.002 80.4259 139.953 80.8979 140.045C81.3699 140.138 81.8038 140.369 82.1447 140.708C82.4855 141.048 82.718 141.481 82.8125 141.952C82.9071 142.424 82.8596 142.913 82.676 143.358C82.4923 143.802 82.1809 144.182 81.7811 144.45C81.3812 144.717 80.911 144.86 80.43 144.86C79.7872 144.86 79.1707 144.605 78.7152 144.152C78.2598 143.698 78.0026 143.083 78 142.44Z" fill="#3388E5"/>
<path d="M138 176.43C138 175.949 138.143 175.48 138.41 175.08C138.677 174.68 139.056 174.369 139.5 174.185C139.944 174.001 140.433 173.953 140.904 174.047C141.375 174.14 141.808 174.372 142.148 174.712C142.488 175.052 142.72 175.485 142.813 175.956C142.907 176.427 142.859 176.916 142.675 177.36C142.491 177.804 142.18 178.183 141.78 178.45C141.38 178.717 140.911 178.86 140.43 178.86C139.786 178.86 139.167 178.604 138.712 178.148C138.256 177.693 138 177.074 138 176.43Z" fill="#3388E5"/>
<path d="M174.58 34C171.218 34 167.931 33.003 165.135 31.135C162.34 29.267 160.161 26.612 158.874 23.5056C157.587 20.3993 157.251 16.9811 157.907 13.6835C158.563 10.3858 160.182 7.35668 162.559 4.97919C164.937 2.6017 167.966 0.982607 171.263 0.326658C174.561 -0.329291 177.979 0.00736582 181.086 1.29406C184.192 2.58075 186.847 4.75968 188.715 7.55531C190.583 10.3509 191.58 13.6377 191.58 17C191.58 21.5087 189.789 25.8327 186.601 29.0208C183.413 32.2089 179.089 34 174.58 34ZM174.58 2.00001C171.613 2.00001 168.713 2.87974 166.246 4.52796C163.78 6.17618 161.857 8.51886 160.722 11.2598C159.586 14.0006 159.289 17.0166 159.868 19.9264C160.447 22.8361 161.876 25.5088 163.973 27.6066C166.071 29.7044 168.744 31.133 171.654 31.7118C174.563 32.2906 177.579 31.9935 180.32 30.8582C183.061 29.7229 185.404 27.8003 187.052 25.3336C188.7 22.8668 189.58 19.9667 189.58 17C189.58 13.0218 188 9.20645 185.187 6.39341C182.374 3.58036 178.558 2.00001 174.58 2.00001ZM174.58 28C172.404 28 170.278 27.3549 168.469 26.1462C166.66 24.9375 165.25 23.2195 164.417 21.2095C163.585 19.1995 163.367 16.9878 163.791 14.854C164.216 12.7202 165.263 10.7602 166.802 9.22183C168.34 7.68346 170.3 6.63581 172.434 6.21137C174.568 5.78693 176.78 6.00477 178.79 6.83733C180.8 7.6699 182.517 9.07979 183.726 10.8887C184.935 12.6977 185.58 14.8244 185.58 17C185.58 19.9174 184.421 22.7153 182.358 24.7782C180.295 26.8411 177.497 28 174.58 28ZM174.58 8.00001C172.8 8.00001 171.06 8.52785 169.58 9.51678C168.1 10.5057 166.946 11.9113 166.265 13.5559C165.584 15.2004 165.406 17.01 165.753 18.7558C166.1 20.5016 166.957 22.1053 168.216 23.364C169.475 24.6226 171.078 25.4798 172.824 25.8271C174.57 26.1743 176.38 25.9961 178.024 25.3149C179.669 24.6337 181.074 23.4802 182.063 22.0001C183.052 20.5201 183.58 18.78 183.58 17C183.58 14.6131 182.632 12.3239 180.944 10.636C179.256 8.94822 176.967 8.00001 174.58 8.00001Z" fill="#475059"/>
<path d="M174.58 22C173.591 22 172.624 21.7068 171.802 21.1574C170.98 20.6079 170.339 19.8271 169.961 18.9134C169.582 17.9998 169.483 16.9945 169.676 16.0246C169.869 15.0546 170.345 14.1637 171.044 13.4645C171.744 12.7652 172.635 12.289 173.605 12.0961C174.574 11.9031 175.58 12.0022 176.493 12.3806C177.407 12.759 178.188 13.3999 178.737 14.2222C179.287 15.0444 179.58 16.0111 179.58 17C179.58 18.3261 179.053 19.5979 178.116 20.5355C177.178 21.4732 175.906 22 174.58 22ZM174.58 14C173.987 14 173.407 14.1759 172.913 14.5056C172.42 14.8352 172.035 15.3038 171.808 15.852C171.581 16.4001 171.522 17.0033 171.638 17.5853C171.753 18.1672 172.039 18.7018 172.459 19.1213C172.878 19.5409 173.413 19.8266 173.995 19.9424C174.577 20.0581 175.18 19.9987 175.728 19.7716C176.276 19.5446 176.745 19.1601 177.074 18.6667C177.404 18.1734 177.58 17.5933 177.58 17C177.58 16.2044 177.264 15.4413 176.701 14.8787C176.139 14.3161 175.376 14 174.58 14Z" fill="#475059"/>
<path d="M174.58 13C173.789 13 173.016 13.2346 172.358 13.6741C171.7 14.1136 171.187 14.7384 170.884 15.4693C170.582 16.2002 170.503 17.0044 170.657 17.7804C170.811 18.5563 171.192 19.269 171.752 19.8284C172.311 20.3878 173.024 20.7688 173.8 20.9231C174.576 21.0775 175.38 20.9983 176.111 20.6955C176.842 20.3928 177.466 19.8801 177.906 19.2223C178.345 18.5645 178.58 17.7911 178.58 17C178.58 15.9391 178.159 14.9217 177.408 14.1716C176.658 13.4214 175.641 13 174.58 13Z" fill="#3388E5"/>
<path d="M174.58 22C173.591 22 172.624 21.7068 171.802 21.1574C170.98 20.6079 170.339 19.8271 169.961 18.9134C169.582 17.9998 169.483 16.9945 169.676 16.0246C169.869 15.0546 170.345 14.1637 171.044 13.4645C171.744 12.7652 172.635 12.289 173.605 12.0961C174.574 11.9031 175.58 12.0022 176.493 12.3806C177.407 12.759 178.188 13.3999 178.737 14.2222C179.287 15.0444 179.58 16.0111 179.58 17C179.58 18.3261 179.053 19.5979 178.116 20.5355C177.178 21.4732 175.906 22 174.58 22ZM174.58 14C173.987 14 173.407 14.1759 172.913 14.5056C172.42 14.8352 172.035 15.3038 171.808 15.852C171.581 16.4001 171.522 17.0033 171.638 17.5853C171.753 18.1672 172.039 18.7018 172.459 19.1213C172.878 19.5409 173.413 19.8266 173.995 19.9424C174.577 20.0581 175.18 19.9987 175.728 19.7716C176.276 19.5446 176.745 19.1601 177.074 18.6667C177.404 18.1734 177.58 17.5933 177.58 17C177.58 16.2044 177.264 15.4413 176.701 14.8787C176.139 14.3161 175.376 14 174.58 14Z" fill="#3388E5"/>
<path d="M174.58 16H143V18H174.58V16Z" fill="#475059"/>
<path d="M140.41 22H131.59L136.59 17L131.59 12H140.41L145.41 17L140.41 22ZM136.41 20H139.59L142.59 17L139.59 14H136.41L139.41 17L136.41 20Z" fill="#475059"/>
<path d="M142 169H46C43.0826 169 40.2847 167.841 38.2218 165.778C36.1589 163.715 35 160.917 35 158V157H133V158C132.997 160.314 133.886 162.541 135.482 164.217C137.078 165.893 139.258 166.889 141.57 167H142.08C144.455 166.982 146.726 166.025 148.399 164.339C150.071 162.654 151.01 160.375 151.01 158V49.2L127.75 26H73.21C72.9448 26 72.6904 25.8946 72.5029 25.7071C72.3154 25.5196 72.21 25.2652 72.21 25C72.21 24.7348 72.3154 24.4804 72.5029 24.2929C72.6904 24.1054 72.9448 24 73.21 24H128.57L153 48.38V158C153 160.917 151.841 163.715 149.778 165.778C147.715 167.841 144.917 169 142 169ZM37.06 159C37.3059 161.199 38.3535 163.231 40.0027 164.707C41.6518 166.183 43.7869 166.999 46 167H135.67C134.366 166.081 133.277 164.89 132.479 163.509C131.682 162.127 131.194 160.589 131.05 159H37.06Z" fill="#48515A"/>
<path d="M15 116H12V114H14.72L26.63 106.85C28.6511 105.638 30.9635 104.999 33.32 105H47V107H33.32C31.3259 107.001 29.3695 107.543 27.66 108.57L15.51 115.86C15.3556 115.952 15.1795 116 15 116Z" fill="#48515A"/>
<path d="M55 152H42C33.9456 152.009 25.9644 150.471 18.49 147.47L14.81 146H12V144H15C15.1263 144.003 15.2513 144.027 15.37 144.07L19.23 145.62C26.4701 148.522 34.1998 150.009 42 150H55C55.9283 150 56.8185 149.631 57.4749 148.975C58.1312 148.318 58.5 147.428 58.5 146.5C58.5 145.572 58.1312 144.682 57.4749 144.025C56.8185 143.369 55.9283 143 55 143H42C41.7348 143 41.4804 142.895 41.2929 142.707C41.1054 142.52 41 142.265 41 142C41 141.735 41.1054 141.48 41.2929 141.293C41.4804 141.105 41.7348 141 42 141H61.5C62.4283 141 63.3185 140.631 63.9749 139.975C64.6312 139.318 65 138.428 65 137.5C65 136.572 64.6312 135.682 63.9749 135.025C63.3185 134.369 62.4283 134 61.5 134H42C41.7348 134 41.4804 133.895 41.2929 133.707C41.1054 133.52 41 133.265 41 133C41 132.735 41.1054 132.48 41.2929 132.293C41.4804 132.105 41.7348 132 42 132H64.5C65.4283 132 66.3185 131.631 66.9749 130.975C67.6313 130.318 68 129.428 68 128.5C68 127.572 67.6313 126.682 66.9749 126.025C66.3185 125.369 65.4283 125 64.5 125H42C41.7348 125 41.4804 124.895 41.2929 124.707C41.1054 124.52 41 124.265 41 124C41 123.735 41.1054 123.48 41.2929 123.293C41.4804 123.105 41.7348 123 42 123H61.67C62.556 122.987 63.4014 122.626 64.0243 121.996C64.6471 121.366 64.9975 120.516 65 119.63V119.5C65 118.573 64.6326 117.685 63.9784 117.029C63.3242 116.373 62.4365 116.003 61.51 116H36C35.7348 116 35.4804 115.895 35.2929 115.707C35.1054 115.52 35 115.265 35 115C35 114.735 35.1054 114.48 35.2929 114.293C35.4804 114.105 35.7348 114 36 114H61.51C62.9652 114.003 64.3601 114.582 65.3891 115.611C66.4181 116.64 66.9974 118.035 67 119.49V119.63C67.0025 120.918 66.541 122.164 65.7 123.14C66.9211 123.417 68.011 124.103 68.7895 125.084C69.5681 126.065 69.9886 127.282 69.9816 128.534C69.9746 129.786 69.5405 130.999 68.7511 131.971C67.9616 132.943 66.8641 133.616 65.64 133.88C66.3353 134.675 66.7868 135.654 66.9407 136.699C67.0945 137.744 66.9441 138.812 66.5074 139.773C66.0708 140.735 65.3663 141.551 64.4783 142.123C63.5904 142.696 62.5564 143 61.5 143H59.24C60.0575 143.983 60.5035 145.222 60.5 146.5C60.4974 147.958 59.917 149.355 58.8862 150.386C57.8553 151.417 56.4579 151.997 55 152Z" fill="#48515A"/>
<path d="M3 143C2.73478 143 2.48043 142.895 2.29289 142.707C2.10536 142.52 2 142.265 2 142V138C2 137.735 2.10536 137.48 2.29289 137.293C2.48043 137.105 2.73478 137 3 137C3.26522 137 3.51957 137.105 3.70711 137.293C3.89464 137.48 4 137.735 4 138V142C4 142.265 3.89464 142.52 3.70711 142.707C3.51957 142.895 3.26522 143 3 143Z" fill="#48515A"/>
<path d="M3 147C2.40666 147 1.82664 146.824 1.33329 146.494C0.839943 146.165 0.455426 145.696 0.228363 145.148C0.00129986 144.6 -0.0581102 143.997 0.0576455 143.415C0.173401 142.833 0.459123 142.298 0.878681 141.879C1.29824 141.459 1.83279 141.173 2.41473 141.058C2.99667 140.942 3.59987 141.001 4.14805 141.228C4.69623 141.455 5.16477 141.84 5.49441 142.333C5.82405 142.827 6 143.407 6 144C6 144.796 5.68393 145.559 5.12132 146.121C4.55871 146.684 3.79565 147 3 147ZM3 143C2.80222 143 2.60888 143.059 2.44443 143.169C2.27998 143.278 2.15181 143.435 2.07612 143.617C2.00043 143.8 1.98063 144.001 2.01922 144.195C2.0578 144.389 2.15304 144.567 2.29289 144.707C2.43275 144.847 2.61093 144.942 2.80491 144.981C2.99889 145.019 3.19996 145 3.38268 144.924C3.56541 144.848 3.72159 144.72 3.83147 144.556C3.94135 144.391 4 144.198 4 144C4 143.735 3.89464 143.48 3.70711 143.293C3.51957 143.105 3.26522 143 3 143Z" fill="#48515A"/>
<path d="M13 149H8V147H11V113H8V111H13V149Z" fill="#48515A"/>
<path d="M48 151H46V158H48V151Z" fill="#48515A"/>
<path d="M28.58 20.99H26.58V24.99H28.58V20.99Z" fill="#48515A"/>
<path d="M28.58 30.99H26.58V34.99H28.58V30.99Z" fill="#48515A"/>
<path d="M34.58 26.99H30.58V28.99H34.58V26.99Z" fill="#48515A"/>
<path d="M24.58 26.99H20.58V28.99H24.58V26.99Z" fill="#48515A"/>
</g>
<defs>
<clipPath id="clip0">
<rect width="192" height="188" fill="white"/>
</clipPath>
</defs>
</svg>
