<svg width="192" height="182" viewBox="0 0 192 182" fill="none" xmlns="http://www.w3.org/2000/svg">
<g clip-path="url(#clip0)">
<path d="M169 159H21C20.6097 159.024 20.2185 158.968 19.8505 158.836C19.4825 158.704 19.1454 158.497 18.86 158.23C18 157.35 18 156 18 154.53V66.5299C18 65.0799 18 63.7099 18.86 62.8199C19.1412 62.5436 19.4764 62.3282 19.8446 62.1871C20.2128 62.046 20.6061 61.9823 21 61.9999H169C170.326 61.9999 171.598 62.5267 172.536 63.4644C173.473 64.4021 174 65.6739 174 66.9999V154C174 155.326 173.473 156.598 172.536 157.535C171.598 158.473 170.326 159 169 159ZM21 63.9999C20.7463 63.9739 20.4916 64.0376 20.28 64.1799C19.98 64.4699 19.99 65.5299 20 66.4599V154.55C20 155.48 20 156.55 20.28 156.83C20.4928 156.969 20.7475 157.029 21 157H169C169.796 157 170.559 156.684 171.121 156.121C171.684 155.559 172 154.796 172 154V66.9999C172 66.2043 171.684 65.4412 171.121 64.8786C170.559 64.316 169.796 63.9999 169 63.9999H21Z" fill="#3388E5"/>
<path d="M117 181H73V177.92L76 159.75V157H114V159.92L117 178.08V181ZM75 179H115V178.17L112 160V159H78V160L75 178.18V179Z" fill="#475059"/>
<path d="M122 179.01H68V181.01H122V179.01Z" fill="#475059"/>
<path d="M77.22 177.01H112.78L110.12 161.01H79.85L77.22 177.01Z" fill="#DEDEDD"/>
<path d="M20 142V154C20 154.265 20.1054 154.52 20.2929 154.707C20.4804 154.895 20.7348 155 21 155H169C169.265 155 169.52 154.895 169.707 154.707C169.895 154.52 170 154.265 170 154V142H20Z" fill="#DEDEDD"/>
<path d="M84 47.93H20C19.2044 47.93 18.4413 47.6139 17.8787 47.0513C17.3161 46.4887 17 45.7257 17 44.93V3C17 2.20435 17.3161 1.44129 17.8787 0.87868C18.4413 0.31607 19.2044 0 20 0L84 0C84.7956 0 85.5587 0.31607 86.1213 0.87868C86.6839 1.44129 87 2.20435 87 3V20H85V3C85 2.73478 84.8946 2.48043 84.7071 2.29289C84.5196 2.10536 84.2652 2 84 2H20C19.7348 2 19.4804 2.10536 19.2929 2.29289C19.1054 2.48043 19 2.73478 19 3V44.93C19 45.1952 19.1054 45.4496 19.2929 45.6371C19.4804 45.8246 19.7348 45.93 20 45.93H84C84.2652 45.93 84.5196 45.8246 84.7071 45.6371C84.8946 45.4496 85 45.1952 85 44.93V26H87V44.93C87 45.7257 86.6839 46.4887 86.1213 47.0513C85.5587 47.6139 84.7956 47.93 84 47.93Z" fill="#475059"/>
<path d="M60 58.9301H44V56.8101L45.49 47.8101V45.9301H58.49V47.8501L60 57.0001V58.9301ZM46 56.9301H58L56.52 47.9301H47.52V48.0101L46 56.9301Z" fill="#475059"/>
<path d="M62 56.9301H42V58.9301H62V56.9301Z" fill="#475059"/>
<path d="M21 38.9301V43.4301C21 43.5627 21.0527 43.6898 21.1464 43.7836C21.2402 43.8774 21.3674 43.9301 21.5 43.9301H82.5C82.6326 43.9301 82.7598 43.8774 82.8536 43.7836C82.9473 43.6898 83 43.5627 83 43.4301V38.9301H21Z" fill="#DEDEDD"/>
<path d="M48.37 54.9301H55.62L54.79 49.9301H49.19L48.37 54.9301Z" fill="#DEDEDD"/>
<path d="M172 47.93H108C107.204 47.93 106.441 47.6139 105.879 47.0513C105.316 46.4887 105 45.7257 105 44.93V26.5H107V44.93C107 45.1952 107.105 45.4496 107.293 45.6371C107.48 45.8246 107.735 45.93 108 45.93H172C172.265 45.93 172.52 45.8246 172.707 45.6371C172.895 45.4496 173 45.1952 173 44.93V3C173 2.73478 172.895 2.48043 172.707 2.29289C172.52 2.10536 172.265 2 172 2H108C107.735 2 107.48 2.10536 107.293 2.29289C107.105 2.48043 107 2.73478 107 3V20.17H105V3C105 2.20435 105.316 1.44129 105.879 0.87868C106.441 0.31607 107.204 0 108 0L172 0C172.796 0 173.559 0.31607 174.121 0.87868C174.684 1.44129 175 2.20435 175 3V44.93C175 45.7257 174.684 46.4887 174.121 47.0513C173.559 47.6139 172.796 47.93 172 47.93Z" fill="#475059"/>
<path d="M148 58.9301H132V56.8101L133.48 47.8101V45.9301H146.48V47.8501L148 57.0001V58.9301ZM134 56.9301H146L144.52 47.9301H135.52V48.0001L134 56.9301Z" fill="#475059"/>
<path d="M150 56.9301H130V58.9301H150V56.9301Z" fill="#475059"/>
<path d="M109 38.9301V43.4301C109 43.5627 109.053 43.6898 109.146 43.7836C109.24 43.8774 109.367 43.9301 109.5 43.9301H170.5C170.633 43.9301 170.76 43.8774 170.854 43.7836C170.947 43.6898 171 43.5627 171 43.4301V38.9301H109Z" fill="#DEDEDD"/>
<path d="M136.38 54.9301H143.62L142.79 49.9301H137.2L136.38 54.9301Z" fill="#DEDEDD"/>
<path d="M86 117H46C45.2044 117 44.4413 116.684 43.8787 116.121C43.3161 115.559 43 114.796 43 114V88C43 87.2044 43.3161 86.4413 43.8787 85.8787C44.4413 85.3161 45.2044 85 46 85H86C86.7957 85 87.5587 85.3161 88.1213 85.8787C88.6839 86.4413 89 87.2044 89 88V97H87V88C87 87.7348 86.8946 87.4804 86.7071 87.2929C86.5196 87.1054 86.2652 87 86 87H46C45.7348 87 45.4804 87.1054 45.2929 87.2929C45.1054 87.4804 45 87.7348 45 88V114C45 114.265 45.1054 114.52 45.2929 114.707C45.4804 114.895 45.7348 115 46 115H86C86.2652 115 86.5196 114.895 86.7071 114.707C86.8946 114.52 87 114.265 87 114V104.87H89V114C89 114.796 88.6839 115.559 88.1213 116.121C87.5587 116.684 86.7957 117 86 117Z" fill="#475059"/>
<path d="M73 126H59V123.83L60.48 116.83V115H71.48V116.89L72.98 124.04L73 126ZM61 124H70.94L69.47 117H62.47L61 124Z" fill="#475059"/>
<path d="M74.97 124H56.98V126H74.97V124Z" fill="#475059"/>
<path d="M146 117H106C105.204 117 104.441 116.684 103.879 116.121C103.316 115.559 103 114.796 103 114V104.87H105V114C105 114.265 105.105 114.52 105.293 114.707C105.48 114.895 105.735 115 106 115H146C146.265 115 146.52 114.895 146.707 114.707C146.895 114.52 147 114.265 147 114V88C147 87.7348 146.895 87.4804 146.707 87.2929C146.52 87.1054 146.265 87 146 87H106C105.735 87 105.48 87.1054 105.293 87.2929C105.105 87.4804 105 87.7348 105 88V97H103V88C103 87.2044 103.316 86.4413 103.879 85.8787C104.441 85.3161 105.204 85 106 85H146C146.796 85 147.559 85.3161 148.121 85.8787C148.684 86.4413 149 87.2044 149 88V114C149 114.796 148.684 115.559 148.121 116.121C147.559 116.684 146.796 117 146 117Z" fill="#475059"/>
<path d="M133 126H119V123.83L120.48 116.83V115H131.48V116.89L132.99 124.04L133 126ZM121 124H131L129.53 117H122.53L121 124Z" fill="#475059"/>
<path d="M134.99 124H117V126H134.99V124Z" fill="#475059"/>
<path d="M56 27H48V19H56V27ZM50 25H54V21H50V25Z" fill="#475059"/>
<path d="M143.05 27H135.05V19H143.05V27ZM137.05 25H141.05V21H137.05V25Z" fill="#475059"/>
<path d="M89.16 24H87.16V22H89.16V24ZM85.16 24H83.16V22H85.16V24ZM81.16 24H79.16V22H81.16V24ZM77.16 24H75.16V22H77.16V24ZM73.16 24H71.16V22H73.16V24ZM69.16 24H67.16V22H69.16V24ZM65.16 24H63.16V22H65.16V24ZM61.16 24H59.16V22H61.16V24Z" fill="#475059"/>
<path d="M100 27H92V19H100V27ZM94 25H98V21H94V25Z" fill="#475059"/>
<path d="M133.19 24H131.19V22H133.19V24ZM129.19 24H127.19V22H129.19V24ZM125.19 24H123.19V22H125.19V24ZM121.19 24H119.19V22H121.19V24ZM117.19 24H115.19V22H117.19V24ZM113.19 24H111.19V22H113.19V24ZM109.19 24H107.19V22H109.19V24ZM105.19 24H103.19V22H105.19V24Z" fill="#475059"/>
<path d="M97.09 95.36H95.09V93.36H97.09V95.36ZM97.09 91.36H95.09V89.36H97.09V91.36ZM97.09 87.36H95.09V85.36H97.09V87.36ZM97.09 83.36H95.09V81.36H97.09V83.36ZM97.09 79.36H95.09V77.36H97.09V79.36ZM97.09 75.36H95.09V73.36H97.09V75.36ZM97.09 71.36H95.09V69.36H97.09V71.36ZM97.09 67.36H95.09V65.36H97.09V67.36ZM97.09 63.36H95.09V61.36H97.09V63.36ZM97.09 59.36H95.09V57.36H97.09V59.36ZM97.09 55.36H95.09V53.36H97.09V55.36ZM97.09 51.36H95.09V49.36H97.09V51.36ZM97.09 47.36H95.09V45.36H97.09V47.36ZM97.09 43.36H95.09V41.36H97.09V43.36ZM97.09 39.36H95.09V37.36H97.09V39.36ZM97.09 35.36H95.09V33.36H97.09V35.36ZM97.09 31.36H95.09V29.36H97.09V31.36Z" fill="#475059"/>
<path d="M70 105H62V97H70V105ZM64 103H68V99H64V103Z" fill="#475059"/>
<path d="M130 105H122V97H130V105ZM124 103H128V99H124V103Z" fill="#475059"/>
<path d="M90 102H88V100H90V102ZM86 102H84V100H86V102ZM82 102H80V100H82V102ZM78 102H76V100H78V102ZM74 102H72V100H74V102Z" fill="#475059"/>
<path d="M100 105H92V97H100V105ZM94 103H98V99H94V103Z" fill="#475059"/>
<path d="M120 102H118.19V100H120V102ZM116.19 102H114.19V100H116.19V102ZM112.19 102H110.19V100H112.19V102ZM108.19 102H106.19V100H108.19V102ZM104.19 102H102.19V100H104.19V102Z" fill="#475059"/>
<path d="M8 111H6V115H8V111Z" fill="#48515A"/>
<path d="M8 121H6V125H8V121Z" fill="#48515A"/>
<path d="M14 117H10V119H14V117Z" fill="#48515A"/>
<path d="M4 117H0V119H4V117Z" fill="#48515A"/>
<path d="M186 63H184V67H186V63Z" fill="#48515A"/>
<path d="M186 73H184V77H186V73Z" fill="#48515A"/>
<path d="M192 69H188V71H192V69Z" fill="#48515A"/>
<path d="M182 69H178V71H182V69Z" fill="#48515A"/>
<path d="M165.56 54.5601C165.56 54.9556 165.443 55.3423 165.223 55.6712C165.003 56.0001 164.691 56.2564 164.325 56.4078C163.96 56.5592 163.558 56.5988 163.17 56.5216C162.782 56.4445 162.425 56.254 162.146 55.9743C161.866 55.6946 161.676 55.3382 161.598 54.9502C161.521 54.5623 161.561 54.1601 161.712 53.7947C161.864 53.4292 162.12 53.1169 162.449 52.8971C162.778 52.6774 163.164 52.5601 163.56 52.5601C164.09 52.5601 164.599 52.7708 164.974 53.1458C165.349 53.5209 165.56 54.0296 165.56 54.5601Z" fill="#3388E5"/>
<path d="M163.56 57.0601C163.066 57.0601 162.582 56.9134 162.171 56.6387C161.76 56.364 161.44 55.9736 161.25 55.5168C161.061 55.06 161.012 54.5573 161.108 54.0723C161.204 53.5874 161.443 53.1419 161.792 52.7923C162.142 52.4427 162.587 52.2046 163.072 52.1081C163.557 52.0116 164.06 52.0611 164.517 52.2504C164.974 52.4396 165.364 52.76 165.639 53.1711C165.913 53.5823 166.06 54.0656 166.06 54.5601C166.06 55.2231 165.797 55.859 165.328 56.3278C164.859 56.7967 164.223 57.0601 163.56 57.0601ZM163.56 53.0601C163.263 53.0601 162.973 53.148 162.727 53.3129C162.48 53.4777 162.288 53.7119 162.174 53.986C162.061 54.2601 162.031 54.5617 162.089 54.8527C162.147 55.1437 162.29 55.4109 162.499 55.6207C162.709 55.8305 162.976 55.9734 163.267 56.0312C163.558 56.0891 163.86 56.0594 164.134 55.9459C164.408 55.8323 164.642 55.6401 164.807 55.3934C164.972 55.1467 165.06 54.8567 165.06 54.5601C165.057 54.163 164.899 53.783 164.618 53.5023C164.337 53.2216 163.957 53.0627 163.56 53.0601Z" fill="#3388E5"/>
<path d="M12.44 71.4399C12.44 71.8355 12.3227 72.2222 12.1029 72.5511C11.8832 72.88 11.5708 73.1363 11.2054 73.2877C10.8399 73.4391 10.4378 73.4787 10.0498 73.4015C9.66186 73.3243 9.30549 73.1339 9.02579 72.8541C8.74608 72.5744 8.5556 72.2181 8.47843 71.8301C8.40126 71.4422 8.44087 71.04 8.59224 70.6746C8.74362 70.3091 8.99996 69.9968 9.32886 69.777C9.65776 69.5572 10.0444 69.4399 10.44 69.4399C10.9704 69.4399 11.4791 69.6507 11.8542 70.0257C12.2293 70.4008 12.44 70.9095 12.44 71.4399Z" fill="#3388E5"/>
<path d="M10.44 73.9399C9.94555 73.9399 9.4622 73.7933 9.05108 73.5186C8.63995 73.2439 8.31952 72.8535 8.13031 72.3966C7.94109 71.9398 7.89158 71.4372 7.98804 70.9522C8.0845 70.4673 8.3226 70.0218 8.67224 69.6722C9.02187 69.3225 9.46733 69.0844 9.95228 68.988C10.4372 68.8915 10.9399 68.941 11.3967 69.1302C11.8535 69.3195 12.244 69.6399 12.5187 70.051C12.7934 70.4621 12.94 70.9455 12.94 71.4399C12.94 72.103 12.6766 72.7389 12.2078 73.2077C11.7389 73.6765 11.103 73.9399 10.44 73.9399ZM10.44 69.9399C10.1433 69.9399 9.85332 70.0279 9.60665 70.1927C9.35997 70.3576 9.16772 70.5918 9.05418 70.8659C8.94065 71.14 8.91095 71.4416 8.96883 71.7326C9.0267 72.0235 9.16956 72.2908 9.37934 72.5006C9.58912 72.7104 9.8564 72.8532 10.1474 72.9111C10.4383 72.969 10.7399 72.9393 11.014 72.8258C11.2881 72.7122 11.5224 72.52 11.6872 72.2733C11.852 72.0266 11.94 71.7366 11.94 71.4399C11.94 71.0421 11.782 70.6606 11.5007 70.3793C11.2194 70.098 10.8378 69.9399 10.44 69.9399Z" fill="#3388E5"/>
<path d="M186 40.56C186.002 41.043 185.861 41.5157 185.594 41.9183C185.327 42.3209 184.946 42.6352 184.501 42.8214C184.055 43.0076 183.564 43.0573 183.09 42.9643C182.616 42.8713 182.18 42.6397 181.838 42.2989C181.496 41.958 181.263 41.5233 181.168 41.0497C181.073 40.5761 181.12 40.085 181.305 39.6386C181.489 39.1921 181.802 38.8105 182.203 38.5419C182.605 38.2734 183.077 38.13 183.56 38.13C184.205 38.13 184.825 38.3857 185.282 38.8411C185.739 39.2966 185.997 39.9146 186 40.56Z" fill="#3388E5"/>
<path d="M52.88 165.44C52.88 165.923 52.7369 166.394 52.4688 166.796C52.2007 167.197 51.8196 167.51 51.3738 167.694C50.9279 167.879 50.4373 167.927 49.964 167.833C49.4907 167.739 49.0559 167.507 48.7147 167.165C48.3734 166.824 48.141 166.389 48.0469 165.916C47.9527 165.443 48.0011 164.952 48.1857 164.506C48.3704 164.06 48.6832 163.679 49.0844 163.411C49.4857 163.143 49.9574 163 50.44 163C51.0863 163.003 51.7054 163.261 52.1624 163.718C52.6195 164.175 52.8774 164.794 52.88 165.44Z" fill="#3388E5"/>
<path d="M12 160.56C12.002 161.043 11.8605 161.516 11.5936 161.918C11.3267 162.321 10.9463 162.635 10.5007 162.821C10.055 163.008 9.56409 163.057 9.09012 162.964C8.61614 162.871 8.18044 162.64 7.8382 162.299C7.49596 161.958 7.26258 161.523 7.16762 161.05C7.07266 160.576 7.12039 160.085 7.30477 159.639C7.48915 159.192 7.80188 158.81 8.20335 158.542C8.60482 158.273 9.07696 158.13 9.55998 158.13C10.2054 158.13 10.8245 158.386 11.2818 158.841C11.7391 159.297 11.9973 159.915 12 160.56Z" fill="#3388E5"/>
<path d="M9.56 163.5C8.97852 163.5 8.4101 163.328 7.92662 163.005C7.44314 162.681 7.06631 162.222 6.84379 161.685C6.62127 161.148 6.56305 160.557 6.67649 159.986C6.78993 159.416 7.06994 158.892 7.4811 158.481C7.89227 158.07 8.41613 157.79 8.98643 157.676C9.55673 157.563 10.1479 157.621 10.6851 157.844C11.2223 158.066 11.6815 158.443 12.0045 158.927C12.3276 159.41 12.5 159.979 12.5 160.56C12.5 161.34 12.1902 162.088 11.6389 162.639C11.0875 163.19 10.3397 163.5 9.56 163.5ZM9.56 158.63C9.17588 158.63 8.8004 158.744 8.48116 158.958C8.16191 159.171 7.91327 159.475 7.76673 159.83C7.6202 160.185 7.58237 160.576 7.65804 160.952C7.73371 161.329 7.91947 161.674 8.19178 161.945C8.4641 162.216 8.81071 162.4 9.18769 162.474C9.56467 162.548 9.95505 162.508 10.3094 162.359C10.6637 162.211 10.966 161.961 11.1779 161.641C11.3899 161.32 11.502 160.944 11.5 160.56C11.5 160.306 11.4497 160.054 11.3521 159.819C11.2545 159.584 11.1115 159.371 10.9312 159.192C10.7509 159.012 10.537 158.87 10.3016 158.774C10.0663 158.678 9.81429 158.629 9.56 158.63Z" fill="#3388E5"/>
<path d="M162 165C162 165.396 161.883 165.782 161.663 166.111C161.443 166.44 161.131 166.696 160.765 166.848C160.4 166.999 159.998 167.039 159.61 166.962C159.222 166.884 158.865 166.694 158.586 166.414C158.306 166.135 158.116 165.778 158.038 165.39C157.961 165.002 158.001 164.6 158.152 164.235C158.304 163.869 158.56 163.557 158.889 163.337C159.218 163.117 159.604 163 160 163C160.53 163 161.039 163.211 161.414 163.586C161.789 163.961 162 164.47 162 165Z" fill="#DEDEDD"/>
<path d="M184 143C184 143.396 183.883 143.782 183.663 144.111C183.443 144.44 183.131 144.696 182.765 144.848C182.4 144.999 181.998 145.039 181.61 144.962C181.222 144.884 180.865 144.694 180.586 144.414C180.306 144.135 180.116 143.778 180.038 143.39C179.961 143.002 180.001 142.6 180.152 142.235C180.304 141.869 180.56 141.557 180.889 141.337C181.218 141.117 181.604 141 182 141C182.53 141 183.039 141.211 183.414 141.586C183.789 141.961 184 142.47 184 143Z" fill="#DEDEDD"/>
<path d="M183 106C182.209 106 181.436 105.765 180.778 105.326C180.12 104.886 179.607 104.262 179.304 103.531C179.002 102.8 178.923 101.996 179.077 101.22C179.231 100.444 179.612 99.731 180.172 99.1716C180.731 98.6122 181.444 98.2312 182.22 98.0769C182.996 97.9225 183.8 98.0017 184.531 98.3045C185.262 98.6072 185.886 99.1199 186.326 99.7777C186.765 100.436 187 101.209 187 102C187 103.061 186.579 104.078 185.828 104.828C185.078 105.579 184.061 106 183 106ZM183 100C182.604 100 182.218 100.117 181.889 100.337C181.56 100.557 181.304 100.869 181.152 101.235C181.001 101.6 180.961 102.002 181.038 102.39C181.116 102.778 181.306 103.135 181.586 103.414C181.865 103.694 182.222 103.884 182.61 103.962C182.998 104.039 183.4 103.999 183.765 103.848C184.131 103.696 184.443 103.44 184.663 103.111C184.883 102.782 185 102.396 185 102C185 101.47 184.789 100.961 184.414 100.586C184.039 100.211 183.53 100 183 100Z" fill="#48515A"/>
<path d="M37 171H35V164H34V162H37V171Z" fill="#48515A"/>
<path d="M38 170H34V172H38V170Z" fill="#48515A"/>
<path d="M161 87H159V80H158V78H161V87Z" fill="#48515A"/>
<path d="M162 86H158V88H162V86Z" fill="#48515A"/>
<path d="M6 56C5.20435 56 4.44129 55.6839 3.87868 55.1213C3.31607 54.5587 3 53.7956 3 53V49C3 48.2044 3.31607 47.4413 3.87868 46.8787C4.44129 46.3161 5.20435 46 6 46C6.79565 46 7.55871 46.3161 8.12132 46.8787C8.68393 47.4413 9 48.2044 9 49V53C9 53.7956 8.68393 54.5587 8.12132 55.1213C7.55871 55.6839 6.79565 56 6 56ZM6 48C5.73478 48 5.48043 48.1054 5.29289 48.2929C5.10536 48.4804 5 48.7348 5 49V53C5 53.2652 5.10536 53.5196 5.29289 53.7071C5.48043 53.8946 5.73478 54 6 54C6.26522 54 6.51957 53.8946 6.70711 53.7071C6.89464 53.5196 7 53.2652 7 53V49C7 48.7348 6.89464 48.4804 6.70711 48.2929C6.51957 48.1054 6.26522 48 6 48Z" fill="#48515A"/>
</g>
<defs>
<clipPath id="clip0">
<rect width="192" height="181.01" fill="white"/>
</clipPath>
</defs>
</svg>
