<svg width="192" height="180" viewBox="0 0 192 180" fill="none" xmlns="http://www.w3.org/2000/svg">
<g clip-path="url(#clip0)">
<path d="M190.82 150.3C190.82 150.695 190.703 151.082 190.483 151.411C190.263 151.74 189.951 151.996 189.585 152.148C189.22 152.299 188.818 152.339 188.43 152.261C188.042 152.184 187.686 151.994 187.406 151.714C187.126 151.434 186.936 151.078 186.858 150.69C186.781 150.302 186.821 149.9 186.972 149.534C187.124 149.169 187.38 148.857 187.709 148.637C188.038 148.417 188.424 148.3 188.82 148.3C189.35 148.3 189.859 148.511 190.234 148.886C190.609 149.261 190.82 149.769 190.82 150.3Z" fill="#3388E5"/>
<path d="M95.06 75.3999C91.0095 75.3999 87.0499 76.601 83.6819 78.8514C80.314 81.1018 77.6891 84.3003 76.139 88.0425C74.5889 91.7848 74.1833 95.9026 74.9735 99.8754C75.7638 103.848 77.7143 107.497 80.5785 110.361C83.4427 113.226 87.0918 115.176 91.0646 115.966C95.0373 116.757 99.1551 116.351 102.897 114.801C106.64 113.251 109.838 110.626 112.089 107.258C114.339 103.89 115.54 99.9305 115.54 95.8799C115.535 90.4499 113.375 85.2438 109.536 81.4042C105.696 77.5646 100.49 75.4052 95.06 75.3999Z" fill="#3388E5"/>
<path d="M95.06 116.36C91.0095 116.36 87.0499 115.159 83.6819 112.908C80.314 110.658 77.6891 107.459 76.139 103.717C74.5889 99.975 74.1833 95.8572 74.9735 91.8845C75.7638 87.9117 77.7143 84.2625 80.5785 81.3984C83.4427 78.5342 87.0918 76.5837 91.0646 75.7934C95.0373 75.0032 99.1551 75.4088 102.897 76.9589C106.64 78.5089 109.838 81.1339 112.089 84.5018C114.339 87.8698 115.54 91.8293 115.54 95.8799C115.532 101.309 113.372 106.514 109.533 110.353C105.694 114.192 100.489 116.352 95.06 116.36Z" fill="#3388E5"/>
<path d="M170.72 103.64L95.72 71.6401L19.72 103.64L19.75 179.64H170.75L170.72 103.64Z" fill="#3388E5" fill-opacity="0.2"/>
<path d="M146.73 96.29H162.79C161.467 94.1964 160.772 91.7668 160.79 89.29V67.29C160.79 65.4335 160.052 63.653 158.74 62.3403C157.427 61.0275 155.646 60.29 153.79 60.29C151.933 60.29 150.153 61.0275 148.84 62.3403C147.527 63.653 146.79 65.4335 146.79 67.29L146.73 96.29Z" fill="#DFE0E0"/>
<path d="M95.72 136.73L21.32 104.56L22.11 102.72L95.71 134.55L168.31 102.73L169.12 104.56L95.72 136.73Z" fill="#475059"/>
<path d="M163.1 176.77C162.905 176.772 162.714 176.716 162.55 176.61L99.39 134.61C99.2803 134.537 99.1861 134.443 99.1127 134.334C99.0393 134.225 98.9881 134.102 98.9621 133.973C98.9361 133.844 98.9358 133.711 98.9612 133.582C98.9866 133.453 99.0371 133.33 99.11 133.22C99.1829 133.11 99.2767 133.016 99.386 132.943C99.4953 132.869 99.6179 132.818 99.747 132.792C99.8761 132.766 100.009 132.766 100.138 132.791C100.267 132.817 100.39 132.867 100.5 132.94L163.66 174.94C163.838 175.06 163.973 175.233 164.045 175.436C164.116 175.638 164.121 175.858 164.058 176.063C163.996 176.268 163.869 176.447 163.696 176.575C163.523 176.702 163.315 176.771 163.1 176.77Z" fill="#475059"/>
<path d="M27 177.07C26.7835 177.072 26.5723 177.003 26.3982 176.874C26.2241 176.746 26.0964 176.564 26.0344 176.356C25.9724 176.149 25.9794 175.927 26.0544 175.724C26.1293 175.521 26.2681 175.348 26.45 175.23L90.69 133.16C90.7993 133.076 90.9247 133.016 91.0584 132.983C91.1921 132.95 91.3311 132.945 91.4669 132.968C91.6026 132.991 91.7321 133.042 91.8472 133.118C91.9624 133.193 92.0606 133.292 92.1359 133.407C92.2112 133.522 92.2618 133.652 92.2847 133.788C92.3075 133.924 92.302 134.063 92.2686 134.196C92.2352 134.33 92.1746 134.455 92.0905 134.564C92.0064 134.673 91.9007 134.764 91.78 134.83L27.58 176.91C27.4162 177.016 27.225 177.071 27.03 177.07" fill="#475059"/>
<path d="M106.73 165.64C106.73 165.442 106.789 165.249 106.899 165.085C107.008 164.92 107.165 164.792 107.347 164.716C107.53 164.641 107.731 164.621 107.925 164.659C108.119 164.698 108.297 164.793 108.437 164.933C108.577 165.073 108.672 165.251 108.711 165.445C108.749 165.639 108.73 165.84 108.654 166.023C108.578 166.206 108.45 166.362 108.286 166.472C108.121 166.581 107.928 166.64 107.73 166.64C107.465 166.64 107.21 166.535 107.023 166.347C106.835 166.16 106.73 165.905 106.73 165.64ZM102.73 165.64C102.73 165.442 102.789 165.249 102.899 165.085C103.008 164.92 103.165 164.792 103.347 164.716C103.53 164.641 103.731 164.621 103.925 164.659C104.119 164.698 104.297 164.793 104.437 164.933C104.577 165.073 104.672 165.251 104.711 165.445C104.749 165.639 104.73 165.84 104.654 166.023C104.578 166.206 104.45 166.362 104.286 166.472C104.121 166.581 103.928 166.64 103.73 166.64C103.465 166.64 103.21 166.535 103.023 166.347C102.835 166.16 102.73 165.905 102.73 165.64ZM98.73 165.64C98.73 165.442 98.7887 165.249 98.8985 165.085C99.0084 164.92 99.1646 164.792 99.3473 164.716C99.53 164.641 99.7311 164.621 99.9251 164.659C100.119 164.698 100.297 164.793 100.437 164.933C100.577 165.073 100.672 165.251 100.711 165.445C100.749 165.639 100.73 165.84 100.654 166.023C100.578 166.206 100.45 166.362 100.286 166.472C100.121 166.581 99.9278 166.64 99.73 166.64C99.4648 166.64 99.2104 166.535 99.0229 166.347C98.8354 166.16 98.73 165.905 98.73 165.64ZM94.73 165.64C94.73 165.442 94.7887 165.249 94.8985 165.085C95.0084 164.92 95.1646 164.792 95.3473 164.716C95.53 164.641 95.7311 164.621 95.9251 164.659C96.1191 164.698 96.2973 164.793 96.4371 164.933C96.577 165.073 96.6722 165.251 96.7108 165.445C96.7494 165.639 96.7296 165.84 96.6539 166.023C96.5782 166.206 96.45 166.362 96.2856 166.472C96.1211 166.581 95.9278 166.64 95.73 166.64C95.4648 166.64 95.2104 166.535 95.0229 166.347C94.8354 166.16 94.73 165.905 94.73 165.64ZM90.73 165.64C90.73 165.442 90.7887 165.249 90.8985 165.085C91.0084 164.92 91.1646 164.792 91.3473 164.716C91.53 164.641 91.7311 164.621 91.9251 164.659C92.1191 164.698 92.2973 164.793 92.4371 164.933C92.577 165.073 92.6722 165.251 92.7108 165.445C92.7494 165.639 92.7296 165.84 92.6539 166.023C92.5782 166.206 92.45 166.362 92.2856 166.472C92.1211 166.581 91.9278 166.64 91.73 166.64C91.4648 166.64 91.2104 166.535 91.0229 166.347C90.8354 166.16 90.73 165.905 90.73 165.64ZM86.73 165.64C86.73 165.442 86.7887 165.249 86.8985 165.085C87.0084 164.92 87.1646 164.792 87.3473 164.716C87.53 164.641 87.7311 164.621 87.9251 164.659C88.1191 164.698 88.2973 164.793 88.4371 164.933C88.577 165.073 88.6722 165.251 88.7108 165.445C88.7494 165.639 88.7296 165.84 88.6539 166.023C88.5782 166.206 88.45 166.362 88.2856 166.472C88.1211 166.581 87.9278 166.64 87.73 166.64C87.4648 166.64 87.2104 166.535 87.0229 166.347C86.8354 166.16 86.73 165.905 86.73 165.64ZM82.73 165.64C82.73 165.442 82.7887 165.249 82.8985 165.085C83.0084 164.92 83.1646 164.792 83.3473 164.716C83.53 164.641 83.7311 164.621 83.9251 164.659C84.1191 164.698 84.2973 164.793 84.4371 164.933C84.577 165.073 84.6722 165.251 84.7108 165.445C84.7494 165.639 84.7296 165.84 84.6539 166.023C84.5782 166.206 84.45 166.362 84.2856 166.472C84.1211 166.581 83.9278 166.64 83.73 166.64C83.4648 166.64 83.2104 166.535 83.0229 166.347C82.8354 166.16 82.73 165.905 82.73 165.64ZM78.73 165.64C78.73 165.442 78.7887 165.249 78.8985 165.085C79.0084 164.92 79.1646 164.792 79.3473 164.716C79.53 164.641 79.7311 164.621 79.9251 164.659C80.1191 164.698 80.2973 164.793 80.4371 164.933C80.577 165.073 80.6722 165.251 80.7108 165.445C80.7494 165.639 80.7296 165.84 80.6539 166.023C80.5782 166.206 80.45 166.362 80.2856 166.472C80.1211 166.581 79.9278 166.64 79.73 166.64C79.4648 166.64 79.2104 166.535 79.0229 166.347C78.8354 166.16 78.73 165.905 78.73 165.64Z" fill="#48515A"/>
<path d="M144.71 114.28H142.71V67.2798C142.71 64.3624 143.869 61.5645 145.932 59.5016C147.995 57.4387 150.793 56.2798 153.71 56.2798C156.627 56.2798 159.425 57.4387 161.488 59.5016C163.551 61.5645 164.71 64.3624 164.71 67.2798V89.2798C164.71 91.6667 165.658 93.9559 167.346 95.6437C169.034 97.3316 171.323 98.2798 173.71 98.2798C176.097 98.2798 178.386 97.3316 180.074 95.6437C181.762 93.9559 182.71 91.6667 182.71 89.2798V57.2798H184.71V89.2798C184.71 92.1972 183.551 94.9951 181.488 97.058C179.425 99.1209 176.627 100.28 173.71 100.28C170.793 100.28 167.995 99.1209 165.932 97.058C163.869 94.9951 162.71 92.1972 162.71 89.2798V67.2798C162.71 64.8928 161.762 62.6037 160.074 60.9158C158.386 59.228 156.097 58.2798 153.71 58.2798C151.323 58.2798 149.034 59.228 147.346 60.9158C145.658 62.6037 144.71 64.8928 144.71 67.2798V114.28Z" fill="#475059"/>
<path d="M46.71 113.55H44.71V67.2798C44.71 64.3624 45.8689 61.5645 47.9318 59.5016C49.9947 57.4387 52.7926 56.2798 55.71 56.2798H153.71V58.2798H55.71C53.323 58.2798 51.0339 59.228 49.346 60.9158C47.6582 62.6037 46.71 64.8928 46.71 67.2798V113.55Z" fill="#475059"/>
<path d="M184.74 89.55H182.74V2H110.09L86.73 21.74V57.28H84.73V20.81L109.36 0H184.74V89.55Z" fill="#475059"/>
<path d="M110.73 22.27H85.73V20.27H108.73V1H110.73V22.27Z" fill="#475059"/>
<path d="M87.73 20.5H85.73V1H108.23V3H87.73V20.5Z" fill="#475059"/>
<path d="M147.74 22.29H121.74V24.29H147.74V22.29Z" fill="#475059"/>
<path d="M93.93 18.27H106.73V7.45996L93.93 18.27Z" fill="#3388E5"/>
<path d="M161.74 28.29H107.74V30.29H161.74V28.29Z" fill="#475059"/>
<path d="M167.74 34.29H101.74V36.29H167.74V34.29Z" fill="#475059"/>
<path d="M161.74 40.29H107.74V42.29H161.74V40.29Z" fill="#475059"/>
<path d="M167.74 46.29H101.74V48.29H167.74V46.29Z" fill="#475059"/>
<path d="M95.72 136.73L19.2 103.64L45.67 92.1899L46.46 94.0299L24.23 103.64L95.71 134.55L166.22 103.64L159.1 100.52L159.9 98.6899L171.21 103.64L95.72 136.73Z" fill="#475059"/>
<path d="M173.74 98.29H143.74V100.29H173.74V98.29Z" fill="#475059"/>
<path d="M95.06 120.36C90.2183 120.36 85.4854 118.924 81.4596 116.234C77.4339 113.544 74.2963 109.721 72.4434 105.248C70.5906 100.775 70.1058 95.8528 71.0504 91.1041C71.9949 86.3554 74.3264 81.9935 77.75 78.5699C81.1736 75.1463 85.5355 72.8149 90.2842 71.8703C95.0328 70.9257 99.955 71.4105 104.428 73.2633C108.901 75.1162 112.724 78.2538 115.414 82.2796C118.104 86.3053 119.54 91.0382 119.54 95.8799C119.532 102.37 116.95 108.592 112.361 113.181C107.772 117.77 101.55 120.352 95.06 120.36ZM95.06 73.3599C90.6139 73.3599 86.2676 74.6783 82.5708 77.1485C78.874 79.6186 75.9926 83.1295 74.2912 87.2372C72.5897 91.3449 72.1445 95.8649 73.0119 100.226C73.8793 104.586 76.0204 108.592 79.1642 111.736C82.3081 114.88 86.3137 117.021 90.6744 117.888C95.0351 118.755 99.555 118.31 103.663 116.609C107.77 114.907 111.281 112.026 113.751 108.329C116.222 104.632 117.54 100.286 117.54 95.8399C117.524 89.8864 115.149 84.1819 110.936 79.9758C106.722 75.7698 101.014 73.4052 95.06 73.3999" fill="#475059"/>
<path d="M95.06 120.36C87.41 120.36 81.41 109.61 81.41 95.8799C81.41 82.1499 87.41 71.3999 95.06 71.3999C102.71 71.3999 108.7 82.1499 108.7 95.8799C108.7 109.61 102.7 120.36 95.06 120.36ZM95.06 73.3599C88.75 73.3599 83.41 83.6499 83.41 95.8399C83.41 108.03 88.75 118.32 95.06 118.32C101.37 118.32 106.7 108.02 106.7 95.8399C106.7 83.6599 101.37 73.3999 95.06 73.3999" fill="#475059"/>
<path d="M118.55 94.8799H71.58V96.8799H118.55V94.8799Z" fill="#475059"/>
<path d="M64.89 36.8599H18.63V7.37988H64.89V36.8599ZM20.63 34.8599H62.89V9.37988H20.63V34.8599Z" fill="#48515A"/>
<path d="M41.76 23.3901C41.5728 23.3907 41.3891 23.3387 41.23 23.2401L25.1 13.0001L26.18 11.3101L41.76 21.2501L56.76 11.6601L57.84 13.3401L42.3 23.2301C42.1391 23.334 41.9516 23.3896 41.76 23.3901Z" fill="#48515A"/>
<path d="M52.3522 20.9407L50.8159 22.2212L59.7409 32.9295L61.2772 31.649L52.3522 20.9407Z" fill="#48515A"/>
<path d="M31.1926 20.9413L22.2639 31.6465L23.7998 32.9275L32.7285 22.2223L31.1926 20.9413Z" fill="#48515A"/>
<path d="M44.61 38.75H42.61V51.78H44.61V38.75Z" fill="#48515A"/>
<path d="M43.61 57.1301C43.3462 57.1264 43.0946 57.0185 42.91 56.8301C42.8135 56.7414 42.7383 56.632 42.69 56.5101C42.6388 56.3899 42.6116 56.2608 42.61 56.1301C42.6106 55.9978 42.6374 55.8669 42.6889 55.7451C42.7404 55.6232 42.8155 55.5127 42.91 55.4201C43.0535 55.2861 43.2314 55.1946 43.4239 55.1557C43.6163 55.1169 43.8158 55.1322 44 55.2001C44.1178 55.2557 44.2259 55.33 44.32 55.4201C44.4127 55.5136 44.486 55.6244 44.5358 55.7462C44.5856 55.8681 44.6108 55.9985 44.61 56.1301C44.6116 56.2601 44.5878 56.3892 44.54 56.5101C44.4883 56.6301 44.4136 56.7389 44.32 56.8301C44.2297 56.9273 44.1209 57.0054 44 57.0601C43.8747 57.1044 43.7429 57.128 43.61 57.1301Z" fill="#48515A"/>
<path d="M53.31 38.75H51.31V43.09H53.31V38.75Z" fill="#48515A"/>
<path d="M52.31 48.43C52.1776 48.4311 52.0459 48.4109 51.92 48.37C51.7977 48.3179 51.6884 48.2394 51.6 48.14C51.5073 48.0466 51.434 47.9358 51.3842 47.8139C51.3345 47.6921 51.3093 47.5616 51.31 47.43C51.3084 47.3 51.3322 47.1709 51.38 47.05C51.4328 46.9336 51.5075 46.8283 51.6 46.74C51.7874 46.5538 52.0408 46.4492 52.305 46.4492C52.5692 46.4492 52.8226 46.5538 53.01 46.74C53.1048 46.8282 53.1804 46.935 53.2321 47.0537C53.2837 47.1724 53.3102 47.3005 53.31 47.43C53.3095 47.5623 53.2827 47.6932 53.2312 47.8151C53.1797 47.937 53.1045 48.0474 53.01 48.14C52.9216 48.2394 52.8124 48.3179 52.69 48.37C52.5674 48.4101 52.4391 48.4304 52.31 48.43Z" fill="#48515A"/>
<path d="M35.92 38.75H33.92V45.99H35.92V38.75Z" fill="#48515A"/>
<path d="M34.92 51.34C34.7871 51.3379 34.6554 51.3143 34.53 51.27C34.4122 51.2144 34.3041 51.1401 34.21 51.05C34.0791 50.9129 33.9898 50.7414 33.9526 50.5555C33.9154 50.3696 33.9319 50.1769 34 50C34.0544 49.8785 34.1287 49.7669 34.22 49.67C34.3606 49.5313 34.5392 49.4373 34.7332 49.3999C34.9272 49.3625 35.1279 49.3834 35.31 49.46C35.4292 49.5088 35.5378 49.5801 35.63 49.67C35.7245 49.7626 35.7997 49.8731 35.8512 49.995C35.9026 50.1168 35.9294 50.2477 35.93 50.38C35.9294 50.5123 35.9026 50.6432 35.8512 50.7651C35.7997 50.887 35.7245 50.9974 35.63 51.09C35.4437 51.2748 35.1923 51.3789 34.93 51.38" fill="#48515A"/>
<path d="M56 143.33H5.55C4.79984 143.375 4.04834 143.266 3.34174 143.01C2.63513 142.755 1.98835 142.357 1.44117 141.842C0.893988 141.326 0.45798 140.705 0.159955 140.015C-0.138069 139.325 -0.291809 138.581 -0.291809 137.83C-0.291809 137.078 -0.138069 136.335 0.159955 135.645C0.45798 134.955 0.893988 134.333 1.44117 133.818C1.98835 133.303 2.63513 132.905 3.34174 132.649C4.04834 132.393 4.79984 132.285 5.55 132.33H55.55L64.64 137.81L56 143.33ZM20 141.33H55.38L60.85 137.85L55 134.32H5.51C4.58519 134.317 3.69691 134.681 3.03922 135.331C2.38154 135.981 2.00793 136.865 2 137.79C2.00264 138.72 2.37329 139.611 3.03097 140.269C3.68866 140.927 4.57991 141.297 5.51 141.3L20 141.33Z" fill="#475059"/>
<path d="M13.27 133.29H11.27V142.3H13.27V133.29Z" fill="#475059"/>
<path d="M56.67 133.59H54.67V142.08H56.67V133.59Z" fill="#475059"/>
<path d="M55.18 136.83H12.34V138.83H55.18V136.83Z" fill="#475059"/>
<path d="M18.72 60.25C18.72 60.6456 18.6027 61.0322 18.383 61.3611C18.1632 61.69 17.8509 61.9464 17.4854 62.0978C17.1199 62.2491 16.7178 62.2887 16.3299 62.2116C15.9419 62.1344 15.5855 61.9439 15.3058 61.6642C15.0261 61.3845 14.8356 61.0281 14.7585 60.6402C14.6813 60.2522 14.7209 59.8501 14.8723 59.4846C15.0236 59.1192 15.28 58.8068 15.6089 58.5871C15.9378 58.3673 16.3245 58.25 16.72 58.25C17.2505 58.25 17.7592 58.4607 18.1342 58.8358C18.5093 59.2109 18.72 59.7196 18.72 60.25Z" fill="#3388E5"/>
<path d="M168.81 19.2202C168.81 19.6158 168.693 20.0025 168.473 20.3314C168.253 20.6603 167.941 20.9166 167.575 21.068C167.21 21.2193 166.808 21.259 166.42 21.1818C166.032 21.1046 165.675 20.9141 165.396 20.6344C165.116 20.3547 164.926 19.9984 164.848 19.6104C164.771 19.2224 164.811 18.8203 164.962 18.4548C165.114 18.0894 165.37 17.777 165.699 17.5573C166.028 17.3375 166.414 17.2202 166.81 17.2202C167.34 17.2202 167.849 17.4309 168.224 17.806C168.599 18.1811 168.81 18.6898 168.81 19.2202Z" fill="#3388E5"/>
<path d="M185.78 158.31H183.78V162.31H185.78V158.31Z" fill="#48515A"/>
<path d="M185.78 168.31H183.78V172.31H185.78V168.31Z" fill="#48515A"/>
<path d="M191.78 164.31H187.78V166.31H191.78V164.31Z" fill="#48515A"/>
<path d="M181.78 164.31H177.78V166.31H181.78V164.31Z" fill="#48515A"/>
<path d="M7.66998 78.2598H5.66998V82.2598H7.66998V78.2598Z" fill="#48515A"/>
<path d="M7.66998 88.2598H5.66998V92.2598H7.66998V88.2598Z" fill="#48515A"/>
<path d="M13.67 84.2598H9.66998V86.2598H13.67V84.2598Z" fill="#48515A"/>
</g>
<defs>
<clipPath id="clip0">
<rect width="191.78" height="179.64" fill="white"/>
</clipPath>
</defs>
</svg>
