<svg width="184" height="199" viewBox="0 0 184 199" fill="none" xmlns="http://www.w3.org/2000/svg">
<g clip-path="url(#clip0)">
<path d="M156.741 39.9036L157.145 40.681V145.26C158.558 145.215 159.965 145.455 161.283 145.965C162.601 146.474 163.803 147.243 164.817 148.226C165.832 149.208 166.639 150.385 167.19 151.685C167.741 152.985 168.025 154.383 168.025 155.795C168.025 157.207 167.741 158.605 167.19 159.905C166.639 161.205 165.832 162.382 164.817 163.365C163.803 164.347 162.601 165.116 161.283 165.626C159.965 166.135 158.558 166.375 157.145 166.331H151.554V39.9036H156.741Z" fill="#DFE0E0"/>
<path d="M15.2166 39.9036L14.8121 40.681V145.26C13.3997 145.215 11.9927 145.455 10.6748 145.965C9.35683 146.474 8.15478 147.243 7.13999 148.226C6.1252 149.208 5.31835 150.385 4.76734 151.685C4.21634 152.985 3.9324 154.383 3.9324 155.795C3.9324 157.207 4.21634 158.605 4.76734 159.905C5.31835 161.205 6.1252 162.382 7.13999 163.365C8.15478 164.347 9.35683 165.116 10.6748 165.626C11.9927 166.135 13.3997 166.375 14.8121 166.331H20.403V39.9036H15.2166Z" fill="#DFE0E0"/>
<path d="M157.322 24.108C163.234 24.108 168.037 29.508 168.037 35.3329V156.505C168.037 151.033 162.85 145.84 157.322 145.332V24.108Z" fill="#D7D7D7"/>
<path d="M15.2167 24.108C9.30425 24.108 3.80676 28.8136 3.80676 34.6384V155.8C3.80676 150.318 9.6673 145.819 15.2167 145.311V24.108Z" fill="#D7D7D7"/>
<path d="M156.803 40.9401H15.2166C14.9415 40.9401 14.6777 40.8309 14.4832 40.6365C14.2887 40.4422 14.1794 40.1785 14.1794 39.9036C14.1794 39.6288 14.2887 39.3651 14.4832 39.1708C14.6777 38.9764 14.9415 38.8672 15.2166 38.8672H156.803C157.078 38.8672 157.342 38.9764 157.536 39.1708C157.731 39.3651 157.84 39.6288 157.84 39.9036C157.84 40.1785 157.731 40.4422 157.536 40.6365C157.342 40.8309 157.078 40.9401 156.803 40.9401Z" fill="#48515A"/>
<path d="M14.8121 165.294C13.5373 165.336 12.267 165.122 11.0768 164.663C9.88666 164.205 8.80093 163.512 7.88423 162.626C6.96752 161.74 6.23857 160.678 5.74073 159.505C5.2429 158.331 4.98635 157.07 4.98635 155.795C4.98635 154.521 5.2429 153.259 5.74073 152.086C6.23857 150.912 6.96752 149.851 7.88423 148.965C8.80093 148.078 9.88666 147.385 11.0768 146.927C12.267 146.469 13.5373 146.254 14.8121 146.296H15.8494V23.2063L14.9055 23.1234C13.4722 22.9497 12.0183 23.0856 10.6422 23.5219C9.26605 23.9582 7.99974 24.6847 6.92891 25.6523C5.72135 26.8114 4.76849 28.2089 4.13096 29.756C3.49343 31.3031 3.1852 32.9658 3.22588 34.6384V155.79C3.22863 158.86 4.4502 161.803 6.62244 163.973C8.79468 166.144 11.7401 167.365 14.8121 167.367H26.6576V165.294H14.8121ZM5.30041 34.6384C5.25693 33.2566 5.5009 31.8809 6.01689 30.5981C6.53288 29.3154 7.30966 28.1536 8.2981 27.1863C9.78616 25.8329 11.7317 25.0923 13.7437 25.1134V144.265C12.058 144.421 10.4266 144.942 8.963 145.792C7.49944 146.642 6.23895 147.801 5.26929 149.188L5.30041 34.6384Z" fill="#48515A"/>
<path d="M157.239 23.113L156.108 23.0094V146.348H157.145C158.42 146.306 159.69 146.52 160.881 146.979C162.071 147.437 163.156 148.13 164.073 149.016C164.99 149.903 165.719 150.964 166.217 152.138C166.714 153.311 166.971 154.573 166.971 155.847C166.971 157.122 166.714 158.383 166.217 159.557C165.719 160.73 164.99 161.791 164.073 162.678C163.156 163.564 162.071 164.257 160.881 164.715C159.69 165.174 158.42 165.388 157.145 165.346H64.3103V167.419H157.145C160.217 167.416 163.163 166.196 165.335 164.025C167.507 161.855 168.729 158.911 168.731 155.842V35.2396C168.731 29.2281 163.473 23.7038 157.239 23.1648V23.113ZM166.657 149.25C165.689 147.86 164.43 146.699 162.966 145.847C161.502 144.995 159.869 144.472 158.183 144.316V25.3414C162.809 26.3157 166.657 30.6584 166.657 35.1878V149.25Z" fill="#48515A"/>
<path d="M65.0467 196.927H25.6308V140.958H65.0467V196.927ZM27.7053 194.854H62.9722V143.031H27.7053V194.854Z" fill="#475059"/>
<path d="M36.0034 167.906H29.7798V161.688H36.0034V167.906ZM31.8543 165.833H33.9289V163.76H31.8543V165.833Z" fill="#475059"/>
<path d="M36.0034 176.198H29.7798V169.979H36.0034V176.198ZM31.8543 174.125H33.9289V172.052H31.8543V174.125Z" fill="#475059"/>
<path d="M36.0034 184.49H29.7798V178.271H36.0034V184.49ZM31.8543 182.417H33.9289V180.344H31.8543V182.417Z" fill="#475059"/>
<path d="M36.0034 192.781H29.7798V186.562H36.0034V192.781ZM31.8543 190.708H33.9289V188.635H31.8543V190.708Z" fill="#475059"/>
<path d="M44.3015 167.906H38.0779V161.688H44.3015V167.906ZM40.1524 165.833H42.227V163.76H40.1524V165.833Z" fill="#475059"/>
<path d="M44.3015 176.198H38.0779V169.979H44.3015V176.198ZM40.1524 174.125H42.227V172.052H40.1524V174.125Z" fill="#475059"/>
<path d="M44.3015 184.49H38.0779V178.271H44.3015V184.49ZM40.1524 182.417H42.227V180.344H40.1524V182.417Z" fill="#475059"/>
<path d="M44.3015 192.781H38.0779V186.562H44.3015V192.781ZM40.1524 190.708H42.227V188.635H40.1524V190.708Z" fill="#475059"/>
<path d="M52.5996 167.906H46.376V161.688H52.5996V167.906ZM48.4505 165.833H50.5251V163.76H48.4505V165.833Z" fill="#475059"/>
<path d="M52.5996 176.198H46.376V169.979H52.5996V176.198ZM48.4505 174.125H50.5251V172.052H48.4505V174.125Z" fill="#475059"/>
<path d="M52.5996 184.49H46.376V178.271H52.5996V184.49ZM48.4505 182.417H50.5251V180.344H48.4505V182.417Z" fill="#475059"/>
<path d="M52.5996 192.781H46.376V186.562H52.5996V192.781ZM48.4505 190.708H50.5251V188.635H48.4505V190.708Z" fill="#475059"/>
<path d="M60.8977 167.906H54.6741V161.688H60.8977V167.906ZM56.7486 165.833H58.8232V163.76H56.7486V165.833Z" fill="#475059"/>
<path d="M60.8977 176.198H54.6741V169.979H60.8977V176.198ZM56.7486 174.125H58.8232V172.052H56.7486V174.125Z" fill="#475059"/>
<path d="M60.8977 192.781H54.6741V178.271H60.8977V192.781ZM56.7486 190.708H58.8232V180.344H56.7486V190.708Z" fill="#475059"/>
<path d="M64.0095 157.552H26.668V159.625H64.0095V157.552Z" fill="#475059"/>
<path d="M60.8977 155.469H29.7798V145.104H60.8977V155.469ZM31.8543 153.396H58.8232V147.177H31.8543V153.396Z" fill="#475059"/>
<path d="M56.7486 151.323H54.6741V149.25H56.7486V151.323ZM52.5996 151.323H50.5251V149.25H52.5996V151.323ZM48.4505 151.323H46.376V149.25H48.4505V151.323ZM44.3015 151.323H42.227V149.25H44.3015V151.323ZM40.1524 151.323H38.0779V149.25H40.1524V151.323ZM36.0034 151.323H33.9289V149.25H36.0034V151.323Z" fill="#475059"/>
<path d="M8.2981 172.052H6.22357V176.198H8.2981V172.052Z" fill="#48515A"/>
<path d="M8.2981 182.417H6.22357V186.563H8.2981V182.417Z" fill="#48515A"/>
<path d="M14.5217 178.271H10.3726V180.344H14.5217V178.271Z" fill="#48515A"/>
<path d="M4.14905 178.271H0V180.344H4.14905V178.271Z" fill="#48515A"/>
<path d="M31.1179 17.6198C31.1179 18.2348 30.9354 18.8359 30.5934 19.3473C30.2515 19.8586 29.7655 20.2571 29.1969 20.4925C28.6283 20.7278 28.0026 20.7894 27.399 20.6694C26.7954 20.5494 26.2409 20.2533 25.8057 19.8184C25.3705 19.3836 25.0741 18.8296 24.9541 18.2264C24.834 17.6232 24.8956 16.998 25.1312 16.4299C25.3667 15.8617 25.7655 15.3761 26.2773 15.0344C26.789 14.6928 27.3906 14.5104 28.0061 14.5104C28.8314 14.5104 29.6229 14.838 30.2064 15.4211C30.79 16.0042 31.1179 16.7951 31.1179 17.6198Z" fill="#D7D7D7"/>
<path d="M78.8319 172.052C78.8319 172.462 78.7103 172.863 78.4823 173.204C78.2544 173.545 77.9304 173.81 77.5513 173.967C77.1722 174.124 76.7551 174.165 76.3527 174.085C75.9503 174.005 75.5806 173.808 75.2905 173.518C75.0004 173.228 74.8028 172.859 74.7228 172.457C74.6427 172.054 74.6838 171.638 74.8408 171.259C74.9978 170.88 75.2637 170.556 75.6049 170.329C75.946 170.101 76.3471 169.979 76.7574 169.979C77.3076 169.979 77.8353 170.198 78.2243 170.586C78.6134 170.975 78.8319 171.502 78.8319 172.052Z" fill="#D7D7D7"/>
<path d="M146.358 199H86.6944L146.358 139.497V199ZM91.7147 196.927H144.283V144.493L91.7147 196.927Z" fill="#48515A"/>
<path d="M135.249 187.9H113.145L135.249 166.3V187.9ZM118.238 185.827H133.174V171.233L118.238 185.827Z" fill="#48515A"/>
<path d="M76.7574 35.2396C73.2699 35.2396 69.8606 34.2062 66.9608 32.2701C64.061 30.334 61.8009 27.5822 60.4662 24.3626C59.1316 21.143 58.7824 17.6003 59.4628 14.1823C60.1432 10.7644 61.8226 7.6249 64.2887 5.16073C66.7548 2.69655 69.8968 1.01843 73.3173 0.338567C76.7379 -0.341296 80.2834 0.00763437 83.5055 1.34123C86.7276 2.67483 89.4815 4.93321 91.4191 7.83077C93.3567 10.7283 94.3909 14.1349 94.3909 17.6198C94.3909 22.2929 92.5331 26.7745 89.2262 30.0789C85.9193 33.3832 81.4341 35.2396 76.7574 35.2396ZM76.7574 2.07292C73.6802 2.07292 70.672 2.98473 68.1133 4.69305C65.5547 6.40136 63.5605 8.82945 62.3828 11.6703C61.2052 14.5111 60.8971 17.637 61.4975 20.6528C62.0978 23.6686 63.5796 26.4388 65.7556 28.6131C67.9316 30.7874 70.7039 32.2681 73.722 32.8679C76.7402 33.4678 79.8686 33.1599 82.7116 31.9832C85.5546 30.8065 87.9846 28.8138 89.6942 26.2572C91.4039 23.7005 92.3164 20.6947 92.3164 17.6198C92.3164 13.4965 90.6771 9.5421 87.7593 6.6265C84.8414 3.71089 80.8839 2.07292 76.7574 2.07292ZM76.7574 29.0208C74.5008 29.0208 72.2948 28.3522 70.4184 27.0994C68.5421 25.8467 67.0797 24.0661 66.2161 21.9828C65.3525 19.8995 65.1265 17.6072 65.5668 15.3956C66.007 13.184 67.0937 11.1525 68.6894 9.55805C70.2851 7.96358 72.3182 6.87774 74.5315 6.43783C76.7448 5.99791 79.0389 6.22369 81.1238 7.08661C83.2087 7.94953 84.9907 9.41083 86.2444 11.2857C87.4981 13.1606 88.1673 15.3649 88.1673 17.6198C88.1673 20.6435 86.9652 23.5434 84.8254 25.6816C82.6857 27.8197 79.7835 29.0208 76.7574 29.0208ZM76.7574 8.29167C74.9111 8.29167 73.1062 8.83876 71.571 9.86375C70.0358 10.8887 68.8393 12.3456 68.1327 14.0501C67.4261 15.7546 67.2412 17.6301 67.6014 19.4396C67.9617 21.2491 68.8508 22.9112 70.1563 24.2158C71.4619 25.5203 73.1253 26.4088 74.9362 26.7687C76.7471 27.1286 78.6241 26.9439 80.3299 26.2379C82.0357 25.5318 83.4937 24.3362 84.5195 22.8022C85.5453 21.2682 86.0928 19.4647 86.0928 17.6198C86.0928 15.1458 85.1092 12.7732 83.3585 11.0238C81.6078 9.27446 79.2333 8.29167 76.7574 8.29167Z" fill="#475059"/>
<path d="M76.7574 22.8021C75.7317 22.8021 74.7289 22.4981 73.8761 21.9287C73.0232 21.3593 72.3584 20.5499 71.9659 19.603C71.5733 18.656 71.4706 17.614 71.6708 16.6088C71.8709 15.6035 72.3648 14.6801 73.0901 13.9554C73.8155 13.2306 74.7396 12.737 75.7456 12.5371C76.7517 12.3371 77.7945 12.4397 78.7421 12.832C79.6898 13.2242 80.4998 13.8884 81.0697 14.7407C81.6396 15.5929 81.9437 16.5948 81.9437 17.6198C81.9437 18.9942 81.3973 20.3124 80.4247 21.2842C79.4521 22.2561 78.1329 22.8021 76.7574 22.8021ZM76.7574 14.5104C76.142 14.5104 75.5403 14.6928 75.0286 15.0344C74.5169 15.3761 74.118 15.8617 73.8825 16.4299C73.647 16.9981 73.5854 17.6232 73.7054 18.2264C73.8255 18.8296 74.1219 19.3836 74.5571 19.8185C74.9922 20.2533 75.5467 20.5494 76.1503 20.6694C76.754 20.7894 77.3796 20.7278 77.9482 20.4925C78.5169 20.2571 79.0028 19.8586 79.3448 19.3473C79.6867 18.8359 79.8692 18.2348 79.8692 17.6198C79.8692 16.7951 79.5414 16.0043 78.9578 15.4211C78.3742 14.838 77.5827 14.5104 76.7574 14.5104Z" fill="#475059"/>
<path d="M76.7574 13.474C75.9368 13.474 75.1346 13.7171 74.4523 14.1727C73.77 14.6282 73.2382 15.2757 72.9242 16.0333C72.6102 16.7908 72.528 17.6244 72.6881 18.4286C72.8482 19.2328 73.2433 19.9715 73.8236 20.5513C74.4039 21.1312 75.1431 21.526 75.948 21.686C76.7528 21.8459 77.5871 21.7638 78.3452 21.4501C79.1033 21.1363 79.7513 20.6049 80.2072 19.9231C80.6631 19.2413 80.9065 18.4398 80.9065 17.6198C80.9065 16.5203 80.4693 15.4657 79.6912 14.6883C78.9131 13.9108 77.8578 13.474 76.7574 13.474Z" fill="#3388E5"/>
<path d="M76.7574 22.8021C75.7317 22.8021 74.7289 22.4981 73.8761 21.9287C73.0232 21.3593 72.3584 20.5499 71.9659 19.603C71.5733 18.656 71.4706 17.614 71.6708 16.6088C71.8709 15.6035 72.3648 14.6801 73.0901 13.9554C73.8155 13.2306 74.7396 12.737 75.7456 12.5371C76.7517 12.3371 77.7945 12.4397 78.7421 12.832C79.6898 13.2242 80.4998 13.8884 81.0697 14.7407C81.6396 15.5929 81.9437 16.5948 81.9437 17.6198C81.9437 18.9942 81.3973 20.3124 80.4247 21.2842C79.4521 22.2561 78.1329 22.8021 76.7574 22.8021ZM76.7574 14.5104C76.142 14.5104 75.5403 14.6928 75.0286 15.0344C74.5169 15.3761 74.118 15.8617 73.8825 16.4299C73.647 16.9981 73.5854 17.6232 73.7054 18.2264C73.8255 18.8296 74.1219 19.3836 74.5571 19.8185C74.9922 20.2533 75.5467 20.5494 76.1503 20.6694C76.754 20.7894 77.3796 20.7278 77.9482 20.4925C78.5169 20.2571 79.0028 19.8586 79.3448 19.3473C79.6867 18.8359 79.8692 18.2348 79.8692 17.6198C79.8692 16.7951 79.5414 16.0043 78.9578 15.4211C78.3742 14.838 77.5827 14.5104 76.7574 14.5104Z" fill="#3388E5"/>
<path d="M76.7574 16.5833H48.7513V18.6563H76.7574V16.5833Z" fill="#475059"/>
<path d="M46.0648 22.8021H36.9162L42.1025 17.6198L36.9162 12.4375H46.0648L51.2511 17.6198L46.0648 22.8021ZM41.9158 20.7292H45.2143L48.3261 17.6198L45.2143 14.5104H41.9158L45.0276 17.6198L41.9158 20.7292Z" fill="#475059"/>
<path d="M172.756 20.7292H104.701C103.326 20.7292 102.007 20.1832 101.034 19.2113C100.061 18.2394 99.515 16.9213 99.515 15.5469C99.515 14.1725 100.061 12.8543 101.034 11.8825C102.007 10.9106 103.326 10.3646 104.701 10.3646H172.756L184 15.5469L172.756 20.7292ZM104.701 12.4375C103.876 12.4375 103.084 12.7651 102.501 13.3482C101.917 13.9313 101.589 14.7222 101.589 15.5469C101.589 16.3715 101.917 17.1624 102.501 17.7455C103.084 18.3287 103.876 18.6563 104.701 18.6563H172.3L179.052 15.5469L172.3 12.4375H104.701Z" fill="#475059"/>
<path d="M112.595 11.8156H110.52V19.6927H112.595V11.8156Z" fill="#475059"/>
<path d="M171.729 14.4793H111.558V16.5522H171.729V14.4793Z" fill="#475059"/>
<path d="M113.196 90.3791L118.061 88.8037L118.808 91.1254L120.571 88.7001L113.062 83.2172L110.054 87.3631C109.448 88.2102 108.624 88.8766 107.668 89.2909C108.415 89.9485 109.322 90.3974 110.299 90.5921C111.275 90.7869 112.285 90.7206 113.228 90.3999" fill="#DFE0E0"/>
<path d="M61.6445 121.867L57.7963 123.111L59.9227 129.661L61.1674 127.951C61.8192 127.088 62.2105 126.056 62.2951 124.978C62.3796 123.9 62.1539 122.821 61.6445 121.867Z" fill="#DFE0E0"/>
<path d="M126.94 110.673L131.805 109.098L128.932 100.225L124.067 101.801C122.751 102.242 121.32 102.194 120.038 101.664C118.755 101.135 117.707 100.16 117.086 98.9196L116.049 99.2512C114.878 99.6313 113.858 100.372 113.134 101.367C112.41 102.362 112.021 103.561 112.021 104.791C112.021 106.021 112.41 107.22 113.134 108.215C113.858 109.21 114.878 109.951 116.049 110.331L120.903 111.917L118.061 120.623L113.207 119.048C112.036 118.664 110.774 118.661 109.602 119.039C108.429 119.417 107.407 120.156 106.681 121.151C105.955 122.145 105.563 123.344 105.562 124.575C105.56 125.806 105.949 127.006 106.672 128.003L109.68 132.148L102.119 137.621L99.1208 133.475C98.3984 132.479 97.3791 131.738 96.209 131.356C95.0389 130.975 93.778 130.973 92.607 131.352C91.436 131.731 90.4149 132.47 89.6901 133.464C88.9652 134.458 88.5738 135.655 88.5719 136.885V141.995H79.2365V136.885C79.2347 135.918 78.9928 134.966 78.5323 134.115C78.0719 133.265 77.4074 132.541 76.5984 132.01C75.7894 131.479 74.8611 131.157 73.8968 131.072C72.9325 130.988 71.9623 131.144 71.0732 131.527C72.2061 132.467 72.936 133.804 73.1135 135.265C73.2909 136.726 72.9024 138.199 72.0275 139.383L69.0195 143.529L76.5604 149.012L79.5684 144.866C80.2933 143.873 81.3138 143.135 82.484 142.757C83.6541 142.379 84.914 142.38 86.0833 142.761C87.2527 143.141 88.2716 143.882 88.9943 144.876C89.717 145.87 90.1065 147.068 90.107 148.296V153.396H99.4424V148.286C99.4443 147.056 99.8357 145.859 100.561 144.865C101.285 143.871 102.306 143.132 103.478 142.753C104.649 142.374 105.909 142.376 107.08 142.757C108.25 143.139 109.269 143.88 109.991 144.876L112.989 149.022L120.54 143.549L117.543 139.404C116.821 138.408 116.434 137.21 116.435 135.98C116.437 134.751 116.828 133.554 117.552 132.56C118.276 131.566 119.296 130.827 120.466 130.447C121.637 130.068 122.897 130.069 124.067 130.449L128.932 132.034L131.774 123.318L126.909 121.732C125.738 121.352 124.718 120.611 123.994 119.616C123.271 118.621 122.881 117.422 122.881 116.192C122.881 114.962 123.271 113.763 123.994 112.768C124.718 111.773 125.738 111.032 126.909 110.652" fill="#DFE0E0"/>
<path d="M100.407 110.134L98.4362 109.491C99.1577 107.561 99.4811 105.506 99.387 103.448C99.2928 101.389 98.783 99.3716 97.8882 97.5155C96.9935 95.6594 95.7322 94.0033 94.1804 92.6467C92.6286 91.2902 90.8182 90.2614 88.8581 89.6221C86.8981 88.9828 84.8289 88.7462 82.7749 88.9266C80.721 89.107 78.7249 89.7006 76.9065 90.6718C75.0881 91.643 73.4851 92.9716 72.1938 94.5778C70.9026 96.184 69.9498 98.0346 69.3929 100.018L67.4221 99.3756C68.9877 95.1808 72.1156 91.7531 76.1518 89.8091C80.1879 87.8651 84.8198 87.5554 89.0792 88.9447C93.3386 90.3339 96.8957 93.3146 99.0068 97.2635C101.118 101.213 101.62 105.824 100.407 110.134Z" fill="#475059"/>
<path d="M83.9249 116.602C81.5657 116.602 79.2594 115.902 77.2978 114.593C75.3362 113.283 73.8073 111.422 72.9044 109.244C72.0016 107.066 71.7653 104.669 72.2256 102.357C72.6859 100.045 73.822 97.921 75.4902 96.2541C77.1584 94.5871 79.2839 93.4519 81.5978 92.992C83.9117 92.5321 86.3101 92.7682 88.4898 93.6703C90.6694 94.5724 92.5324 96.1002 93.8431 98.0603C95.1539 100.02 95.8535 102.325 95.8535 104.682C95.8507 107.843 94.5931 110.873 92.3566 113.107C90.1202 115.342 87.0877 116.599 83.9249 116.602ZM83.9249 95.8724C82.1811 95.8724 80.4765 96.3891 79.0266 97.3571C77.5767 98.3252 76.4466 99.7011 75.7793 101.311C75.112 102.921 74.9374 104.692 75.2776 106.401C75.6178 108.11 76.4575 109.68 77.6906 110.912C78.9236 112.144 80.4946 112.983 82.2049 113.323C83.9151 113.663 85.6879 113.488 87.2989 112.822C88.91 112.155 90.287 111.026 91.2558 109.577C92.2246 108.128 92.7417 106.425 92.7417 104.682C92.7389 102.347 91.8091 100.107 90.1563 98.4558C88.5034 96.8042 86.2624 95.8751 83.9249 95.8724Z" fill="#3388E5"/>
<path d="M83.9249 126.448C83.9249 126.173 84.0342 125.909 84.2287 125.715C84.4233 125.521 84.6871 125.411 84.9622 125.411C85.0984 125.405 85.2345 125.426 85.3627 125.473C85.4909 125.519 85.6087 125.59 85.7093 125.682C85.81 125.774 85.8915 125.885 85.9493 126.008C86.0071 126.132 86.04 126.265 86.0461 126.401C86.0523 126.537 86.0315 126.673 85.985 126.801C85.9386 126.93 85.8673 127.047 85.7753 127.148C85.6833 127.248 85.5724 127.33 85.4489 127.388C85.3254 127.445 85.1918 127.478 85.0555 127.484C84.7804 127.484 84.5166 127.375 84.3221 127.181C84.1276 126.986 84.0183 126.723 84.0183 126.448H83.9249ZM80.7716 127.236C80.4965 127.197 80.248 127.051 80.0807 126.829C79.9134 126.608 79.8411 126.329 79.8796 126.054C79.9181 125.779 80.0643 125.531 80.2861 125.364C80.5078 125.197 80.787 125.124 81.0621 125.163C81.3344 125.201 81.5803 125.346 81.7456 125.566C81.911 125.786 81.9822 126.062 81.9438 126.334C81.9085 126.583 81.7839 126.811 81.593 126.975C81.4022 127.139 81.1582 127.228 80.9065 127.225H80.7613L80.7716 127.236ZM88.1362 126.054C88.0868 125.855 88.0975 125.646 88.1671 125.453C88.2367 125.26 88.362 125.092 88.5271 124.97C88.6923 124.849 88.8898 124.779 89.0948 124.769C89.2998 124.76 89.503 124.811 89.6787 124.917C89.8545 125.023 89.9948 125.178 90.082 125.364C90.1691 125.55 90.1992 125.757 90.1685 125.96C90.1377 126.163 90.0474 126.352 89.9091 126.503C89.7707 126.655 89.5905 126.762 89.3913 126.811C89.3086 126.821 89.225 126.821 89.1424 126.811C88.9054 126.818 88.6732 126.743 88.4845 126.6C88.2958 126.457 88.1619 126.253 88.1051 126.023L88.1362 126.054ZM76.5085 126.168C76.3786 126.124 76.2588 126.054 76.1561 125.963C76.0533 125.873 75.9696 125.762 75.9097 125.639C75.8499 125.516 75.8152 125.381 75.8076 125.245C75.8 125.108 75.8196 124.971 75.8654 124.841C75.955 124.582 76.144 124.368 76.391 124.248C76.638 124.127 76.9227 124.11 77.1827 124.199C77.3126 124.243 77.4324 124.313 77.5351 124.403C77.6379 124.494 77.7216 124.605 77.7815 124.728C77.8413 124.851 77.876 124.985 77.8836 125.122C77.8912 125.259 77.8716 125.396 77.8258 125.525C77.7551 125.728 77.6233 125.903 77.4487 126.027C77.2741 126.152 77.0652 126.219 76.8508 126.22C76.734 126.219 76.6183 126.198 76.5085 126.158V126.168ZM92.0674 124.841C91.9552 124.591 91.9467 124.307 92.0439 124.05C92.1411 123.794 92.3361 123.586 92.5861 123.473C92.8378 123.359 93.1245 123.35 93.3833 123.447C93.642 123.544 93.8515 123.74 93.9656 123.992C94.0798 124.243 94.0893 124.53 93.992 124.788C93.8948 125.047 93.6987 125.256 93.447 125.37C93.3097 125.43 93.1614 125.462 93.0113 125.463C92.8118 125.463 92.6166 125.405 92.4492 125.296C92.2818 125.188 92.1492 125.034 92.0674 124.852V124.841ZM72.5565 124.365C72.3193 124.228 72.1458 124.003 72.0739 123.739C72.002 123.475 72.0375 123.193 72.1727 122.955C72.2405 122.836 72.3311 122.732 72.4393 122.648C72.5476 122.565 72.6713 122.503 72.8034 122.468C72.9355 122.432 73.0733 122.423 73.209 122.441C73.3446 122.459 73.4754 122.503 73.5938 122.572C73.7177 122.636 73.8273 122.726 73.9159 122.834C74.0044 122.942 74.0702 123.067 74.1092 123.201C74.1482 123.335 74.1596 123.476 74.1427 123.615C74.1258 123.754 74.081 123.888 74.011 124.009C73.941 124.13 73.8472 124.235 73.7353 124.319C73.6234 124.403 73.4956 124.463 73.3598 124.497C73.2239 124.53 73.0827 124.535 72.9446 124.513C72.8066 124.49 72.6746 124.44 72.5565 124.365ZM95.7497 122.955C95.6701 122.844 95.6134 122.718 95.5828 122.584C95.5522 122.451 95.5484 122.313 95.5716 122.178C95.5947 122.043 95.6444 121.914 95.7177 121.798C95.791 121.683 95.8865 121.583 95.9987 121.504C96.2229 121.345 96.5013 121.281 96.7726 121.326C97.044 121.372 97.2861 121.524 97.4456 121.748C97.6052 121.972 97.6692 122.25 97.6234 122.521C97.5777 122.792 97.4261 123.034 97.2019 123.193C97.0268 123.32 96.8164 123.389 96.6003 123.39C96.434 123.391 96.2699 123.352 96.1218 123.276C95.9738 123.201 95.8462 123.09 95.7497 122.955ZM68.978 121.919C68.7955 121.758 68.6755 121.538 68.6387 121.298C68.602 121.057 68.651 120.812 68.7771 120.604C68.9033 120.396 69.0985 120.239 69.3287 120.161C69.5589 120.082 69.8094 120.087 70.0365 120.174C70.2635 120.261 70.4527 120.425 70.5708 120.638C70.689 120.85 70.7286 121.098 70.6829 121.336C70.6371 121.575 70.5088 121.79 70.3204 121.944C70.1319 122.098 69.8955 122.181 69.6522 122.178C69.4036 122.175 69.1644 122.083 68.978 121.919ZM98.9756 120.447C98.7824 120.253 98.674 119.99 98.674 119.716C98.674 119.442 98.7824 119.18 98.9756 118.985C99.072 118.888 99.1868 118.811 99.3132 118.759C99.4396 118.706 99.5751 118.679 99.7121 118.679C99.849 118.679 99.9846 118.706 100.111 118.759C100.237 118.811 100.352 118.888 100.449 118.985C100.642 119.18 100.75 119.442 100.75 119.716C100.75 119.99 100.642 120.253 100.449 120.447C100.352 120.548 100.236 120.628 100.108 120.684C99.9796 120.739 99.8414 120.768 99.7017 120.768C99.4346 120.767 99.1783 120.663 98.986 120.478L98.9756 120.447ZM65.9803 118.778C65.8953 118.671 65.8324 118.548 65.7952 118.416C65.758 118.284 65.7473 118.147 65.7637 118.011C65.7801 117.875 65.8233 117.744 65.8907 117.624C65.9581 117.505 66.0485 117.401 66.1566 117.317C66.3182 117.191 66.5135 117.116 66.7177 117.101C66.9219 117.086 67.126 117.132 67.3042 117.233C67.4825 117.333 67.6269 117.485 67.7193 117.667C67.8116 117.85 67.8478 118.056 67.8233 118.259C67.7988 118.462 67.7147 118.653 67.5815 118.809C67.4484 118.964 67.2721 119.077 67.075 119.132C66.8779 119.188 66.6688 119.184 66.474 119.121C66.2792 119.058 66.1074 118.939 65.9803 118.778ZM101.652 117.317C101.529 117.247 101.423 117.153 101.338 117.041C101.253 116.928 101.192 116.8 101.158 116.663C101.125 116.527 101.119 116.385 101.143 116.246C101.166 116.107 101.217 115.974 101.293 115.856C101.369 115.738 101.469 115.636 101.586 115.557C101.702 115.479 101.834 115.424 101.972 115.398C102.111 115.372 102.253 115.374 102.39 115.405C102.528 115.435 102.658 115.493 102.772 115.575C102.96 115.697 103.104 115.875 103.181 116.085C103.259 116.294 103.267 116.524 103.204 116.738C103.141 116.952 103.011 117.141 102.832 117.275C102.653 117.409 102.436 117.482 102.212 117.483C102.013 117.482 101.819 117.424 101.652 117.317ZM63.5946 115.13C63.5008 114.948 63.4631 114.742 63.4863 114.538C63.5095 114.335 63.5925 114.143 63.7249 113.986C63.8573 113.83 64.033 113.716 64.23 113.66C64.427 113.603 64.6364 113.606 64.8317 113.668C65.027 113.73 65.1995 113.849 65.3275 114.009C65.4554 114.169 65.533 114.363 65.5504 114.567C65.5679 114.771 65.5244 114.976 65.4255 115.156C65.3267 115.335 65.1768 115.481 64.9949 115.575C64.8472 115.651 64.6836 115.69 64.5177 115.689C64.3273 115.69 64.1404 115.638 63.9775 115.539C63.8147 115.44 63.6822 115.299 63.5946 115.13ZM103.726 113.731C103.486 113.636 103.29 113.455 103.176 113.223C103.063 112.992 103.039 112.726 103.111 112.479C103.183 112.231 103.345 112.019 103.564 111.884C103.784 111.749 104.047 111.7 104.3 111.748C104.554 111.796 104.781 111.937 104.936 112.143C105.091 112.349 105.164 112.605 105.14 112.862C105.117 113.119 104.998 113.358 104.807 113.532C104.617 113.706 104.368 113.802 104.11 113.803C103.979 113.803 103.848 113.779 103.726 113.731ZM62.0179 111.108C61.9409 110.844 61.9719 110.561 62.1042 110.32C62.2365 110.079 62.4592 109.9 62.7233 109.823C62.854 109.785 62.991 109.773 63.1264 109.788C63.2619 109.803 63.393 109.844 63.5125 109.909C63.6319 109.975 63.7373 110.063 63.8225 110.169C63.9078 110.275 63.9713 110.397 64.0095 110.528C64.0865 110.792 64.0555 111.075 63.9232 111.316C63.7909 111.558 63.5682 111.736 63.3041 111.813C63.2076 111.824 63.1102 111.824 63.0137 111.813C62.7822 111.822 62.5544 111.754 62.3664 111.619C62.1784 111.483 62.0411 111.289 61.9764 111.067L62.0179 111.108ZM105.116 109.865C104.982 109.839 104.854 109.786 104.74 109.711C104.626 109.635 104.528 109.537 104.452 109.424C104.375 109.31 104.322 109.182 104.296 109.048C104.269 108.914 104.27 108.776 104.297 108.642C104.332 108.448 104.422 108.269 104.555 108.125C104.688 107.981 104.86 107.878 105.049 107.827C105.239 107.776 105.44 107.781 105.627 107.839C105.814 107.898 105.981 108.008 106.108 108.158C106.235 108.308 106.317 108.491 106.344 108.685C106.372 108.879 106.343 109.078 106.262 109.256C106.181 109.435 106.05 109.587 105.886 109.695C105.722 109.802 105.53 109.861 105.334 109.865H105.137H105.116ZM61.1985 106.848C61.1789 106.644 61.2203 106.439 61.3175 106.258C61.4147 106.078 61.5633 105.93 61.7446 105.834C61.9258 105.738 62.1315 105.698 62.3356 105.718C62.5398 105.739 62.7332 105.82 62.8914 105.95C63.0497 106.081 63.1656 106.255 63.2245 106.452C63.2835 106.648 63.2828 106.858 63.2226 107.054C63.1624 107.25 63.0454 107.423 62.8864 107.553C62.7273 107.682 62.5334 107.762 62.3291 107.781H62.2358C61.9777 107.783 61.7285 107.688 61.5367 107.515C61.3449 107.343 61.2243 107.105 61.1985 106.848ZM104.66 104.682C104.66 104.477 104.721 104.277 104.835 104.106C104.949 103.936 105.111 103.803 105.3 103.725C105.49 103.646 105.698 103.626 105.899 103.666C106.101 103.706 106.285 103.804 106.431 103.949C106.576 104.094 106.674 104.279 106.714 104.48C106.754 104.681 106.734 104.89 106.655 105.079C106.577 105.268 106.444 105.43 106.273 105.544C106.103 105.658 105.902 105.719 105.697 105.719C105.422 105.719 105.158 105.61 104.964 105.415C104.769 105.221 104.66 104.957 104.66 104.682ZM62.132 103.646C61.8584 103.62 61.6063 103.486 61.4313 103.274C61.2562 103.062 61.1725 102.79 61.1985 102.516C61.2102 102.379 61.2491 102.245 61.313 102.123C61.377 102.001 61.4646 101.893 61.5709 101.805C61.6771 101.717 61.7998 101.652 61.9318 101.612C62.0637 101.572 62.2024 101.559 62.3395 101.573C62.6146 101.587 62.873 101.709 63.0578 101.913C63.2426 102.117 63.3386 102.386 63.3249 102.661C63.3111 102.936 63.1887 103.194 62.9844 103.379C62.7802 103.564 62.5109 103.66 62.2358 103.646H62.132ZM104.286 100.754C104.235 100.485 104.292 100.206 104.445 99.9786C104.599 99.7513 104.836 99.5941 105.106 99.5415C105.381 99.4892 105.666 99.5483 105.897 99.7058C106.128 99.8632 106.288 100.106 106.34 100.381C106.392 100.656 106.333 100.94 106.176 101.172C106.018 101.403 105.775 101.562 105.5 101.614H105.303C105.059 101.619 104.821 101.537 104.631 101.383C104.441 101.23 104.312 101.014 104.266 100.775L104.286 100.754ZM62.7233 99.5C62.5684 99.491 62.4175 99.4474 62.2817 99.3724C62.146 99.2973 62.0288 99.1929 61.9388 99.0666C61.8487 98.9403 61.7882 98.7955 61.7617 98.6427C61.7351 98.49 61.7432 98.3333 61.7853 98.1841C61.8274 98.0349 61.9024 97.897 62.0049 97.7806C62.1074 97.6642 62.2347 97.5723 62.3775 97.5116C62.5202 97.4509 62.6748 97.423 62.8298 97.4299C62.9848 97.4368 63.1362 97.4783 63.273 97.5515C63.4092 97.5712 63.5402 97.6175 63.6585 97.6879C63.7768 97.7582 63.8801 97.8511 63.9624 97.9613C64.0448 98.0715 64.1046 98.1968 64.1385 98.3301C64.1724 98.4634 64.1796 98.6021 64.1599 98.7382C64.1401 98.8743 64.0937 99.0052 64.0234 99.1234C63.953 99.2416 63.86 99.3448 63.7497 99.4271C63.6394 99.5094 63.514 99.5691 63.3806 99.603C63.2472 99.6368 63.1084 99.6441 62.9722 99.6244C62.8759 99.638 62.7781 99.638 62.6818 99.6244L62.7233 99.5ZM103.135 97.054C103.033 96.7983 103.037 96.5127 103.146 96.2601C103.255 96.0074 103.46 95.8083 103.716 95.7066C103.972 95.6048 104.258 95.6089 104.51 95.7177C104.763 95.8266 104.963 96.0313 105.064 96.287C105.115 96.4135 105.14 96.5488 105.138 96.6851C105.136 96.8213 105.107 96.9559 105.054 97.081C105 97.2062 104.921 97.3195 104.824 97.4144C104.726 97.5094 104.61 97.5841 104.483 97.6344C104.361 97.6826 104.231 97.7072 104.1 97.7069C103.892 97.7071 103.689 97.645 103.517 97.5286C103.345 97.4121 103.212 97.2468 103.135 97.054ZM64.0302 95.7066C63.8483 95.6122 63.6984 95.466 63.5996 95.2866C63.5007 95.1072 63.4572 94.9025 63.4747 94.6984C63.4922 94.4943 63.5697 94.3 63.6976 94.1399C63.8256 93.9799 63.9981 93.8613 64.1934 93.7991C64.3887 93.737 64.5981 93.734 64.7951 93.7907C64.9921 93.8473 65.1678 93.961 65.3002 94.1174C65.4326 94.2738 65.5156 94.4659 65.5388 94.6694C65.562 94.8729 65.5243 95.0787 65.4305 95.2609C65.3429 95.4299 65.2104 95.5715 65.0476 95.6702C64.8847 95.7689 64.6978 95.821 64.5074 95.8206C64.3415 95.8212 64.1779 95.7821 64.0302 95.7066ZM101.372 93.5611C101.24 93.3306 101.202 93.0584 101.265 92.8006C101.329 92.5429 101.488 92.3192 101.712 92.1757C101.935 92.0322 102.205 91.9798 102.466 92.0293C102.727 92.0788 102.959 92.2264 103.114 92.4417C103.262 92.6727 103.313 92.953 103.255 93.2211C103.196 93.4893 103.034 93.7233 102.803 93.872C102.634 93.9754 102.441 94.0326 102.243 94.0379C102.069 94.0376 101.899 93.9938 101.746 93.9105C101.594 93.8272 101.465 93.707 101.372 93.5611ZM66.1048 92.1204C65.8778 91.9459 65.7295 91.6884 65.6926 91.4046C65.6556 91.1208 65.733 90.834 65.9077 90.6072C66.0824 90.3804 66.3401 90.2322 66.6241 90.1953C66.9081 90.1584 67.1951 90.2357 67.4221 90.4103C67.5841 90.5441 67.7016 90.724 67.759 90.9261C67.8164 91.1281 67.811 91.3429 67.7435 91.5418C67.676 91.7407 67.5496 91.9145 67.3811 92.04C67.2125 92.1656 67.0098 92.237 66.7997 92.2448C66.5657 92.2434 66.3391 92.1631 66.1566 92.0168L66.1048 92.1204ZM98.9341 90.3584C98.8369 90.2621 98.7597 90.1474 98.7071 90.0211C98.6544 89.8948 98.6273 89.7594 98.6273 89.6225C98.6273 89.4857 98.6544 89.3503 98.7071 89.224C98.7597 89.0976 98.8369 88.983 98.9341 88.8867C99.0329 88.7927 99.1492 88.7192 99.2764 88.6702C99.4036 88.6212 99.5392 88.5977 99.6755 88.6011C99.8118 88.6044 99.9461 88.6346 100.071 88.6898C100.195 88.745 100.308 88.8243 100.402 88.9229C100.496 89.0216 100.569 89.1378 100.618 89.2649C100.668 89.392 100.691 89.5276 100.688 89.6637C100.684 89.7999 100.654 89.9341 100.599 90.0586C100.544 90.1832 100.464 90.2956 100.366 90.3895C100.173 90.5747 99.9169 90.6787 99.6498 90.6797C99.5084 90.6806 99.3682 90.6526 99.238 90.5973C99.1078 90.542 98.9902 90.4608 98.8926 90.3584H98.9341ZM68.812 88.8867C68.6775 88.7319 68.5919 88.5406 68.5661 88.3372C68.5404 88.1338 68.5756 87.9273 68.6673 87.7439C68.7589 87.5605 68.903 87.4084 69.0813 87.3068C69.2595 87.2052 69.4639 87.1587 69.6686 87.1732C69.8733 87.1877 70.069 87.2626 70.2311 87.3883C70.3932 87.514 70.5144 87.6849 70.5793 87.8794C70.6441 88.0739 70.6498 88.2833 70.5956 88.4811C70.5413 88.6788 70.4296 88.856 70.2745 88.9903C70.0881 89.1546 69.8489 89.2466 69.6003 89.2494C69.4505 89.2494 69.3025 89.217 69.1664 89.1544C69.0303 89.0918 68.9094 89.0004 68.812 88.8867ZM95.9572 87.788C95.7542 87.6465 95.6087 87.4371 95.5467 87.1977C95.4847 86.9583 95.5105 86.7046 95.6192 86.4825C95.728 86.2604 95.9127 86.0845 96.14 85.9865C96.3672 85.8885 96.622 85.875 96.8583 85.9483C97.0947 86.0216 97.297 86.1769 97.4288 86.3862C97.5606 86.5955 97.6132 86.845 97.577 87.0896C97.5409 87.3342 97.4184 87.5579 97.2316 87.7202C97.0449 87.8825 96.8062 87.9727 96.5588 87.9746C96.3426 87.9732 96.1323 87.9043 95.9572 87.7777V87.788ZM72.1001 86.337C72.0251 86.219 71.9747 86.0871 71.952 85.9492C71.9293 85.8112 71.9347 85.6701 71.968 85.5344C72.0013 85.3986 72.0617 85.2709 72.1457 85.1591C72.2296 85.0473 72.3353 84.9536 72.4564 84.8836C72.5775 84.8137 72.7115 84.7689 72.8504 84.752C72.9893 84.7352 73.1301 84.7466 73.2645 84.7855C73.3989 84.8245 73.5239 84.8902 73.6322 84.9787C73.7405 85.0672 73.8297 85.1767 73.8946 85.3005C74.0307 85.5373 74.0678 85.8181 73.9979 86.082C73.928 86.3459 73.7567 86.5717 73.5212 86.7101C73.3656 86.8067 73.1857 86.857 73.0025 86.8552C72.8198 86.8559 72.64 86.8084 72.4816 86.7174C72.3231 86.6264 72.1915 86.4951 72.1001 86.337ZM92.5135 85.8084C92.3263 85.7236 92.1685 85.5851 92.0602 85.4106C91.9518 85.236 91.8979 85.0333 91.9051 84.828C91.9123 84.6228 91.9803 84.4243 92.1006 84.2578C92.2209 84.0912 92.388 83.9642 92.5807 83.8927C92.7734 83.8212 92.983 83.8086 93.1829 83.8563C93.3828 83.9041 93.564 84.0101 93.7035 84.161C93.843 84.3118 93.9345 84.5006 93.9664 84.7035C93.9983 84.9064 93.9691 85.1142 93.8826 85.3005C93.7993 85.4804 93.6661 85.6327 93.4988 85.7392C93.3315 85.8458 93.1371 85.9021 92.9387 85.9017C92.792 85.901 92.647 85.8692 92.5135 85.8084ZM75.8135 84.4403C75.7241 84.1777 75.7427 83.8905 75.8653 83.6417C75.9878 83.3929 76.2043 83.2029 76.467 83.1136C76.7297 83.0243 77.0172 83.0429 77.2662 83.1653C77.5152 83.2878 77.7053 83.504 77.7947 83.7666C77.8844 84.025 77.8682 84.3084 77.7497 84.555C77.6312 84.8015 77.4199 84.9913 77.162 85.0829C77.0522 85.1227 76.9365 85.1437 76.8197 85.145C76.5935 85.1568 76.3696 85.0943 76.1823 84.9671C75.995 84.8398 75.8546 84.6548 75.7824 84.4403H75.8135ZM88.7897 84.5335C88.5267 84.5031 88.2853 84.3733 88.1149 84.1708C87.9446 83.9683 87.8582 83.7084 87.8734 83.4443C87.8887 83.1801 88.0044 82.9319 88.1969 82.7503C88.3895 82.5687 88.6442 82.4675 88.909 82.4675C89.1737 82.4675 89.4285 82.5687 89.621 82.7503C89.8135 82.9319 89.9293 83.1801 89.9445 83.4443C89.9598 83.7084 89.8734 83.9683 89.703 84.1708C89.5327 84.3733 89.2913 84.5031 89.0283 84.5335C88.9491 84.5443 88.8688 84.5443 88.7897 84.5335ZM79.7655 83.2794C79.7367 83.0764 79.7689 82.8695 79.8578 82.6848C79.9468 82.5 80.0886 82.3458 80.2652 82.2416C80.4419 82.1374 80.6456 82.0879 80.8504 82.0993C81.0553 82.1107 81.2521 82.1826 81.4161 82.3059C81.58 82.4291 81.7037 82.5981 81.7715 82.7916C81.8393 82.9851 81.8482 83.1944 81.7969 83.3929C81.7457 83.5914 81.6368 83.7703 81.4838 83.9069C81.3308 84.0435 81.1408 84.1317 80.9376 84.1604H80.7924C80.5407 84.1629 80.2967 84.0738 80.1058 83.9098C79.915 83.7458 79.7904 83.5181 79.7551 83.2691L79.7655 83.2794ZM84.8688 83.9635C84.6637 83.9635 84.4631 83.9027 84.2926 83.7888C84.122 83.6749 83.989 83.513 83.9105 83.3237C83.832 83.1343 83.8115 82.9259 83.8515 82.7248C83.8915 82.5238 83.9903 82.3391 84.1354 82.1941C84.2804 82.0492 84.4653 81.9505 84.6665 81.9105C84.8677 81.8705 85.0762 81.891 85.2658 81.9695C85.4553 82.0479 85.6173 82.1808 85.7313 82.3512C85.8453 82.5216 85.9061 82.722 85.9061 82.927C85.9061 83.2019 85.7968 83.4655 85.6023 83.6599C85.4078 83.8543 85.1439 83.9635 84.8688 83.9635Z" fill="#48515A"/>
<path d="M89.6091 143.031H78.1992V136.885C78.2009 135.873 77.8815 134.886 77.2869 134.066C76.6923 133.247 75.8531 132.637 74.8897 132.324C73.9264 132.01 72.8885 132.01 71.9252 132.323C70.9618 132.636 70.1224 133.246 69.5277 134.066L65.9077 139.03L57.5266 132.936L58.7506 131.257L65.4513 136.128L67.8473 132.843C68.6966 131.659 69.9009 130.776 71.2857 130.322C72.6705 129.867 74.1641 129.865 75.5504 130.315C76.9366 130.766 78.1435 131.645 78.9964 132.826C79.8493 134.007 80.3039 135.429 80.2945 136.885V140.958H87.5553V136.885C87.5504 135.43 88.0082 134.012 88.8627 132.834C89.7173 131.656 90.9243 130.781 92.3094 130.333C93.6946 129.886 95.1863 129.889 96.5691 130.344C97.9519 130.799 99.1542 131.681 100.002 132.864L102.399 136.16L108.269 131.91L105.801 128.614C104.948 127.44 104.489 126.027 104.49 124.576C104.492 123.126 104.953 121.713 105.808 120.541C106.663 119.369 107.868 118.498 109.249 118.052C110.631 117.607 112.118 117.611 113.497 118.063L117.366 119.317L119.565 112.58L115.696 111.316C114.318 110.867 113.117 109.995 112.265 108.823C111.413 107.651 110.955 106.24 110.955 104.791C110.955 103.343 111.413 101.931 112.265 100.759C113.117 99.5875 114.318 98.7148 115.696 98.2666L119.576 97.0125L117.335 90.1097L113.466 91.3638C112.093 91.7976 110.619 91.7893 109.251 91.34C107.884 90.8908 106.692 90.0234 105.844 88.8604C104.997 87.6974 104.537 86.2977 104.529 84.8591C104.521 83.4205 104.966 82.0159 105.801 80.8437L108.207 77.5478L101.496 72.6764L102.72 70.9974L111.101 77.0917L107.481 82.0564C106.883 82.8739 106.559 83.8599 106.557 84.8727C106.555 85.8854 106.874 86.8728 107.469 87.6929C108.064 88.5129 108.903 89.1235 109.867 89.4367C110.831 89.7499 111.87 89.7496 112.833 89.436L118.684 87.5392L122.2 98.3806L116.35 100.277C115.386 100.589 114.547 101.198 113.951 102.016C113.356 102.835 113.035 103.821 113.035 104.833C113.035 105.844 113.356 106.83 113.951 107.649C114.547 108.467 115.386 109.076 116.35 109.388L122.19 111.295L118.704 121.981L112.865 120.074C111.903 119.759 110.865 119.757 109.902 120.067C108.939 120.378 108.098 120.985 107.502 121.802C106.905 122.619 106.583 123.604 106.581 124.616C106.579 125.627 106.898 126.613 107.492 127.433L111.101 132.408L101.87 139.093L98.2599 134.118C97.6657 133.299 96.8273 132.689 95.8649 132.376C94.9025 132.063 93.8656 132.062 92.9028 132.374C91.94 132.686 91.1007 133.294 90.5053 134.112C89.9099 134.93 89.5889 135.915 89.5884 136.926L89.6091 143.031Z" fill="#48515A"/>
<path d="M46.9361 98.4635C46.7967 98.4671 46.6583 98.4387 46.5316 98.3806C46.4058 98.3342 46.2923 98.2598 46.1997 98.1629C46.1036 98.0661 46.0275 97.9512 45.9759 97.825C45.9243 97.6987 45.8981 97.5635 45.8989 97.4271C45.8981 97.2906 45.9243 97.1554 45.9759 97.0292C46.0275 96.9029 46.1036 96.788 46.1997 96.6912C46.394 96.4981 46.6569 96.3898 46.931 96.3898C47.205 96.3898 47.4679 96.4981 47.6622 96.6912C47.7602 96.7872 47.8382 96.9016 47.8916 97.0279C47.945 97.1543 47.9728 97.2899 47.9734 97.4271C47.9728 97.5642 47.945 97.6998 47.8916 97.8262C47.8382 97.9525 47.7602 98.0669 47.6622 98.1629C47.469 98.3544 47.2083 98.4624 46.9361 98.4635Z" fill="#48515A"/>
<path d="M49.8923 110.725C49.8285 110.53 49.824 110.321 49.8794 110.123C49.9347 109.926 50.0474 109.749 50.2033 109.616C50.3591 109.482 50.551 109.398 50.7548 109.374C50.9585 109.349 51.165 109.386 51.3479 109.479C51.5309 109.571 51.6822 109.716 51.7826 109.895C51.8831 110.074 51.9282 110.279 51.9123 110.483C51.8964 110.687 51.8202 110.883 51.6932 111.044C51.5663 111.205 51.3944 111.325 51.1993 111.388C51.0927 111.404 50.9843 111.404 50.8777 111.388C50.659 111.388 50.4459 111.319 50.2689 111.19C50.0919 111.062 49.9601 110.881 49.8923 110.673V110.725ZM53.7509 109.118C53.5419 108.938 53.4129 108.683 53.3925 108.408C53.3721 108.133 53.4618 107.861 53.642 107.652C53.8222 107.443 54.0781 107.314 54.3533 107.294C54.6286 107.273 54.9007 107.363 55.1098 107.543C55.3188 107.723 55.4478 107.979 55.4682 108.254C55.4886 108.529 55.3989 108.801 55.2187 109.01C55.0385 109.218 54.7826 109.347 54.5074 109.368C54.2321 109.388 53.96 109.298 53.7509 109.118ZM54.7882 104.516C54.7882 104.311 54.849 104.111 54.963 103.941C55.077 103.77 55.239 103.637 55.4285 103.559C55.6181 103.48 55.8266 103.46 56.0278 103.5C56.229 103.54 56.4139 103.639 56.5589 103.784C56.704 103.929 56.8028 104.113 56.8428 104.314C56.8828 104.515 56.8623 104.724 56.7838 104.913C56.7053 105.102 56.5723 105.264 56.4017 105.378C56.2312 105.492 56.0306 105.553 55.8255 105.553C55.5504 105.553 55.2865 105.444 55.092 105.249C54.8975 105.055 54.7882 104.791 54.7882 104.516ZM53.6472 101.407C53.4935 101.227 53.4058 101.001 53.3987 100.765C53.3916 100.528 53.4654 100.297 53.6081 100.108C53.7507 99.9198 53.9536 99.7857 54.1829 99.7281C54.4123 99.6706 54.6545 99.6931 54.8694 99.792C55.0842 99.8908 55.2587 100.06 55.3641 100.272C55.4695 100.483 55.4993 100.724 55.4487 100.955C55.398 101.186 55.27 101.393 55.0857 101.541C54.9014 101.689 54.672 101.77 54.4355 101.77C54.2857 101.77 54.1377 101.737 54.0016 101.675C53.8655 101.612 53.7446 101.521 53.6472 101.407ZM50.5354 99.6969C50.2875 99.6155 50.0794 99.4437 49.9527 99.2158C49.8259 98.9879 49.7898 98.7206 49.8515 98.4672C49.9132 98.2138 50.0682 97.993 50.2856 97.8488C50.503 97.7046 50.7669 97.6475 51.0245 97.6891C51.2821 97.7306 51.5146 97.8676 51.6756 98.0728C51.8366 98.278 51.9143 98.5364 51.8932 98.7963C51.872 99.0562 51.7536 99.2985 51.5616 99.4751C51.3695 99.6516 51.1179 99.7493 50.857 99.7488C50.7479 99.7467 50.6396 99.7292 50.5354 99.6969Z" fill="#48515A"/>
<path d="M46.9154 112.725C46.7781 112.725 46.6424 112.697 46.516 112.644C46.3895 112.59 46.275 112.512 46.1789 112.414C45.9857 112.22 45.8773 111.957 45.8773 111.684C45.8773 111.41 45.9857 111.147 46.1789 110.953C46.2753 110.856 46.3901 110.779 46.5165 110.726C46.6429 110.673 46.7784 110.646 46.9154 110.646C47.0523 110.646 47.1879 110.673 47.3143 110.726C47.4407 110.779 47.5554 110.856 47.6518 110.953C47.748 111.05 47.824 111.165 47.8756 111.291C47.9273 111.417 47.9534 111.552 47.9526 111.689C47.9515 111.961 47.8435 112.221 47.6518 112.414C47.5558 112.512 47.4412 112.59 47.3148 112.644C47.1884 112.697 47.0526 112.725 46.9154 112.725Z" fill="#48515A"/>
<path d="M47.3718 116.436C47.3099 116.24 47.3073 116.031 47.3643 115.835C47.4213 115.638 47.5353 115.463 47.692 115.331C47.8486 115.199 48.0409 115.116 48.2446 115.093C48.4482 115.07 48.6541 115.108 48.8362 115.202C49.0183 115.296 49.1685 115.441 49.2679 115.62C49.3672 115.8 49.4113 116.004 49.3944 116.208C49.3776 116.412 49.3006 116.607 49.1732 116.767C49.0459 116.928 48.8738 117.047 48.6787 117.109C48.5743 117.141 48.4662 117.158 48.3572 117.161C48.1371 117.16 47.9231 117.09 47.746 116.959C47.5688 116.829 47.4378 116.645 47.3718 116.436Z" fill="#48515A"/>
<path d="M49.7886 121.587C49.5165 121.586 49.2557 121.478 49.0625 121.286C48.9624 121.194 48.8844 121.081 48.8343 120.955C48.7812 120.83 48.753 120.696 48.7513 120.561C48.7516 120.422 48.7798 120.284 48.8343 120.157C48.8844 120.03 48.9624 119.917 49.0625 119.825C49.1828 119.705 49.331 119.616 49.4938 119.566C49.6567 119.516 49.8293 119.507 49.9964 119.54C50.1635 119.573 50.32 119.646 50.452 119.754C50.584 119.861 50.6874 120 50.7533 120.157C50.8042 120.285 50.8289 120.423 50.8259 120.561C50.8275 120.696 50.8029 120.829 50.7533 120.955C50.6996 121.079 50.6221 121.192 50.5251 121.286C50.4281 121.382 50.3132 121.458 50.1868 121.51C50.0604 121.562 49.9251 121.588 49.7886 121.587Z" fill="#48515A"/>
<path d="M59.9953 129.557C59.7953 129.413 59.6535 129.201 59.5954 128.962C59.5373 128.722 59.5667 128.469 59.6784 128.249C59.79 128.029 59.9765 127.856 60.2043 127.761C60.4322 127.666 60.6865 127.656 60.9215 127.731C61.1565 127.807 61.3568 127.964 61.4864 128.174C61.616 128.384 61.6664 128.633 61.6286 128.877C61.5907 129.121 61.467 129.343 61.2798 129.504C61.0926 129.664 60.8541 129.753 60.6073 129.754C60.3875 129.755 60.1732 129.686 59.9953 129.557ZM62.2358 126.033C61.9645 126.022 61.7083 125.906 61.5221 125.708C61.336 125.511 61.2348 125.248 61.2402 124.977C61.2456 124.706 61.3573 124.447 61.5512 124.258C61.7451 124.068 62.0057 123.961 62.2773 123.961C62.5488 123.961 62.8094 124.068 63.0033 124.258C63.1972 124.447 63.3089 124.706 63.3143 124.977C63.3197 125.248 63.2185 125.511 63.0324 125.708C62.8462 125.906 62.59 126.022 62.3187 126.033H62.2358ZM60.3583 121.701C60.1987 121.479 60.1331 121.203 60.1759 120.934C60.2186 120.664 60.3662 120.422 60.5865 120.26C60.6967 120.18 60.8218 120.122 60.9546 120.089C61.0873 120.057 61.2251 120.052 61.36 120.073C61.4949 120.094 61.6243 120.142 61.7408 120.213C61.8573 120.284 61.9585 120.378 62.0387 120.488C62.1193 120.598 62.1774 120.723 62.2096 120.856C62.2418 120.989 62.2474 121.126 62.2262 121.261C62.205 121.396 62.1574 121.525 62.086 121.642C62.0147 121.758 61.9211 121.859 61.8105 121.939C61.6299 122.063 61.4173 122.131 61.1985 122.136C61.0339 122.135 60.8719 122.096 60.7258 122.02C60.5797 121.944 60.4538 121.835 60.3583 121.701ZM52.7863 119.628C52.7012 119.367 52.7233 119.083 52.8478 118.838C52.9723 118.593 53.1889 118.407 53.4501 118.322C53.7082 118.248 53.9848 118.278 54.2218 118.404C54.4587 118.53 54.6376 118.742 54.7209 118.997C54.8041 119.252 54.7853 119.529 54.6682 119.771C54.5512 120.012 54.3451 120.199 54.0933 120.291C53.9869 120.311 53.878 120.311 53.7717 120.291C53.5442 120.302 53.3194 120.238 53.1319 120.109C52.9445 119.98 52.8048 119.793 52.7344 119.576L52.7863 119.628ZM57.537 119.815C57.2619 119.751 57.0232 119.582 56.8734 119.342C56.7236 119.103 56.675 118.815 56.7383 118.54C56.8015 118.265 56.9715 118.026 57.2108 117.877C57.45 117.727 57.739 117.678 58.0141 117.742C58.2892 117.773 58.5405 117.913 58.7126 118.13C58.8848 118.346 58.9637 118.622 58.9321 118.897C58.9004 119.172 58.7608 119.423 58.5439 119.595C58.327 119.767 58.0506 119.846 57.7755 119.815H57.537Z" fill="#48515A"/>
<path d="M58.1593 133.123C58.0203 133.122 57.8827 133.094 57.7548 133.04C57.5055 132.928 57.3061 132.729 57.1946 132.48C57.1415 132.355 57.1133 132.222 57.1117 132.086C57.1122 131.949 57.14 131.813 57.1934 131.687C57.2469 131.561 57.3248 131.446 57.4228 131.35C57.4673 131.3 57.5199 131.258 57.5784 131.226C57.6336 131.186 57.6927 131.151 57.7548 131.122L57.9518 131.071C58.0849 131.04 58.2233 131.04 58.3564 131.071L58.5535 131.122C58.6155 131.151 58.6746 131.186 58.7298 131.226C58.7902 131.255 58.8433 131.298 58.8854 131.35C58.9834 131.446 59.0614 131.561 59.1148 131.687C59.1682 131.813 59.196 131.949 59.1966 132.086C59.1949 132.222 59.1667 132.355 59.1136 132.48C59.0635 132.606 58.9855 132.72 58.8854 132.812C58.6939 133.007 58.4329 133.119 58.1593 133.123Z" fill="#48515A"/>
<path d="M61.3126 135.662C61.1933 135.586 61.091 135.486 61.0119 135.368C60.9329 135.251 60.8787 135.118 60.8528 134.979C60.8268 134.84 60.8297 134.697 60.8612 134.559C60.8927 134.421 60.9521 134.291 61.0359 134.177C61.1196 134.063 61.2259 133.967 61.3481 133.895C61.4703 133.824 61.6059 133.778 61.7465 133.761C61.8871 133.744 62.0297 133.755 62.1656 133.795C62.3015 133.835 62.4277 133.903 62.5366 133.993C62.7569 134.155 62.9045 134.397 62.9472 134.667C62.9899 134.937 62.9244 135.212 62.7648 135.434C62.6682 135.566 62.5417 135.673 62.3957 135.747C62.2497 135.821 62.0882 135.859 61.9246 135.859C61.7049 135.86 61.4906 135.791 61.3126 135.662Z" fill="#48515A"/>
<path d="M65.7002 138.606C65.5637 138.606 65.4284 138.58 65.302 138.529C65.1756 138.477 65.0607 138.401 64.9638 138.305C64.8656 138.207 64.788 138.091 64.7356 137.963C64.6391 137.709 64.6391 137.429 64.7356 137.175C64.7919 137.049 64.8691 136.934 64.9638 136.833C65.0593 136.74 65.172 136.666 65.2957 136.616C65.5145 136.542 65.7515 136.544 65.9694 136.62C66.1872 136.696 66.3734 136.843 66.4984 137.037C66.6234 137.231 66.6801 137.461 66.6595 137.69C66.6389 137.92 66.5423 138.136 66.3848 138.305C66.1916 138.496 65.9308 138.604 65.6587 138.606" fill="#48515A"/>
<path d="M79.2469 138.885C79.0417 138.885 78.8412 138.825 78.6706 138.711C78.5 138.597 78.3671 138.435 78.2886 138.246C78.21 138.056 78.1895 137.848 78.2295 137.647C78.2696 137.446 78.3683 137.261 78.5134 137.116C78.6585 136.971 78.8433 136.872 79.0445 136.832C79.2457 136.792 79.4543 136.813 79.6438 136.891C79.8333 136.97 79.9953 137.103 80.1093 137.273C80.2233 137.444 80.2841 137.644 80.2841 137.849C80.2841 138.124 80.1748 138.387 79.9803 138.582C79.7858 138.776 79.522 138.885 79.2469 138.885ZM67.5258 135.092C67.4152 135.012 67.3216 134.911 67.2502 134.794C67.1789 134.678 67.1313 134.549 67.11 134.414C67.0888 134.279 67.0945 134.141 67.1267 134.009C67.1589 133.876 67.2169 133.751 67.2976 133.641C67.4631 133.431 67.7036 133.292 67.9688 133.255C68.2339 133.218 68.5032 133.285 68.7202 133.441C68.9373 133.598 69.0853 133.833 69.1334 134.096C69.1814 134.359 69.1257 134.63 68.978 134.854C68.8825 134.988 68.7565 135.097 68.6105 135.173C68.4644 135.248 68.3023 135.288 68.1378 135.289C67.919 135.284 67.7064 135.215 67.5258 135.092ZM77.5354 134.398C77.4275 134.223 77.3741 134.02 77.3817 133.815C77.3894 133.61 77.4579 133.411 77.5785 133.245C77.6991 133.079 77.8664 132.952 78.0591 132.881C78.2519 132.81 78.4614 132.798 78.6612 132.846C78.8609 132.894 79.0419 133 79.1811 133.151C79.3203 133.302 79.4115 133.491 79.4432 133.694C79.4748 133.897 79.4454 134.105 79.3588 134.291C79.2721 134.477 79.1321 134.633 78.9564 134.74C78.7944 134.84 78.6077 134.894 78.4171 134.895C78.2398 134.894 78.0657 134.848 77.9113 134.761C77.757 134.674 77.6276 134.549 77.5354 134.398ZM70.2019 131.9C70.1235 131.71 70.103 131.502 70.1429 131.301C70.1829 131.1 70.2815 130.916 70.4263 130.771C70.5712 130.626 70.7557 130.527 70.9567 130.487C71.1577 130.447 71.3661 130.467 71.5556 130.545C71.7451 130.623 71.9073 130.756 72.0215 130.926C72.1358 131.096 72.197 131.296 72.1976 131.501C72.1981 131.705 72.1379 131.906 72.0246 132.076C71.9112 132.247 71.7498 132.38 71.5607 132.459C71.4321 132.512 71.295 132.54 71.1562 132.542C70.9514 132.541 70.7515 132.48 70.5817 132.365C70.4119 132.251 70.2797 132.089 70.2019 131.9ZM74.9007 132.345C74.7056 132.282 74.5337 132.162 74.4068 132.001C74.2798 131.84 74.2036 131.645 74.1877 131.44C74.1718 131.236 74.2169 131.031 74.3174 130.852C74.4178 130.674 74.5691 130.529 74.7521 130.436C74.935 130.343 75.1415 130.306 75.3452 130.331C75.549 130.355 75.7409 130.439 75.8967 130.573C76.0526 130.706 76.1653 130.883 76.2206 131.08C76.276 131.278 76.2715 131.487 76.2077 131.682C76.1374 131.899 75.9977 132.086 75.8102 132.215C75.6227 132.344 75.3979 132.408 75.1704 132.397C75.0673 132.413 74.9624 132.413 74.8592 132.397" fill="#48515A"/>
<path d="M79.2468 143.031C79.1085 143.034 78.971 143.01 78.8423 142.959C78.7201 142.901 78.608 142.824 78.5104 142.731C78.4157 142.63 78.3386 142.515 78.2822 142.389C78.1857 142.135 78.1857 141.855 78.2822 141.601C78.3399 141.476 78.4169 141.36 78.5104 141.259C78.7047 141.066 78.9676 140.958 79.2417 140.958C79.5157 140.958 79.7786 141.066 79.9729 141.259C80.0732 141.355 80.1512 141.472 80.2011 141.601C80.2793 141.791 80.2993 141.999 80.2587 142.2C80.218 142.402 80.1186 142.586 79.9729 142.731C79.8753 142.824 79.7632 142.901 79.641 142.959C79.5156 143.008 79.3817 143.033 79.2468 143.031Z" fill="#48515A"/>
<path d="M82.8669 141.995C82.8669 141.79 82.9278 141.589 83.0417 141.419C83.1557 141.249 83.3177 141.116 83.5072 141.037C83.6968 140.959 83.9053 140.938 84.1065 140.978C84.3077 141.018 84.4926 141.117 84.6376 141.262C84.7827 141.407 84.8815 141.592 84.9215 141.793C84.9615 141.994 84.941 142.202 84.8625 142.391C84.784 142.581 84.651 142.743 84.4805 142.857C84.3099 142.97 84.1093 143.031 83.9042 143.031C83.6291 143.031 83.3652 142.922 83.1707 142.728C82.9762 142.533 82.8669 142.27 82.8669 141.995Z" fill="#48515A"/>
<path d="M88.5718 143.031C88.2967 143.031 88.0329 142.922 87.8384 142.728C87.6439 142.533 87.5346 142.27 87.5346 141.995C87.5295 141.926 87.5295 141.857 87.5346 141.788C87.5459 141.723 87.5669 141.66 87.5968 141.601C87.6195 141.535 87.6509 141.472 87.6902 141.414L87.8146 141.259C87.9199 141.17 88.0347 141.094 88.1569 141.031H88.354C88.5469 140.974 88.7524 140.974 88.9453 141.031C89.072 141.086 89.1879 141.163 89.2876 141.259C89.3322 141.308 89.3737 141.36 89.412 141.414C89.4513 141.472 89.4827 141.535 89.5054 141.601C89.5353 141.66 89.5563 141.723 89.5676 141.788C89.5727 141.857 89.5727 141.926 89.5676 141.995C89.5693 142.13 89.5446 142.263 89.495 142.389C89.4414 142.513 89.3638 142.626 89.2668 142.72C89.1707 142.818 89.0562 142.896 88.9298 142.95C88.8033 143.003 88.6676 143.031 88.5304 143.031" fill="#48515A"/>
<path d="M88.5718 138.885C88.3667 138.885 88.1661 138.825 87.9956 138.711C87.825 138.597 87.692 138.435 87.6135 138.246C87.535 138.056 87.5145 137.848 87.5545 137.647C87.5945 137.446 87.6933 137.261 87.8384 137.116C87.9834 136.971 88.1683 136.872 88.3695 136.832C88.5707 136.792 88.7792 136.813 88.9688 136.891C89.1583 136.97 89.3203 137.103 89.4343 137.273C89.5483 137.444 89.6091 137.644 89.6091 137.849C89.6091 138.124 89.4998 138.387 89.3053 138.582C89.1108 138.776 88.8469 138.885 88.5718 138.885ZM98.8407 134.843C98.7204 134.677 98.6519 134.48 98.644 134.275C98.636 134.07 98.6889 133.868 98.7959 133.693C98.903 133.519 99.0595 133.38 99.2455 133.294C99.4316 133.208 99.639 133.179 99.8415 133.211C100.044 133.243 100.232 133.334 100.383 133.472C100.534 133.611 100.64 133.791 100.688 133.991C100.737 134.19 100.725 134.398 100.655 134.591C100.584 134.783 100.458 134.95 100.293 135.071C100.115 135.2 99.9006 135.269 99.6809 135.268C99.5173 135.269 99.3558 135.23 99.2098 135.156C99.0638 135.083 98.9373 134.975 98.8407 134.843ZM88.8623 134.74C88.7455 134.668 88.6439 134.575 88.5634 134.464C88.4829 134.354 88.4251 134.229 88.3933 134.096C88.3615 133.963 88.3563 133.825 88.378 133.69C88.3998 133.555 88.448 133.426 88.52 133.309C88.6637 133.076 88.8938 132.91 89.16 132.846C89.4262 132.782 89.7069 132.825 89.941 132.967C90.1323 133.086 90.2798 133.263 90.3613 133.472C90.4429 133.682 90.4541 133.912 90.3932 134.129C90.3323 134.345 90.2027 134.536 90.0238 134.672C89.845 134.809 89.6266 134.883 89.4017 134.885C89.212 134.887 89.0254 134.836 88.8623 134.74ZM96.258 132.439C96.0244 132.32 95.8443 132.118 95.7539 131.872C95.6635 131.627 95.6695 131.356 95.7706 131.114C95.8717 130.873 96.0605 130.679 96.2991 130.571C96.5376 130.462 96.8083 130.449 97.0566 130.532C97.2757 130.625 97.456 130.79 97.5672 131.001C97.6785 131.211 97.714 131.453 97.6678 131.686C97.6216 131.92 97.4965 132.13 97.3134 132.282C97.1304 132.434 96.9005 132.519 96.6625 132.522C96.5232 132.524 96.385 132.496 96.258 132.439ZM91.611 131.63C91.5472 131.435 91.5427 131.226 91.5981 131.028C91.6534 130.831 91.7661 130.654 91.922 130.521C92.0778 130.388 92.2697 130.303 92.4735 130.279C92.6772 130.255 92.8837 130.291 93.0666 130.384C93.2496 130.477 93.4009 130.622 93.5013 130.801C93.6018 130.979 93.6469 131.184 93.631 131.388C93.6151 131.593 93.5389 131.788 93.4119 131.949C93.285 132.11 93.1131 132.23 92.918 132.294C92.8114 132.309 92.703 132.309 92.5964 132.294C92.3689 132.305 92.1441 132.241 91.9566 132.111C91.7692 131.982 91.6295 131.795 91.5592 131.578" fill="#48515A"/>
<path d="M102.129 138.647C101.992 138.646 101.856 138.619 101.729 138.565C101.603 138.512 101.488 138.434 101.392 138.336C101.251 138.191 101.154 138.008 101.116 137.809C101.077 137.61 101.097 137.404 101.175 137.217C101.221 137.088 101.296 136.971 101.392 136.875C101.489 136.778 101.606 136.704 101.735 136.657C101.859 136.601 101.993 136.572 102.129 136.572C102.265 136.572 102.399 136.601 102.523 136.657C102.652 136.704 102.769 136.778 102.865 136.875C102.962 136.971 103.037 137.088 103.083 137.217C103.136 137.341 103.164 137.475 103.166 137.611C103.17 137.747 103.141 137.881 103.083 138.004C103.033 138.128 102.959 138.241 102.865 138.336C102.769 138.434 102.655 138.512 102.528 138.565C102.402 138.619 102.266 138.646 102.129 138.647Z" fill="#48515A"/>
<path d="M105.064 135.486C104.984 135.375 104.927 135.25 104.895 135.117C104.864 134.983 104.859 134.846 104.881 134.711C104.904 134.576 104.952 134.447 105.025 134.331C105.097 134.215 105.192 134.114 105.303 134.035C105.525 133.875 105.801 133.81 106.071 133.852C106.341 133.895 106.583 134.043 106.745 134.263C106.825 134.373 106.883 134.498 106.916 134.631C106.948 134.763 106.953 134.901 106.932 135.036C106.911 135.171 106.863 135.3 106.792 135.416C106.721 135.533 106.627 135.634 106.517 135.714C106.339 135.843 106.124 135.912 105.905 135.911C105.741 135.911 105.579 135.873 105.433 135.799C105.287 135.725 105.161 135.618 105.064 135.486Z" fill="#48515A"/>
<path d="M109.68 133.174C109.408 133.173 109.147 133.065 108.954 132.874C108.857 132.778 108.78 132.663 108.727 132.537C108.674 132.41 108.647 132.275 108.647 132.138C108.647 132.001 108.674 131.866 108.727 131.739C108.78 131.613 108.857 131.499 108.954 131.402C109.052 131.309 109.164 131.232 109.286 131.174C109.413 131.121 109.548 131.094 109.685 131.094C109.822 131.094 109.958 131.121 110.085 131.174C110.207 131.232 110.319 131.309 110.417 131.402C110.513 131.499 110.589 131.614 110.64 131.74C110.692 131.866 110.718 132.002 110.717 132.138C110.719 132.273 110.694 132.407 110.645 132.532C110.588 132.658 110.511 132.773 110.417 132.874C110.32 132.97 110.205 133.046 110.078 133.098C109.952 133.149 109.817 133.175 109.68 133.174Z" fill="#48515A"/>
<path d="M106.413 129.391C106.291 129.226 106.221 129.028 106.213 128.823C106.204 128.617 106.256 128.414 106.363 128.239C106.47 128.063 106.627 127.924 106.813 127.837C107 127.751 107.208 127.722 107.411 127.754C107.614 127.786 107.803 127.878 107.954 128.018C108.105 128.157 108.21 128.339 108.258 128.538C108.306 128.738 108.293 128.948 108.221 129.14C108.149 129.333 108.021 129.5 107.855 129.619C107.633 129.779 107.357 129.844 107.087 129.802C106.817 129.759 106.575 129.612 106.413 129.391ZM104.535 125.152C104.524 125.016 104.539 124.879 104.581 124.749C104.622 124.619 104.689 124.498 104.777 124.394C104.865 124.289 104.973 124.203 105.094 124.14C105.216 124.078 105.348 124.039 105.484 124.028C105.621 124.016 105.758 124.032 105.888 124.073C106.018 124.114 106.139 124.181 106.244 124.269C106.348 124.357 106.434 124.465 106.497 124.586C106.56 124.708 106.598 124.84 106.61 124.976C106.621 125.112 106.605 125.249 106.564 125.38C106.522 125.51 106.454 125.63 106.366 125.734C106.277 125.838 106.169 125.924 106.047 125.986C105.925 126.048 105.792 126.085 105.656 126.096H105.573C105.313 126.097 105.062 126 104.87 125.826C104.678 125.651 104.559 125.411 104.535 125.152ZM106.07 122.043C105.96 121.963 105.866 121.862 105.795 121.745C105.724 121.629 105.676 121.5 105.655 121.365C105.633 121.23 105.639 121.092 105.671 120.96C105.704 120.827 105.762 120.702 105.842 120.592C105.922 120.481 106.024 120.388 106.14 120.317C106.257 120.245 106.386 120.198 106.521 120.177C106.656 120.155 106.794 120.161 106.926 120.193C107.059 120.225 107.184 120.283 107.294 120.364C107.405 120.444 107.499 120.545 107.57 120.662C107.641 120.778 107.689 120.907 107.71 121.042C107.731 121.177 107.726 121.315 107.694 121.447C107.661 121.58 107.603 121.705 107.523 121.815C107.426 121.947 107.3 122.054 107.154 122.128C107.008 122.202 106.846 122.24 106.682 122.24C106.463 122.241 106.248 122.172 106.07 122.043ZM113.788 120.364C113.53 120.323 113.296 120.187 113.135 119.983C112.973 119.778 112.894 119.52 112.914 119.259C112.935 118.999 113.052 118.756 113.244 118.579C113.436 118.402 113.687 118.304 113.948 118.304C114.21 118.304 114.461 118.402 114.653 118.579C114.845 118.756 114.962 118.999 114.983 119.259C115.003 119.52 114.924 119.778 114.762 119.983C114.6 120.187 114.367 120.323 114.109 120.364C114.003 120.38 113.894 120.38 113.788 120.364ZM109.037 119.162C108.974 118.894 109.02 118.611 109.165 118.377C109.309 118.143 109.542 117.976 109.81 117.913C110.078 117.849 110.36 117.895 110.595 118.04C110.829 118.185 110.996 118.417 111.06 118.685C111.092 118.818 111.097 118.957 111.076 119.092C111.054 119.228 111.005 119.358 110.933 119.474C110.861 119.591 110.766 119.692 110.654 119.772C110.542 119.852 110.416 119.908 110.282 119.939C110.203 119.95 110.122 119.95 110.043 119.939C109.805 119.945 109.572 119.869 109.383 119.724C109.194 119.579 109.061 119.373 109.006 119.141" fill="#48515A"/>
<path d="M118.072 121.659C117.868 121.659 117.669 121.599 117.499 121.487C117.33 121.374 117.197 121.215 117.117 121.027C117.063 120.899 117.035 120.762 117.034 120.623C117.035 120.351 117.144 120.091 117.335 119.897C117.429 119.795 117.547 119.717 117.677 119.669C117.867 119.591 118.076 119.571 118.277 119.612C118.479 119.653 118.663 119.752 118.808 119.897C119 120.091 119.108 120.351 119.109 120.623C119.109 120.762 119.08 120.899 119.026 121.027C118.975 121.151 118.901 121.263 118.808 121.359C118.71 121.457 118.594 121.535 118.466 121.587C118.34 121.636 118.206 121.661 118.072 121.659Z" fill="#48515A"/>
<path d="M119.171 117.255C118.923 117.173 118.715 117.001 118.588 116.773C118.462 116.545 118.425 116.278 118.487 116.025C118.549 115.771 118.704 115.551 118.921 115.406C119.139 115.262 119.403 115.205 119.66 115.247C119.918 115.288 120.15 115.425 120.311 115.63C120.472 115.836 120.55 116.094 120.529 116.354C120.508 116.614 120.389 116.856 120.197 117.033C120.005 117.209 119.754 117.307 119.493 117.306C119.384 117.304 119.275 117.287 119.171 117.255Z" fill="#48515A"/>
<path d="M120.914 112.974C120.639 112.974 120.375 112.865 120.18 112.67C119.986 112.476 119.876 112.212 119.876 111.937C119.877 111.799 119.905 111.661 119.959 111.533C120.01 111.41 120.084 111.297 120.177 111.202C120.274 111.104 120.388 111.027 120.515 110.975C120.641 110.922 120.777 110.895 120.914 110.895C121.051 110.895 121.186 110.922 121.313 110.975C121.439 111.027 121.554 111.104 121.65 111.202C121.743 111.297 121.817 111.41 121.868 111.533C121.922 111.661 121.951 111.799 121.951 111.937C121.95 112.209 121.842 112.47 121.65 112.663C121.552 112.761 121.436 112.839 121.308 112.891C121.182 112.941 121.049 112.965 120.914 112.964" fill="#48515A"/>
<path d="M116.651 111.616C116.388 111.531 116.17 111.345 116.044 111.099C115.919 110.853 115.896 110.568 115.982 110.305C116.067 110.043 116.253 109.825 116.499 109.699C116.745 109.574 117.031 109.551 117.294 109.637C117.555 109.722 117.772 109.907 117.896 110.152C118.02 110.397 118.043 110.681 117.957 110.942C117.887 111.159 117.747 111.346 117.56 111.476C117.373 111.605 117.148 111.669 116.92 111.658C116.814 111.673 116.705 111.673 116.599 111.658L116.651 111.616ZM112.584 109.326C112.45 109.171 112.364 108.98 112.339 108.776C112.313 108.573 112.348 108.366 112.44 108.183C112.531 107.999 112.676 107.847 112.854 107.746C113.032 107.644 113.236 107.598 113.441 107.612C113.646 107.627 113.841 107.702 114.004 107.827C114.166 107.953 114.287 108.124 114.352 108.318C114.417 108.513 114.422 108.722 114.368 108.92C114.314 109.118 114.202 109.295 114.047 109.429C113.861 109.594 113.621 109.686 113.373 109.688C113.223 109.688 113.075 109.656 112.939 109.593C112.803 109.531 112.682 109.439 112.584 109.326ZM110.987 104.796C110.987 104.521 111.096 104.258 111.291 104.063C111.485 103.869 111.749 103.76 112.024 103.76C112.23 103.76 112.43 103.821 112.601 103.934C112.771 104.048 112.904 104.21 112.983 104.4C113.061 104.589 113.082 104.797 113.042 104.998C113.002 105.2 112.903 105.384 112.758 105.529C112.613 105.674 112.428 105.773 112.227 105.813C112.026 105.853 111.817 105.832 111.627 105.754C111.438 105.675 111.276 105.543 111.162 105.372C111.048 105.202 110.987 105.001 110.987 104.796ZM112.73 101.759C112.547 101.599 112.427 101.379 112.39 101.139C112.354 100.898 112.403 100.653 112.529 100.445C112.655 100.237 112.85 100.08 113.08 100.001C113.311 99.9228 113.561 99.9275 113.788 100.015C114.015 100.102 114.204 100.266 114.323 100.479C114.441 100.691 114.48 100.939 114.435 101.177C114.389 101.416 114.26 101.631 114.072 101.785C113.884 101.939 113.647 102.021 113.404 102.019C113.155 102.016 112.916 101.924 112.73 101.759ZM115.966 99.272C115.904 99.0767 115.902 98.8676 115.958 98.6709C116.015 98.4742 116.13 98.2988 116.286 98.1668C116.443 98.0348 116.635 97.9521 116.839 97.9292C117.042 97.9063 117.248 97.9441 117.43 98.038C117.613 98.1319 117.763 98.2776 117.862 98.4567C117.961 98.6358 118.005 98.8403 117.989 99.0443C117.972 99.2484 117.895 99.4429 117.767 99.6033C117.64 99.7637 117.468 99.8829 117.273 99.9457C117.166 99.9598 117.058 99.9598 116.951 99.9457C116.723 99.9561 116.497 99.8906 116.309 99.7594C116.121 99.6281 115.983 99.4385 115.914 99.2201" fill="#48515A"/>
<path d="M120.924 98.7123C120.789 98.7107 120.655 98.6825 120.53 98.6294C120.403 98.5793 120.29 98.5014 120.198 98.4014C120.003 98.21 119.891 97.9492 119.887 97.6758C119.886 97.47 119.946 97.2684 120.06 97.0969C120.174 96.9253 120.336 96.7915 120.526 96.7126C120.717 96.6336 120.926 96.6131 121.128 96.6536C121.33 96.6941 121.515 96.7938 121.661 96.94C121.757 97.0368 121.833 97.1517 121.884 97.2779C121.936 97.4042 121.962 97.5394 121.961 97.6758C121.963 97.8106 121.938 97.9444 121.889 98.0697C121.777 98.3188 121.578 98.518 121.329 98.6294C121.201 98.6838 121.063 98.712 120.924 98.7123Z" fill="#48515A"/>
<path d="M118.507 93.5611C118.443 93.3662 118.439 93.1568 118.494 92.9593C118.55 92.7618 118.662 92.5852 118.818 92.4518C118.974 92.3184 119.166 92.2341 119.37 92.2098C119.573 92.1854 119.78 92.2219 119.963 92.3148C120.146 92.4076 120.297 92.5526 120.398 92.7314C120.498 92.9102 120.543 93.1148 120.527 93.3192C120.511 93.5237 120.435 93.7188 120.308 93.8799C120.181 94.041 120.009 94.1609 119.814 94.2244C119.707 94.2385 119.599 94.2385 119.493 94.2244C119.265 94.2355 119.04 94.1715 118.853 94.0423C118.665 93.913 118.526 93.7257 118.455 93.5092" fill="#48515A"/>
<path d="M118.051 89.8402C117.916 89.8371 117.783 89.8126 117.657 89.7676C117.532 89.714 117.419 89.6366 117.325 89.5396C117.228 89.4433 117.15 89.3286 117.098 89.2023C117.045 89.076 117.018 88.9406 117.018 88.8037C117.018 88.6669 117.045 88.5314 117.098 88.4051C117.15 88.2788 117.228 88.1642 117.325 88.0679C117.42 87.9746 117.533 87.9007 117.657 87.8502C117.846 87.7708 118.054 87.7491 118.255 87.7879C118.456 87.8266 118.641 87.924 118.787 88.0679C118.882 88.1683 118.959 88.2839 119.016 88.4099C119.112 88.6636 119.112 88.9439 119.016 89.1976C118.962 89.3249 118.884 89.441 118.787 89.5396C118.69 89.6357 118.575 89.7117 118.449 89.7633C118.323 89.8148 118.187 89.841 118.051 89.8402Z" fill="#48515A"/>
<path d="M109.815 91.54C109.552 91.5096 109.311 91.3798 109.14 91.1773C108.97 90.9748 108.883 90.7149 108.899 90.4507C108.914 90.1866 109.03 89.9383 109.222 89.7567C109.415 89.5751 109.67 89.474 109.934 89.474C110.199 89.474 110.454 89.5751 110.646 89.7567C110.839 89.9383 110.955 90.1866 110.97 90.4507C110.985 90.7149 110.899 90.9748 110.728 91.1773C110.558 91.3798 110.317 91.5096 110.054 91.54C109.974 91.5508 109.894 91.5508 109.815 91.54ZM113.113 90.3999C113.052 90.2047 113.049 89.9955 113.106 89.7989C113.163 89.6022 113.277 89.4268 113.434 89.2947C113.59 89.1627 113.783 89.0801 113.986 89.0571C114.19 89.0342 114.396 89.0721 114.578 89.166C114.76 89.2599 114.91 89.4055 115.01 89.5846C115.109 89.7637 115.153 89.9682 115.136 90.1723C115.119 90.3764 115.042 90.5709 114.915 90.7313C114.788 90.8917 114.615 91.0108 114.42 91.0736C114.317 91.0893 114.212 91.0893 114.109 91.0736C113.882 91.0847 113.657 91.0207 113.469 90.8915C113.282 90.7622 113.142 90.5749 113.072 90.3585L113.113 90.3999ZM105.811 88.8245C105.731 88.7144 105.672 88.5894 105.64 88.4568C105.608 88.3241 105.602 88.1864 105.624 88.0516C105.645 87.9168 105.692 87.7875 105.764 87.6711C105.835 87.5547 105.929 87.4536 106.039 87.3735C106.261 87.214 106.537 87.1485 106.807 87.1912C107.077 87.2339 107.319 87.3813 107.481 87.6015C107.562 87.7116 107.62 87.8366 107.652 87.9692C107.684 88.1019 107.69 88.2396 107.669 88.3744C107.647 88.5092 107.6 88.6385 107.528 88.7549C107.457 88.8713 107.364 88.9724 107.253 89.0525C107.078 89.1792 106.868 89.2481 106.651 89.2495C106.487 89.2487 106.325 89.2088 106.179 89.1331C106.033 89.0574 105.907 88.9481 105.811 88.8141V88.8245ZM105.438 85.342C105.164 85.3183 104.911 85.1871 104.734 84.9773C104.557 84.7674 104.471 84.4961 104.494 84.2226C104.518 83.9512 104.647 83.7001 104.855 83.5235C105.063 83.347 105.332 83.2593 105.604 83.2795C105.879 83.2904 106.138 83.4102 106.325 83.6123C106.512 83.8145 106.61 84.0825 106.599 84.3574C106.588 84.6323 106.469 84.8915 106.266 85.0781C106.064 85.2647 105.796 85.3634 105.521 85.3524L105.438 85.342ZM106.599 81.4242C106.433 81.3042 106.305 81.1374 106.233 80.945C106.161 80.7525 106.148 80.543 106.196 80.3432C106.244 80.1433 106.349 79.9621 106.5 79.8225C106.651 79.6829 106.84 79.5912 107.043 79.5591C107.246 79.527 107.454 79.5559 107.641 79.6421C107.827 79.7284 107.984 79.8681 108.091 80.0435C108.198 80.2189 108.25 80.4221 108.241 80.6274C108.233 80.8326 108.163 81.0306 108.041 81.1962C107.946 81.3301 107.82 81.4395 107.674 81.5152C107.528 81.5909 107.366 81.6307 107.201 81.6315C106.984 81.6271 106.773 81.5546 106.599 81.4242Z" fill="#48515A"/>
<path d="M109.691 78.3148C109.554 78.3156 109.419 78.2895 109.292 78.2379C109.166 78.1863 109.051 78.1103 108.954 78.0142C108.858 77.9174 108.782 77.8025 108.73 77.6763C108.679 77.55 108.652 77.4148 108.653 77.2784C108.657 77.0039 108.765 76.7411 108.954 76.5425C109.051 76.4465 109.168 76.3723 109.296 76.3248C109.549 76.2212 109.832 76.2212 110.085 76.3248C110.21 76.3773 110.326 76.4509 110.427 76.5425C110.523 76.6398 110.597 76.7564 110.645 76.8845C110.7 77.0086 110.728 77.1427 110.728 77.2784C110.728 77.414 110.7 77.5481 110.645 77.6722C110.598 77.8008 110.524 77.9176 110.427 78.0144C110.33 78.1111 110.213 78.1854 110.085 78.2319C109.96 78.285 109.826 78.3132 109.691 78.3148Z" fill="#48515A"/>
<path d="M105.313 75.3713C105.188 75.2982 105.08 75.1997 104.995 75.0822C104.911 74.9648 104.852 74.8309 104.822 74.6892C104.792 74.5475 104.793 74.4012 104.823 74.2597C104.853 74.1182 104.913 73.9846 104.998 73.8675C105.083 73.7504 105.192 73.6524 105.317 73.5799C105.443 73.5073 105.582 73.4618 105.726 73.4463C105.87 73.4308 106.016 73.4455 106.154 73.4897C106.292 73.5338 106.419 73.6064 106.527 73.7026C106.7 73.8326 106.829 74.0136 106.894 74.2202C106.959 74.4269 106.958 74.6487 106.89 74.8546C106.823 75.0605 106.692 75.2401 106.517 75.3681C106.342 75.4961 106.132 75.5661 105.915 75.5682C105.699 75.5668 105.488 75.498 105.313 75.3713Z" fill="#48515A"/>
<path d="M102.15 72.8319C102.012 72.8314 101.877 72.8036 101.75 72.7502C101.624 72.6969 101.509 72.6189 101.413 72.521C101.316 72.4264 101.239 72.3137 101.185 72.1893C101.135 72.064 101.111 71.9302 101.112 71.7955C101.109 71.6562 101.137 71.5179 101.195 71.3913C101.246 71.2677 101.32 71.1551 101.413 71.0596C101.533 70.9383 101.681 70.8483 101.844 70.7977C102.006 70.7471 102.179 70.7374 102.347 70.7694L102.544 70.8316L102.72 70.9249C102.779 70.9614 102.831 71.0069 102.876 71.0596C103.069 71.2538 103.177 71.5165 103.177 71.7903C103.177 72.0641 103.069 72.3268 102.876 72.521C102.784 72.621 102.67 72.699 102.544 72.749C102.419 72.8021 102.285 72.8303 102.15 72.8319Z" fill="#48515A"/>
<path d="M92.3164 79.0196C92.0561 78.9383 91.8383 78.7579 91.7102 78.5173C91.5821 78.2768 91.5539 77.9955 91.6318 77.7344C91.6906 77.5549 91.7974 77.3949 91.9406 77.2717C92.0838 77.1484 92.258 77.0666 92.4443 77.0351C92.6307 77.0035 92.8221 77.0235 92.9979 77.0927C93.1738 77.162 93.3273 77.278 93.442 77.4281C93.5567 77.5782 93.6281 77.7568 93.6487 77.9445C93.6692 78.1323 93.6379 78.322 93.5584 78.4933C93.4788 78.6646 93.3539 78.811 93.1972 78.9165C93.0404 79.022 92.8578 79.0828 92.669 79.0922C92.5599 79.0901 92.4517 79.0726 92.3475 79.0403L92.3164 79.0196ZM95.7704 78.3148C95.6902 78.1261 95.6678 77.9178 95.7061 77.7163C95.7443 77.5149 95.8415 77.3293 95.9854 77.183C96.1292 77.0368 96.3133 76.9365 96.5142 76.8948C96.7151 76.8531 96.9239 76.8719 97.1142 76.9488C97.3044 77.0257 97.4675 77.1572 97.5829 77.3268C97.6983 77.4964 97.7608 77.6964 97.7624 77.9014C97.764 78.1065 97.7047 78.3074 97.592 78.4788C97.4793 78.6501 97.3183 78.7842 97.1293 78.8641C97.0007 78.9164 96.8635 78.9445 96.7247 78.9471C96.5211 78.9469 96.3221 78.8868 96.1524 78.7744C95.9827 78.662 95.8499 78.5021 95.7704 78.3148ZM88.5407 76.0761C88.4329 75.9013 88.3794 75.6985 88.3871 75.4933C88.3948 75.2882 88.4632 75.0899 88.5838 74.9237C88.7044 74.7575 88.8717 74.6308 89.0645 74.5597C89.2572 74.4886 89.4668 74.4763 89.6665 74.5244C89.8663 74.5725 90.0472 74.6788 90.1865 74.8297C90.3257 74.9807 90.4169 75.1696 90.4485 75.3725C90.4801 75.5754 90.4508 75.783 90.3641 75.9692C90.2775 76.1553 90.1374 76.3116 89.9618 76.4181C89.7277 76.5601 89.4469 76.6038 89.1807 76.5397C88.9145 76.4756 88.6844 76.309 88.5407 76.0761ZM99.0897 75.9828C98.9793 75.9025 98.8859 75.8012 98.8147 75.6849C98.7436 75.5685 98.696 75.4392 98.6748 75.3045C98.6536 75.1697 98.6592 75.0322 98.6912 74.8996C98.7233 74.767 98.7811 74.642 98.8615 74.5317C98.9419 74.4215 99.0432 74.3281 99.1596 74.257C99.2761 74.1859 99.4055 74.1384 99.5403 74.1172C99.6752 74.096 99.8129 74.1016 99.9455 74.1336C100.078 74.1656 100.203 74.2234 100.314 74.3037C100.424 74.3838 100.518 74.485 100.589 74.6014C100.661 74.7177 100.708 74.8471 100.729 74.9819C100.751 75.1167 100.745 75.2544 100.713 75.387C100.681 75.5196 100.622 75.6446 100.542 75.7548C100.445 75.8868 100.319 75.9941 100.173 76.068C100.027 76.1419 99.8653 76.1801 99.7017 76.1797C99.482 76.1805 99.2677 76.1115 99.0897 75.9828ZM87.5553 71.5156C87.5553 71.3107 87.6162 71.1103 87.7301 70.9398C87.8441 70.7694 88.0061 70.6365 88.1956 70.5581C88.3852 70.4796 88.5937 70.4591 88.7949 70.4991C88.9962 70.5391 89.181 70.6378 89.326 70.7828C89.4711 70.9277 89.5699 71.1124 89.6099 71.3134C89.6499 71.5145 89.6294 71.7229 89.5509 71.9123C89.4724 72.1017 89.3394 72.2635 89.1689 72.3774C88.9983 72.4913 88.7977 72.5521 88.5926 72.5521C88.3175 72.5521 88.0537 72.4429 87.8591 72.2485C87.6646 72.0542 87.5553 71.7905 87.5553 71.5156Z" fill="#48515A"/>
<path d="M88.603 68.4062C88.4657 68.4057 88.33 68.3779 88.2035 68.3245C88.0771 68.2712 87.9626 68.1932 87.8665 68.0953C87.7695 68.0007 87.6919 67.888 87.6383 67.7636C87.5887 67.6383 87.564 67.5045 87.5657 67.3698C87.5645 67.2317 87.5891 67.0946 87.6383 66.9656C87.7041 66.8086 87.8076 66.6703 87.9396 66.5628C88.0716 66.4553 88.228 66.3819 88.3951 66.3491C88.5622 66.3163 88.7348 66.3252 88.8977 66.3748C89.0606 66.4245 89.2087 66.5135 89.329 66.6339C89.4291 66.7259 89.5072 66.8393 89.5572 66.9656C89.6095 67.0941 89.6376 67.2311 89.6402 67.3698C89.6386 67.5052 89.6104 67.639 89.5572 67.7636C89.4458 68.0127 89.2464 68.212 88.9971 68.3233C88.8724 68.3764 88.7385 68.4046 88.603 68.4062Z" fill="#48515A"/>
<path d="M83.9353 68.4062C83.7301 68.4062 83.5296 68.3454 83.359 68.2315C83.1884 68.1177 83.0555 67.9558 82.977 67.7664C82.8985 67.577 82.8779 67.3686 82.9179 67.1676C82.958 66.9665 83.0567 66.7818 83.2018 66.6369C83.3469 66.4919 83.5317 66.3932 83.7329 66.3532C83.9341 66.3132 84.1427 66.3338 84.3322 66.4122C84.5218 66.4907 84.6838 66.6235 84.7977 66.7939C84.9117 66.9644 84.9725 67.1648 84.9725 67.3698C84.9725 67.6447 84.8633 67.9083 84.6687 68.1027C84.4742 68.297 84.2104 68.4062 83.9353 68.4062Z" fill="#48515A"/>
<path d="M79.2676 68.4062C79.0977 68.4054 78.9306 68.3629 78.7811 68.2824C78.6315 68.2019 78.504 68.086 78.4097 67.9447C78.3155 67.8035 78.2574 67.6413 78.2406 67.4723C78.2238 67.3034 78.2488 67.1329 78.3133 66.9759C78.3606 66.8452 78.4389 66.7278 78.5415 66.6339C78.6862 66.4883 78.8709 66.389 79.0722 66.3484C79.2735 66.3078 79.4823 66.3278 79.6721 66.4059C79.7943 66.4635 79.9064 66.5405 80.0041 66.6339C80.1022 66.7315 80.1798 66.8478 80.2323 66.9759C80.3287 67.2296 80.3287 67.5099 80.2323 67.7636C80.1759 67.8896 80.0987 68.0052 80.0041 68.1057C79.9085 68.1989 79.7958 68.2728 79.6721 68.3233C79.5442 68.3778 79.4066 68.406 79.2676 68.4062Z" fill="#48515A"/>
<path d="M74.2473 78.3252C74.1862 78.1303 74.1841 77.9217 74.2412 77.7257C74.2984 77.5296 74.4122 77.3548 74.5684 77.2231C74.7246 77.0915 74.9163 77.0089 75.1194 76.9857C75.3224 76.9625 75.5278 76.9997 75.7097 77.0928C75.8916 77.1858 76.042 77.3305 76.1419 77.5086C76.2419 77.6868 76.2869 77.8904 76.2714 78.094C76.2559 78.2977 76.1805 78.4922 76.0548 78.6532C75.929 78.8141 75.7585 78.9344 75.5646 78.9989C75.4579 79.013 75.3498 79.013 75.243 78.9989C75.0142 79.0093 74.7884 78.9438 74.6008 78.8126C74.4131 78.6814 74.2743 78.4917 74.2058 78.2734L74.2473 78.3252ZM70.7413 78.7812C70.5522 78.7022 70.3908 78.5689 70.2775 78.3982C70.1641 78.2276 70.1039 78.0272 70.1045 77.8223C70.105 77.6175 70.1663 77.4174 70.2806 77.2474C70.3948 77.0773 70.5569 76.9449 70.7464 76.8669C70.936 76.7888 71.1444 76.7686 71.3454 76.8088C71.5463 76.849 71.7309 76.9478 71.8757 77.0928C72.0206 77.2377 72.1192 77.4223 72.1591 77.6232C72.1991 77.8241 72.1785 78.0323 72.1001 78.2215C72.0201 78.4105 71.8856 78.5715 71.7139 78.684C71.5422 78.7966 71.3409 78.8557 71.1355 78.8538C71.0006 78.8554 70.8667 78.8308 70.7413 78.7812ZM77.8569 76.3455C77.6823 76.2388 77.5432 76.0829 77.457 75.8973C77.3709 75.7117 77.3417 75.5048 77.373 75.3027C77.4044 75.1006 77.4948 74.9122 77.6331 74.7613C77.7713 74.6105 77.9512 74.5039 78.1499 74.4549C78.3487 74.406 78.5575 74.4169 78.7501 74.4864C78.9426 74.5558 79.1103 74.6806 79.2321 74.845C79.3538 75.0095 79.4241 75.2063 79.4341 75.4106C79.4441 75.6149 79.3934 75.8176 79.2884 75.9931C79.1966 76.1479 79.066 76.276 78.9096 76.3651C78.7532 76.4541 78.5763 76.501 78.3963 76.501C78.2056 76.4997 78.019 76.4459 77.8569 76.3455ZM67.2769 75.6822C67.1905 75.5724 67.1271 75.4463 67.0907 75.3114C67.0543 75.1766 67.0456 75.0358 67.065 74.8974C67.0844 74.7591 67.1316 74.6261 67.2038 74.5065C67.2759 74.3869 67.3716 74.283 67.4849 74.2013C67.5982 74.1195 67.7269 74.0614 67.8632 74.0306C67.9996 73.9998 68.1408 73.9968 68.2783 74.0218C68.4158 74.0469 68.5468 74.0995 68.6635 74.1764C68.7802 74.2534 68.8801 74.3531 68.9572 74.4696C69.1168 74.6913 69.1824 74.967 69.1397 75.2368C69.097 75.5066 68.9494 75.7486 68.729 75.9102C68.5511 76.039 68.3368 76.1079 68.117 76.1072C67.9534 76.1076 67.7919 76.0693 67.6459 75.9954C67.4999 75.9216 67.3734 75.8142 67.2769 75.6822ZM78.2304 71.5156C78.2304 71.3107 78.2912 71.1103 78.4052 70.9398C78.5191 70.7694 78.6811 70.6365 78.8707 70.5581C79.0602 70.4796 79.2688 70.4591 79.47 70.4991C79.6712 70.5391 79.856 70.6378 80.0011 70.7828C80.1461 70.9277 80.2449 71.1124 80.285 71.3134C80.325 71.5145 80.3044 71.7229 80.2259 71.9123C80.1474 72.1017 80.0145 72.2635 79.8439 72.3774C79.6733 72.4913 79.4728 72.5521 79.2676 72.5521C78.9925 72.5521 78.7287 72.4429 78.5342 72.2485C78.3396 72.0542 78.2304 71.7905 78.2304 71.5156Z" fill="#48515A"/>
<path d="M65.7106 72.7904C65.5757 72.7921 65.4418 72.7675 65.3164 72.7179C65.1919 72.6643 65.0792 72.5868 64.9845 72.4899C64.8873 72.3935 64.8101 72.2789 64.7574 72.1526C64.7048 72.0263 64.6777 71.8908 64.6777 71.754C64.6777 71.6172 64.7048 71.4817 64.7574 71.3554C64.8101 71.2291 64.8873 71.1144 64.9845 71.0181C65.0801 70.9249 65.1928 70.851 65.3164 70.8004C65.5063 70.7205 65.7158 70.6988 65.918 70.7383L66.1151 70.8004C66.1779 70.8233 66.2372 70.8547 66.2914 70.8937L66.447 71.0181C66.5432 71.1149 66.6192 71.2298 66.6708 71.3561C66.7225 71.4824 66.7486 71.6176 66.7478 71.754C66.7478 72.0289 66.6385 72.2925 66.444 72.4869C66.2495 72.6812 65.9857 72.7904 65.7106 72.7904Z" fill="#48515A"/>
<path d="M61.0948 75.1017C60.9325 74.8791 60.8653 74.6011 60.9081 74.329C60.9509 74.0569 61.1001 73.8129 61.323 73.6507C61.5458 73.4885 61.824 73.4214 62.0963 73.4642C62.3686 73.507 62.6128 73.6561 62.7751 73.8787C62.8555 73.989 62.9133 74.114 62.9454 74.2466C62.9774 74.3791 62.983 74.5167 62.9618 74.6515C62.9406 74.7862 62.8931 74.9155 62.8219 75.0319C62.7507 75.1482 62.6573 75.2495 62.5469 75.3298C62.4366 75.4101 62.3115 75.4679 62.1788 75.4999C62.0461 75.5319 61.9084 75.5375 61.7736 75.5163C61.6387 75.4951 61.5094 75.4476 61.3929 75.3765C61.2764 75.3053 61.1751 75.212 61.0948 75.1017Z" fill="#48515A"/>
<path d="M58.1593 78.2629C58.0228 78.2637 57.8875 78.2376 57.7611 78.186C57.6347 78.1344 57.5198 78.0584 57.4228 77.9624C57.3312 77.8616 57.2576 77.7459 57.205 77.6203C57.1519 77.4957 57.1237 77.3619 57.122 77.2265C57.1259 76.9521 57.2333 76.6892 57.4228 76.4906C57.5237 76.399 57.6394 76.3254 57.7651 76.2729C57.954 76.1936 58.1622 76.1719 58.3634 76.2106C58.5647 76.2493 58.7499 76.3468 58.8958 76.4906C58.9919 76.5874 59.0679 76.7023 59.1196 76.8286C59.1712 76.9549 59.1974 77.0901 59.1966 77.2265C59.1974 77.3629 59.1712 77.4981 59.1196 77.6244C59.0679 77.7507 58.9919 77.8655 58.8958 77.9624C58.7971 78.0567 58.6808 78.1307 58.5535 78.18C58.4288 78.2331 58.2948 78.2613 58.1593 78.2629Z" fill="#48515A"/>
<path d="M56.7797 90.7108C56.7343 90.5115 56.7489 90.3032 56.8216 90.1122C56.8944 89.9211 57.022 89.7558 57.1885 89.6371C57.355 89.5183 57.553 89.4514 57.7574 89.4448C57.9619 89.4382 58.1637 89.4921 58.3376 89.5998C58.5115 89.7074 58.6496 89.8641 58.7346 90.05C58.8196 90.2359 58.8477 90.4428 58.8153 90.6447C58.783 90.8465 58.6916 91.0343 58.5527 91.1843C58.4139 91.3344 58.2337 91.4401 58.0348 91.4881H57.7859C57.5475 91.4945 57.3143 91.4186 57.1253 91.2733C56.9364 91.1279 56.8034 90.922 56.7486 90.6901L56.7797 90.7108ZM53.3775 90.9907C53.1195 90.9502 52.8863 90.814 52.7244 90.6093C52.5625 90.4045 52.4839 90.1463 52.5042 89.8861C52.5245 89.626 52.6422 89.3831 52.8339 89.2059C53.0256 89.0287 53.2772 88.9303 53.5383 88.9303C53.7994 88.9303 54.051 89.0287 54.2427 89.2059C54.4344 89.3831 54.5521 89.626 54.5724 89.8861C54.5927 90.1463 54.5141 90.4045 54.3522 90.6093C54.1903 90.814 53.9571 90.9502 53.6991 90.9907C53.5924 91.0055 53.4842 91.0055 53.3775 90.9907ZM60.5139 89.0214C60.4036 88.9411 60.3101 88.8398 60.2389 88.7235C60.1678 88.6071 60.1202 88.4778 60.099 88.3431C60.0778 88.2083 60.0834 88.0708 60.1155 87.9382C60.1475 87.8056 60.2053 87.6806 60.2857 87.5703C60.3661 87.4601 60.4674 87.3667 60.5838 87.2956C60.7003 87.2245 60.8297 87.177 60.9645 87.1558C61.0994 87.1346 61.2371 87.1402 61.3698 87.1722C61.5024 87.2042 61.6275 87.262 61.7379 87.3423C61.9199 87.4642 62.0586 87.6406 62.1341 87.8462C62.2096 88.0518 62.218 88.2759 62.1581 88.4866C62.0982 88.6972 61.9731 88.8835 61.8007 89.0187C61.6283 89.1538 61.4175 89.231 61.1985 89.239C60.9788 89.2398 60.7645 89.1709 60.5865 89.0421L60.5139 89.0214ZM61.2918 84.3884C61.2809 84.2523 61.297 84.1154 61.339 83.9855C61.3811 83.8556 61.4484 83.7352 61.537 83.6312C61.6256 83.5273 61.7338 83.4418 61.8555 83.3797C61.9772 83.3175 62.1099 83.2799 62.2461 83.269C62.3823 83.2581 62.5194 83.2742 62.6494 83.3162C62.7794 83.3582 62.8999 83.4254 63.0039 83.514C63.1079 83.6025 63.1935 83.7107 63.2556 83.8323C63.3178 83.9538 63.3555 84.0865 63.3664 84.2226C63.3894 84.496 63.3029 84.7674 63.126 84.9772C62.949 85.1871 62.696 85.3182 62.4225 85.342H62.2357C61.9744 85.3428 61.7224 85.245 61.5301 85.0683C61.3378 84.8915 61.2194 84.6487 61.1985 84.3884H61.2918ZM59.7048 81.1961C59.5674 81.0081 59.4972 80.7794 59.5057 80.5467C59.5143 80.3141 59.6009 80.0911 59.7518 79.9136C59.9026 79.7362 60.1088 79.6147 60.3372 79.5686C60.5656 79.5226 60.8029 79.5547 61.0108 79.6599C61.2186 79.765 61.385 79.937 61.4831 80.1482C61.5813 80.3594 61.6053 80.5974 61.5516 80.8239C61.4978 81.0504 61.3692 81.2523 61.1866 81.3969C61.004 81.5415 60.778 81.6205 60.545 81.6211C60.3813 81.6215 60.2199 81.5832 60.0739 81.5094C59.9278 81.4355 59.8014 81.3282 59.7048 81.1961Z" fill="#48515A"/>
<path d="M49.7886 89.778C49.6514 89.7775 49.5156 89.7497 49.3892 89.6963C49.2628 89.6429 49.1482 89.565 49.0521 89.4671C48.9551 89.3725 48.8776 89.2598 48.8239 89.1354C48.7743 89.0101 48.7497 88.8763 48.7513 88.7416C48.7505 88.6052 48.7767 88.4699 48.8283 88.3437C48.8799 88.2174 48.956 88.1025 49.0521 88.0057C49.2465 87.8126 49.5094 87.7043 49.7834 87.7043C50.0574 87.7043 50.3203 87.8126 50.5147 88.0057C50.6127 88.1017 50.6907 88.2161 50.7441 88.3425C50.7975 88.4688 50.8253 88.6044 50.8259 88.7416C50.8242 88.877 50.796 89.0108 50.7429 89.1354C50.6314 89.3845 50.432 89.5837 50.1828 89.6951C50.0581 89.7482 49.9241 89.7764 49.7886 89.778Z" fill="#48515A"/>
<path d="M48.0356 94.0793C47.7838 93.9866 47.5777 93.8 47.4606 93.5587C47.3436 93.3174 47.3247 93.0401 47.408 92.7852C47.4912 92.5302 47.6701 92.3175 47.9071 92.1916C48.1441 92.0657 48.4207 92.0365 48.6787 92.11C48.9129 92.1869 49.112 92.3446 49.2403 92.5549C49.3687 92.7651 49.4179 93.0142 49.3793 93.2574C49.3406 93.5006 49.2164 93.7221 49.0292 93.8822C48.8419 94.0423 48.6036 94.1306 48.3572 94.1311C48.2506 94.1469 48.1422 94.1469 48.0356 94.1311" fill="#48515A"/>
<path d="M122.47 65.2969H120.395V60.1146H87.8146L84.0909 56.3937L80.3775 60.1146H47.7867V65.2969H45.7122V58.0417H79.5165L84.0909 53.4709L88.6756 58.0417H122.47V65.2969Z" fill="#48515A"/>
<path d="M88.2399 47.6771H79.9418V49.75H88.2399V47.6771Z" fill="#3388E5"/>
<path d="M143.142 71.5156C143.142 71.9256 143.021 72.3264 142.793 72.6672C142.565 73.0081 142.241 73.2738 141.862 73.4307C141.483 73.5876 141.065 73.6287 140.663 73.5487C140.261 73.4687 139.891 73.2713 139.601 72.9814C139.311 72.6915 139.113 72.3221 139.033 71.92C138.953 71.5179 138.994 71.1011 139.151 70.7223C139.308 70.3436 139.574 70.0198 139.915 69.792C140.256 69.5643 140.657 69.4427 141.068 69.4427C141.618 69.4427 142.146 69.6611 142.535 70.0498C142.924 70.4386 143.142 70.9658 143.142 71.5156Z" fill="#3388E5"/>
<path d="M141.14 194.854H139.066V197.964H141.14V194.854Z" fill="#48515A"/>
<path d="M136.991 194.854H134.917V197.964H136.991V194.854Z" fill="#48515A"/>
<path d="M132.842 194.854H130.768V197.964H132.842V194.854Z" fill="#48515A"/>
<path d="M128.693 194.854H126.619V197.964H128.693V194.854Z" fill="#48515A"/>
<path d="M124.544 194.854H122.47V197.964H124.544V194.854Z" fill="#48515A"/>
<path d="M120.395 194.854H118.321V197.964H120.395V194.854Z" fill="#48515A"/>
<path d="M116.246 194.854H114.172V197.964H116.246V194.854Z" fill="#48515A"/>
<path d="M112.097 194.854H110.022V197.964H112.097V194.854Z" fill="#48515A"/>
<path d="M107.948 194.854H105.873V197.964H107.948V194.854Z" fill="#48515A"/>
<path d="M103.799 194.854H101.724V197.964H103.799V194.854Z" fill="#48515A"/>
<path d="M99.6498 194.854H97.5753V197.964H99.6498V194.854Z" fill="#48515A"/>
<path d="M145.289 150.286H142.178V152.359H145.289V150.286Z" fill="#48515A"/>
<path d="M145.289 154.432H142.178V156.505H145.289V154.432Z" fill="#48515A"/>
<path d="M145.289 158.578H142.178V160.651H145.289V158.578Z" fill="#48515A"/>
<path d="M145.289 162.724H142.178V164.797H145.289V162.724Z" fill="#48515A"/>
<path d="M145.289 166.87H142.178V168.943H145.289V166.87Z" fill="#48515A"/>
<path d="M145.289 171.016H142.178V173.089H145.289V171.016Z" fill="#48515A"/>
<path d="M145.289 175.161H142.178V177.234H145.289V175.161Z" fill="#48515A"/>
<path d="M145.289 179.307H142.178V181.38H145.289V179.307Z" fill="#48515A"/>
<path d="M145.289 183.453H142.178V185.526H145.289V183.453Z" fill="#48515A"/>
<path d="M145.289 187.599H142.178V189.672H145.289V187.599Z" fill="#48515A"/>
<path d="M145.289 191.745H142.178V193.818H145.289V191.745Z" fill="#48515A"/>
</g>
<defs>
<clipPath id="clip0">
<rect width="184" height="199" fill="white"/>
</clipPath>
</defs>
</svg>
