<svg width="40" height="41" viewBox="0 0 40 41" fill="none" xmlns="http://www.w3.org/2000/svg">
<g clip-path="url(#clip0)">
<path d="M36.7741 3.26025H18.7096C18.3536 3.26025 18.0645 3.54944 18.0645 3.90542V15.5183C18.0645 15.8743 18.3536 16.1635 18.7096 16.1635H36.7741C37.1301 16.1635 37.4193 15.8743 37.4193 15.5183V3.90542C37.4193 3.54944 37.1301 3.26025 36.7741 3.26025ZM27.7419 10.7977L20.4536 4.55058H35.0296L27.7419 10.7977ZM24.4921 9.71187L19.3548 14.1159V5.30789L24.4921 9.71187ZM25.4838 10.5615L27.322 12.1369C27.4432 12.2409 27.5922 12.2925 27.7419 12.2925C27.8915 12.2925 28.0405 12.2409 28.1618 12.1369L29.9999 10.5615L35.0302 14.8732H20.4536L25.4838 10.5615ZM30.9916 9.71187L36.129 5.30789V14.1152L30.9916 9.71187Z" fill="#CACACA"/>
<path d="M38.0645 0.679688H17.4194C16.3524 0.679688 15.4839 1.5482 15.4839 2.61517V13.5829H3.22581C2.15883 13.5829 1.29032 14.4514 1.29032 15.5184V34.2281H0.645161C0.289189 34.2281 0 34.5173 0 34.8732V37.4539C0 39.2325 1.4472 40.6797 3.22581 40.6797H31.6129C33.3915 40.6797 34.8387 39.2325 34.8387 37.4539V34.8732C34.8387 34.5173 34.5495 34.2281 34.1935 34.2281H33.5484V18.7442H38.0645C39.1315 18.7442 40 17.8757 40 16.8087V2.61517C40 1.5482 39.1315 0.679688 38.0645 0.679688ZM33.5484 37.4539C33.5484 38.5209 32.6799 39.3894 31.6129 39.3894H3.22581C2.15883 39.3894 1.29032 38.5209 1.29032 37.4539V35.5184H9.03226V36.1636C9.03226 37.2305 9.90077 38.099 10.9677 38.099H23.871C24.9379 38.099 25.8064 37.2305 25.8064 36.1636V35.5184H33.5484V37.4539ZM10.3226 35.5184H24.5161V36.1636C24.5161 36.5189 24.2263 36.8087 23.871 36.8087H10.9677C10.6124 36.8087 10.3226 36.5189 10.3226 36.1636V35.5184ZM32.2581 34.2281H2.58065V15.5184C2.58065 15.1631 2.87046 14.8732 3.22581 14.8732H15.4839V16.1636H4.51613C4.16016 16.1636 3.87097 16.4527 3.87097 16.8087V32.2926C3.87097 32.6486 4.16016 32.9378 4.51613 32.9378H30.3226C30.6786 32.9378 30.9677 32.6486 30.9677 32.2926V21.3248H29.6774V31.6474H5.16129V17.4539H15.6026C15.8698 18.203 16.5795 18.7442 17.4194 18.7442H25.1613V21.97C25.1613 22.2305 25.3188 22.4662 25.5595 22.566C25.6395 22.5991 25.7233 22.6152 25.8064 22.6152C25.974 22.6152 26.1394 22.5493 26.2626 22.4262L29.9446 18.7442H32.2581V34.2281ZM38.7097 16.8087C38.7097 17.1641 38.4199 17.4539 38.0645 17.4539H29.6774C29.5064 17.4539 29.3419 17.5216 29.2213 17.6429L26.4516 20.4125V18.099C26.4516 17.7431 26.1624 17.4539 25.8064 17.4539H17.4194C17.064 17.4539 16.7742 17.1641 16.7742 16.8087V2.61517C16.7742 2.25983 17.064 1.97001 17.4194 1.97001H38.0645C38.4199 1.97001 38.7097 2.25983 38.7097 2.61517V16.8087Z" fill="#CACACA"/>
<path d="M17.4193 20.0342H7.0967C6.74073 20.0342 6.45154 20.3234 6.45154 20.6793V24.5503C6.45154 24.9063 6.74073 25.1955 7.0967 25.1955H17.4193C17.7753 25.1955 18.0644 24.9063 18.0644 24.5503V20.6793C18.0644 20.3234 17.7753 20.0342 17.4193 20.0342ZM16.7741 23.9051H7.74186V21.3245H16.7741V23.9051Z" fill="#CACACA"/>
<path d="M6.45154 26.4858H18.0644V27.7762H6.45154V26.4858Z" fill="#CACACA"/>
<path d="M7.74194 29.0664H16.7742V30.3567H7.74194V29.0664Z" fill="#CACACA"/>
<path d="M27.0968 29.0664H20.6452V21.3245H23.871V20.0342H20C19.644 20.0342 19.3549 20.3234 19.3549 20.6793V29.7116C19.3549 30.0676 19.644 30.3568 20 30.3568H27.742C28.0979 30.3568 28.3871 30.0676 28.3871 29.7116V23.9051H27.0968V29.0664Z" fill="#CACACA"/>
</g>
<defs>
<clipPath id="clip0">
<rect width="40" height="40" fill="white" transform="translate(0 0.679688)"/>
</clipPath>
</defs>
</svg>
