<svg width="33" height="33" viewBox="0 0 33 33" fill="none" xmlns="http://www.w3.org/2000/svg">
<path d="M16.5 31.625C24.8533 31.625 31.625 24.8533 31.625 16.5C31.625 8.14669 24.8533 1.375 16.5 1.375C8.14669 1.375 1.375 8.14669 1.375 16.5C1.375 24.8533 8.14669 31.625 16.5 31.625Z" fill="white"/>
<path d="M21.7154 12.0904L15.8125 17.9926L13.3471 15.5279C12.8109 14.9909 11.9391 14.9909 11.4029 15.5279C10.8659 16.0648 10.8659 16.9352 11.4029 17.4721L14.8404 20.9096C15.1085 21.1784 15.4605 21.3125 15.8125 21.3125C16.1645 21.3125 16.5165 21.1784 16.7846 20.9096L23.6596 14.0346C24.1966 13.4977 24.1966 12.6273 23.6596 12.0904C23.1234 11.5534 22.2516 11.5534 21.7154 12.0904Z" fill="#3388E5"/>
<path d="M31.625 15.125C30.866 15.125 30.25 15.741 30.25 16.5C30.25 24.0817 24.0817 30.25 16.5 30.25C8.91825 30.25 2.75 24.0817 2.75 16.5C2.75 8.91825 8.91825 2.75 16.5 2.75C20.1912 2.75 23.6555 4.19306 26.2556 6.81244C26.7905 7.35213 27.6609 7.35488 28.2006 6.82C28.7396 6.28513 28.743 5.41475 28.2074 4.87575C25.0876 1.73181 20.9296 0 16.5 0C7.40162 0 0 7.40162 0 16.5C0 25.5984 7.40162 33 16.5 33C25.5984 33 33 25.5984 33 16.5C33 15.741 32.384 15.125 31.625 15.125Z" fill="#3388E5"/>
</svg>
