<svg width="153" height="39" viewBox="0 0 153 39" fill="none" xmlns="http://www.w3.org/2000/svg">
<mask id="mask0" mask-type="alpha" maskUnits="userSpaceOnUse" x="2" y="5" width="30" height="33">
<path d="M14.3648 6.30277C16.0022 5.3574 18.0196 5.3574 19.6571 6.30278L29.0967 11.7527C30.7341 12.6981 31.7428 14.4452 31.7428 16.336V27.2359C31.7428 29.1266 30.7341 30.8738 29.0967 31.8191L19.6571 37.2691C18.0196 38.2145 16.0022 38.2145 14.3648 37.2691L4.92517 31.8191C3.28773 30.8738 2.27903 29.1266 2.27903 27.2359V16.336C2.27903 14.4452 3.28773 12.6981 4.92517 11.7527L14.3648 6.30277Z" fill="#3388E5"/>
</mask>
<g mask="url(#mask0)">
<path d="M14.3648 6.30277C16.0022 5.3574 18.0196 5.3574 19.6571 6.30278L29.0967 11.7527C30.7341 12.6981 31.7428 14.4452 31.7428 16.336V27.2359C31.7428 29.1266 30.7341 30.8738 29.0967 31.8191L19.6571 37.2691C18.0196 38.2145 16.0022 38.2145 14.3648 37.2691L4.92517 31.8191C3.28773 30.8738 2.27903 29.1266 2.27903 27.2359V16.336C2.27903 14.4452 3.28773 12.6981 4.92517 11.7527L14.3648 6.30277Z" fill="#8FB0D5"/>
<path d="M14.3648 10.0829C16.0022 9.13755 18.0196 9.13755 19.6571 10.0829L29.0967 15.5329C30.7341 16.4783 31.7428 18.2254 31.7428 20.1161V31.016C31.7428 32.9068 30.7341 34.6539 29.0967 35.5993L19.6571 41.0493C18.0196 41.9946 16.0022 41.9946 14.3648 41.0493L4.92517 35.5993C3.28773 34.6539 2.27903 32.9068 2.27903 31.016V20.1161C2.27903 18.2254 3.28773 16.4783 4.92517 15.5329L14.3648 10.0829Z" fill="white"/>
<path d="M10.5845 17.6434C12.2219 16.698 14.2393 16.698 15.8768 17.6434L25.3164 23.0933C26.9538 24.0387 27.9625 25.7858 27.9625 27.6766V38.5765C27.9625 40.4672 26.9538 42.2143 25.3164 43.1597L15.8768 48.6097C14.2393 49.5551 12.2219 49.5551 10.5845 48.6097L1.1449 43.1597C-0.49254 42.2143 -1.50124 40.4672 -1.50124 38.5765V27.6766C-1.50124 25.7858 -0.492539 24.0387 1.1449 23.0933L10.5845 17.6434Z" fill="#1D6CC2"/>
</g>
<path d="M60.7797 12.1337C60.7797 13.6796 60.522 15.0305 60.0067 16.1865C59.5054 17.3285 58.7324 18.2198 57.6879 18.8605C56.6434 19.5011 55.3064 19.8215 53.6769 19.8215C52.0613 19.8215 50.7243 19.5011 49.6659 18.8605C48.6214 18.2198 47.8414 17.3215 47.3261 16.1656C46.8248 15.0097 46.5741 13.6587 46.5741 12.1128C46.5741 10.5669 46.8248 9.22296 47.3261 8.08094C47.8414 6.93892 48.6214 6.05455 49.6659 5.42783C50.7243 4.78719 52.0683 4.46686 53.6978 4.46686C55.3133 4.46686 56.6434 4.78719 57.6879 5.42783C58.7324 6.05455 59.5054 6.94588 60.0067 8.10183C60.522 9.24385 60.7797 10.5878 60.7797 12.1337ZM49.8957 12.1337C49.8957 13.6935 50.1951 14.9261 50.794 15.8314C51.3928 16.7227 52.3538 17.1683 53.6769 17.1683C55.0278 17.1683 55.9957 16.7227 56.5807 15.8314C57.1656 14.9261 57.4581 13.6935 57.4581 12.1337C57.4581 10.56 57.1656 9.32741 56.5807 8.43608C55.9957 7.54475 55.0348 7.09908 53.6978 7.09908C52.3608 7.09908 51.3928 7.54475 50.794 8.43608C50.1951 9.32741 49.8957 10.56 49.8957 12.1337ZM75.8606 19.6125H72.2674L68.3609 13.3245L67.0239 14.2854V19.6125H63.8694V4.69666H67.0239V11.5279C67.2328 11.2354 67.4417 10.943 67.6506 10.6505C67.8595 10.358 68.0684 10.0655 68.2773 9.77308L72.3092 4.69666H75.8188L70.617 11.2981L75.8606 19.6125ZM82.3798 4.69666C84.3713 4.69666 85.8754 4.9752 86.8921 5.53229C87.9088 6.08937 88.4171 7.07123 88.4171 8.47786C88.4171 9.32741 88.2152 10.0447 87.8113 10.6296C87.4214 11.2145 86.8573 11.5697 86.1192 11.695V11.7995C86.6205 11.897 87.0732 12.071 87.4771 12.3217C87.8809 12.5724 88.2013 12.9345 88.438 13.408C88.6748 13.8816 88.7932 14.5083 88.7932 15.2882C88.7932 16.6391 88.3057 17.6976 87.3308 18.4636C86.3559 19.2296 85.0189 19.6125 83.3198 19.6125H77.742V4.69666H82.3798ZM82.7349 10.6087C83.6541 10.6087 84.2878 10.4625 84.6359 10.17C84.998 9.87753 85.1791 9.45275 85.1791 8.89567C85.1791 8.32466 84.9702 7.91381 84.5524 7.66313C84.1346 7.41244 83.473 7.2871 82.5678 7.2871H80.8965V10.6087H82.7349ZM80.8965 13.1156V17.0012H82.9647C83.9117 17.0012 84.5733 16.8202 84.9493 16.4581C85.3253 16.082 85.5133 15.5876 85.5133 14.9748C85.5133 14.4178 85.3184 13.9721 84.9284 13.6378C84.5524 13.2897 83.863 13.1156 82.8602 13.1156H80.8965ZM102.782 19.6125H95.9929V17.816L97.8104 16.9803V7.32888L95.9929 6.49325V4.69666H102.782V6.49325L100.965 7.32888V16.9803L102.782 17.816V19.6125ZM111.069 19.6125H107.915V7.32888H103.862V4.69666H115.122V7.32888H111.069V19.6125Z" fill="white"/>
<path opacity="0.5" d="M50.5671 25.5984V29.875H49.9882V26.8369C49.9882 26.7514 49.9902 26.6628 49.9941 26.5713C49.9981 26.4778 50.0071 26.3793 50.021 26.2758C49.9872 26.3654 49.9514 26.4489 49.9136 26.5265C49.8758 26.6041 49.837 26.6718 49.7972 26.7295L47.7917 29.693C47.7638 29.7387 47.728 29.7805 47.6842 29.8183C47.6405 29.8561 47.5897 29.875 47.532 29.875H47.1023V25.5984H47.6813V28.6395C47.6813 28.725 47.6793 28.8146 47.6753 28.9081C47.6713 28.9996 47.6624 29.0981 47.6484 29.2035C47.6823 29.112 47.7181 29.0274 47.7559 28.9498C47.7957 28.8723 47.8345 28.8036 47.8723 28.7439L49.8778 25.7804C49.9056 25.7347 49.9414 25.6929 49.9852 25.6551C50.029 25.6173 50.0797 25.5984 50.1374 25.5984H50.5671ZM55.1253 25.5984V29.875H54.5463V27.9292H52.2394V29.875H51.6605V25.5984H52.2394V27.5054H54.5463V25.5984H55.1253ZM58.2838 28.9021C58.4728 28.9001 58.6439 28.8653 58.7971 28.7976C58.9523 28.73 59.0846 28.6385 59.194 28.5231C59.3035 28.4077 59.388 28.2734 59.4477 28.1202C59.5074 27.967 59.5372 27.8029 59.5372 27.6278C59.5372 27.4547 59.5074 27.2915 59.4477 27.1383C59.388 26.9851 59.3035 26.8518 59.194 26.7384C59.0846 26.623 58.9523 26.5315 58.7971 26.4639C58.6439 26.3962 58.4728 26.3604 58.2838 26.3564V28.9021ZM57.7347 26.3564C57.5457 26.3584 57.3736 26.3932 57.2184 26.4609C57.0652 26.5285 56.9339 26.62 56.8244 26.7354C56.715 26.8508 56.6305 26.9851 56.5708 27.1383C56.5111 27.2915 56.4812 27.4547 56.4812 27.6278C56.4812 27.8029 56.5111 27.967 56.5708 28.1202C56.6305 28.2734 56.715 28.4077 56.8244 28.5231C56.9339 28.6385 57.0652 28.73 57.2184 28.7976C57.3736 28.8653 57.5457 28.9001 57.7347 28.9021V26.3564ZM58.2838 25.9058C58.5564 25.9118 58.8051 25.9615 59.0299 26.055C59.2547 26.1465 59.4467 26.2709 59.6059 26.4281C59.767 26.5832 59.8914 26.7643 59.9789 26.9712C60.0685 27.1761 60.1132 27.395 60.1132 27.6278C60.1132 27.8625 60.0685 28.0834 59.9789 28.2903C59.8914 28.4972 59.767 28.6793 59.6059 28.8364C59.4467 28.9916 59.2547 29.116 59.0299 29.2095C58.8051 29.303 58.5564 29.3527 58.2838 29.3587V29.875H57.7347V29.3587C57.4601 29.3527 57.2104 29.303 56.9856 29.2095C56.7608 29.116 56.5678 28.9916 56.4066 28.8364C56.2475 28.6793 56.1231 28.4972 56.0336 28.2903C55.946 28.0834 55.9023 27.8625 55.9023 27.6278C55.9023 27.395 55.947 27.1761 56.0366 26.9712C56.1261 26.7643 56.2514 26.5832 56.4126 26.4281C56.5738 26.2709 56.7667 26.1465 56.9916 26.055C57.2164 25.9615 57.4641 25.9118 57.7347 25.9058V25.4044H58.2838V25.9058ZM64.8388 27.7382C64.8388 28.0585 64.7881 28.353 64.6866 28.6216C64.5852 28.8882 64.4419 29.118 64.2569 29.311C64.0718 29.5039 63.849 29.6542 63.5884 29.7616C63.3297 29.867 63.0432 29.9198 62.7289 29.9198C62.4145 29.9198 62.128 29.867 61.8694 29.7616C61.6107 29.6542 61.3889 29.5039 61.2039 29.311C61.0188 29.118 60.8756 28.8882 60.7741 28.6216C60.6726 28.353 60.6219 28.0585 60.6219 27.7382C60.6219 27.4179 60.6726 27.1244 60.7741 26.8578C60.8756 26.5892 61.0188 26.3584 61.2039 26.1654C61.3889 25.9704 61.6107 25.8192 61.8694 25.7118C62.128 25.6044 62.4145 25.5506 62.7289 25.5506C63.0432 25.5506 63.3297 25.6044 63.5884 25.7118C63.849 25.8192 64.0718 25.9704 64.2569 26.1654C64.4419 26.3584 64.5852 26.5892 64.6866 26.8578C64.7881 27.1244 64.8388 27.4179 64.8388 27.7382ZM64.2449 27.7382C64.2449 27.4756 64.2091 27.2398 64.1375 27.0309C64.0659 26.822 63.9644 26.6459 63.8331 26.5027C63.7018 26.3574 63.5426 26.246 63.3556 26.1684C63.1686 26.0908 62.9597 26.052 62.7289 26.052C62.5001 26.052 62.2922 26.0908 62.1051 26.1684C61.9181 26.246 61.758 26.3574 61.6247 26.5027C61.4934 26.6459 61.3919 26.822 61.3203 27.0309C61.2486 27.2398 61.2128 27.4756 61.2128 27.7382C61.2128 28.0008 61.2486 28.2366 61.3203 28.4455C61.3919 28.6524 61.4934 28.8285 61.6247 28.9737C61.758 29.117 61.9181 29.2274 62.1051 29.305C62.2922 29.3806 62.5001 29.4184 62.7289 29.4184C62.9597 29.4184 63.1686 29.3806 63.3556 29.305C63.5426 29.2274 63.7018 29.117 63.8331 28.9737C63.9644 28.8285 64.0659 28.6524 64.1375 28.4455C64.2091 28.2366 64.2449 28.0008 64.2449 27.7382ZM66.9296 27.8158C67.0947 27.8158 67.2399 27.7939 67.3653 27.7501C67.4926 27.7064 67.5991 27.6457 67.6846 27.5681C67.7722 27.4885 67.8378 27.394 67.8816 27.2846C67.9254 27.1751 67.9472 27.0548 67.9472 26.9235C67.9472 26.6509 67.8627 26.438 67.6936 26.2848C67.5264 26.1316 67.2718 26.055 66.9296 26.055H66.2432V27.8158H66.9296ZM66.9296 25.5984C67.2002 25.5984 67.4349 25.6302 67.6339 25.6939C67.8348 25.7556 68.001 25.8441 68.1323 25.9595C68.2636 26.0749 68.3611 26.2142 68.4247 26.3773C68.4904 26.5405 68.5232 26.7225 68.5232 26.9235C68.5232 27.1224 68.4884 27.3045 68.4188 27.4696C68.3491 27.6347 68.2467 27.777 68.1114 27.8964C67.9781 28.0157 67.8119 28.1092 67.613 28.1769C67.416 28.2425 67.1882 28.2754 66.9296 28.2754H66.2432V29.875H65.6672V25.5984H66.9296ZM73.7016 25.5984V29.875H73.1943V26.7325C73.1943 26.6907 73.1953 26.6459 73.1973 26.5982C73.2012 26.5504 73.2052 26.5017 73.2092 26.4519L71.7409 29.1259C71.6951 29.2155 71.6255 29.2602 71.532 29.2602H71.4484C71.3549 29.2602 71.2853 29.2155 71.2395 29.1259L69.7414 26.44C69.7533 26.5454 69.7593 26.6429 69.7593 26.7325V29.875H69.2519V25.5984H69.6787C69.7304 25.5984 69.7702 25.6034 69.7981 25.6133C69.8259 25.6233 69.8528 25.6511 69.8786 25.6969L71.3559 28.3291C71.3798 28.3768 71.4027 28.4266 71.4245 28.4783C71.4484 28.53 71.4703 28.5828 71.4902 28.6365C71.5101 28.5828 71.531 28.53 71.5529 28.4783C71.5748 28.4246 71.5986 28.3739 71.6245 28.3261L73.0749 25.6969C73.0988 25.6511 73.1246 25.6233 73.1525 25.6133C73.1823 25.6034 73.2231 25.5984 73.2749 25.5984H73.7016ZM77.0603 28.2873L76.3888 26.5474C76.3689 26.4957 76.348 26.436 76.3261 26.3684C76.3043 26.2987 76.2834 26.2251 76.2635 26.1475C76.2217 26.3087 76.1789 26.443 76.1351 26.5504L75.4637 28.2873H77.0603ZM78.266 29.875H77.8183C77.7666 29.875 77.7248 29.8621 77.693 29.8362C77.6611 29.8103 77.6373 29.7775 77.6214 29.7377L77.2215 28.7051H75.3025L74.9026 29.7377C74.8907 29.7735 74.8678 29.8054 74.834 29.8332C74.8001 29.8611 74.7574 29.875 74.7056 29.875H74.261L75.971 25.5984H76.5559L78.266 29.875ZM82.7742 29.4214V30.7435C82.7742 30.7952 82.7563 30.837 82.7205 30.8688C82.6867 30.9006 82.6429 30.9165 82.5892 30.9165H82.243V29.875H78.8229V25.5984H79.4019V29.4214H81.5387V25.5984H82.1206V29.4214H82.7742ZM86.945 25.5984V29.875H86.366V26.8369C86.366 26.7514 86.368 26.6628 86.372 26.5713C86.376 26.4778 86.3849 26.3793 86.3989 26.2758C86.365 26.3654 86.3292 26.4489 86.2914 26.5265C86.2536 26.6041 86.2148 26.6718 86.175 26.7295L84.1695 29.693C84.1417 29.7387 84.1059 29.7805 84.0621 29.8183C84.0183 29.8561 83.9676 29.875 83.9099 29.875H83.4801V25.5984H84.0591V28.6395C84.0591 28.725 84.0571 28.8146 84.0531 28.9081C84.0492 28.9996 84.0402 29.0981 84.0263 29.2035C84.0601 29.112 84.0959 29.0274 84.1337 28.9498C84.1735 28.8723 84.2123 28.8036 84.2501 28.7439L86.2556 25.7804C86.2835 25.7347 86.3193 25.6929 86.363 25.6551C86.4068 25.6173 86.4576 25.5984 86.5153 25.5984H86.945ZM91.9896 27.7382C91.9896 28.0585 91.9389 28.353 91.8374 28.6216C91.7359 28.8882 91.5927 29.118 91.4077 29.311C91.2226 29.5039 90.9998 29.6542 90.7392 29.7616C90.4805 29.867 90.194 29.9198 89.8797 29.9198C89.5653 29.9198 89.2788 29.867 89.0202 29.7616C88.7615 29.6542 88.5397 29.5039 88.3546 29.311C88.1696 29.118 88.0264 28.8882 87.9249 28.6216C87.8234 28.353 87.7727 28.0585 87.7727 27.7382C87.7727 27.4179 87.8234 27.1244 87.9249 26.8578C88.0264 26.5892 88.1696 26.3584 88.3546 26.1654C88.5397 25.9704 88.7615 25.8192 89.0202 25.7118C89.2788 25.6044 89.5653 25.5506 89.8797 25.5506C90.194 25.5506 90.4805 25.6044 90.7392 25.7118C90.9998 25.8192 91.2226 25.9704 91.4077 26.1654C91.5927 26.3584 91.7359 26.5892 91.8374 26.8578C91.9389 27.1244 91.9896 27.4179 91.9896 27.7382ZM91.3957 27.7382C91.3957 27.4756 91.3599 27.2398 91.2883 27.0309C91.2167 26.822 91.1152 26.6459 90.9839 26.5027C90.8526 26.3574 90.6934 26.246 90.5064 26.1684C90.3194 26.0908 90.1105 26.052 89.8797 26.052C89.6509 26.052 89.4429 26.0908 89.2559 26.1684C89.0689 26.246 88.9087 26.3574 88.7754 26.5027C88.6441 26.6459 88.5427 26.822 88.471 27.0309C88.3994 27.2398 88.3636 27.4756 88.3636 27.7382C88.3636 28.0008 88.3994 28.2366 88.471 28.4455C88.5427 28.6524 88.6441 28.8285 88.7754 28.9737C88.9087 29.117 89.0689 29.2274 89.2559 29.305C89.4429 29.3806 89.6509 29.4184 89.8797 29.4184C90.1105 29.4184 90.3194 29.3806 90.5064 29.305C90.6934 29.2274 90.8526 29.117 90.9839 28.9737C91.1152 28.8285 91.2167 28.6524 91.2883 28.4455C91.3599 28.2366 91.3957 28.0008 91.3957 27.7382ZM96.2828 25.5984V29.875H95.7039V27.9292H93.3969V29.875H92.818V25.5984H93.3969V27.5054H95.7039V25.5984H96.2828ZM100.841 25.5984V29.875H100.262V27.9292H97.9551V29.875H97.3761V25.5984H97.9551V27.5054H100.262V25.5984H100.841ZM103.34 29.4154C103.505 29.4154 103.646 29.3965 103.764 29.3587C103.883 29.3209 103.98 29.2692 104.053 29.2035C104.129 29.1359 104.184 29.0553 104.217 28.9618C104.253 28.8663 104.271 28.7618 104.271 28.6484C104.271 28.529 104.253 28.4236 104.217 28.3321C104.184 28.2386 104.129 28.16 104.053 28.0963C103.98 28.0307 103.884 27.9819 103.767 27.9501C103.649 27.9163 103.508 27.8993 103.343 27.8993H102.51V29.4154H103.34ZM103.343 27.4398C103.604 27.4398 103.828 27.4686 104.017 27.5263C104.206 27.582 104.362 27.6616 104.483 27.765C104.606 27.8665 104.697 27.9879 104.755 28.1291C104.814 28.2704 104.844 28.4246 104.844 28.5917C104.844 28.7887 104.81 28.9668 104.743 29.1259C104.677 29.2831 104.579 29.4174 104.45 29.5288C104.323 29.6402 104.166 29.7258 103.979 29.7855C103.792 29.8452 103.579 29.875 103.34 29.875H101.934V25.5984H102.51V27.4398H103.343ZM106.208 29.875H105.629V25.5984H106.208V29.875ZM109.941 29.4035L109.938 29.875H107.303V25.5984H109.938V26.0699H107.882V27.4905H109.547V27.9441H107.882V29.4035H109.941ZM115.167 26.0848H113.782V29.875H113.206V26.0848H111.818V25.5984H115.167V26.0848ZM118.439 29.4035L118.436 29.875H115.801V25.5984H118.436V26.0699H116.38V27.4905H118.045V27.9441H116.38V29.4035H118.439ZM122.508 29.875H121.935C121.891 29.875 121.856 29.8641 121.83 29.8422C121.807 29.8183 121.787 29.7924 121.771 29.7646L120.625 27.968C120.609 28.0157 120.591 28.0565 120.571 28.0903L119.455 29.7646C119.435 29.7924 119.413 29.8183 119.389 29.8422C119.367 29.8641 119.336 29.875 119.297 29.875H118.76L120.231 27.6785L118.819 25.5984H119.395C119.437 25.5984 119.468 25.6054 119.488 25.6193C119.508 25.6332 119.526 25.6531 119.541 25.679L120.658 27.392C120.672 27.3502 120.692 27.3045 120.72 27.2547L121.774 25.6909C121.79 25.6631 121.809 25.6412 121.83 25.6253C121.852 25.6073 121.878 25.5984 121.908 25.5984H122.46L121.043 27.6516L122.508 29.875ZM126.587 25.5984V29.875H126.008V27.9292H123.701V29.875H123.122V25.5984H123.701V27.5054H126.008V25.5984H126.587ZM131.632 27.7382C131.632 28.0585 131.581 28.353 131.479 28.6216C131.378 28.8882 131.235 29.118 131.05 29.311C130.865 29.5039 130.642 29.6542 130.381 29.7616C130.123 29.867 129.836 29.9198 129.522 29.9198C129.207 29.9198 128.921 29.867 128.662 29.7616C128.404 29.6542 128.182 29.5039 127.997 29.311C127.812 29.118 127.668 28.8882 127.567 28.6216C127.465 28.353 127.415 28.0585 127.415 27.7382C127.415 27.4179 127.465 27.1244 127.567 26.8578C127.668 26.5892 127.812 26.3584 127.997 26.1654C128.182 25.9704 128.404 25.8192 128.662 25.7118C128.921 25.6044 129.207 25.5506 129.522 25.5506C129.836 25.5506 130.123 25.6044 130.381 25.7118C130.642 25.8192 130.865 25.9704 131.05 26.1654C131.235 26.3584 131.378 26.5892 131.479 26.8578C131.581 27.1244 131.632 27.4179 131.632 27.7382ZM131.038 27.7382C131.038 27.4756 131.002 27.2398 130.93 27.0309C130.859 26.822 130.757 26.6459 130.626 26.5027C130.495 26.3574 130.335 26.246 130.148 26.1684C129.961 26.0908 129.752 26.052 129.522 26.052C129.293 26.052 129.085 26.0908 128.898 26.1684C128.711 26.246 128.551 26.3574 128.417 26.5027C128.286 26.6459 128.185 26.822 128.113 27.0309C128.041 27.2398 128.006 27.4756 128.006 27.7382C128.006 28.0008 128.041 28.2366 128.113 28.4455C128.185 28.6524 128.286 28.8285 128.417 28.9737C128.551 29.117 128.711 29.2274 128.898 29.305C129.085 29.3806 129.293 29.4184 129.522 29.4184C129.752 29.4184 129.961 29.3806 130.148 29.305C130.335 29.2274 130.495 29.117 130.626 28.9737C130.757 28.8285 130.859 28.6524 130.93 28.4455C131.002 28.2366 131.038 28.0008 131.038 27.7382ZM135.581 29.875H135.002V26.055H133.588C133.56 26.6041 133.522 27.0806 133.474 27.4845C133.429 27.8884 133.372 28.2336 133.304 28.5201C133.239 28.8066 133.163 29.0404 133.078 29.2214C132.994 29.4005 132.901 29.5417 132.8 29.6452C132.701 29.7487 132.593 29.8193 132.478 29.8571C132.362 29.8949 132.24 29.9138 132.111 29.9138C132.003 29.9138 131.921 29.9038 131.863 29.884C131.805 29.866 131.776 29.8382 131.776 29.8004V29.4333H131.985C132.065 29.4333 132.143 29.4184 132.221 29.3885C132.299 29.3567 132.373 29.294 132.445 29.2005C132.516 29.107 132.584 28.9737 132.648 28.8006C132.711 28.6275 132.769 28.3987 132.821 28.1142C132.873 27.8297 132.917 27.4825 132.955 27.0727C132.993 26.6608 133.022 26.1694 133.042 25.5984H135.581V29.875ZM140.626 27.7382C140.626 28.0585 140.575 28.353 140.473 28.6216C140.372 28.8882 140.229 29.118 140.044 29.311C139.859 29.5039 139.636 29.6542 139.375 29.7616C139.116 29.867 138.83 29.9198 138.516 29.9198C138.201 29.9198 137.915 29.867 137.656 29.7616C137.397 29.6542 137.176 29.5039 136.991 29.311C136.806 29.118 136.662 28.8882 136.561 28.6216C136.459 28.353 136.409 28.0585 136.409 27.7382C136.409 27.4179 136.459 27.1244 136.561 26.8578C136.662 26.5892 136.806 26.3584 136.991 26.1654C137.176 25.9704 137.397 25.8192 137.656 25.7118C137.915 25.6044 138.201 25.5506 138.516 25.5506C138.83 25.5506 139.116 25.6044 139.375 25.7118C139.636 25.8192 139.859 25.9704 140.044 26.1654C140.229 26.3584 140.372 26.5892 140.473 26.8578C140.575 27.1244 140.626 27.4179 140.626 27.7382ZM140.032 27.7382C140.032 27.4756 139.996 27.2398 139.924 27.0309C139.853 26.822 139.751 26.6459 139.62 26.5027C139.488 26.3574 139.329 26.246 139.142 26.1684C138.955 26.0908 138.746 26.052 138.516 26.052C138.287 26.052 138.079 26.0908 137.892 26.1684C137.705 26.246 137.545 26.3574 137.411 26.5027C137.28 26.6459 137.179 26.822 137.107 27.0309C137.035 27.2398 137 27.4756 137 27.7382C137 28.0008 137.035 28.2366 137.107 28.4455C137.179 28.6524 137.28 28.8285 137.411 28.9737C137.545 29.117 137.705 29.2274 137.892 29.305C138.079 29.3806 138.287 29.4184 138.516 29.4184C138.746 29.4184 138.955 29.3806 139.142 29.305C139.329 29.2274 139.488 29.117 139.62 28.9737C139.751 28.8285 139.853 28.6524 139.924 28.4455C139.996 28.2366 140.032 28.0008 140.032 27.7382ZM144.029 26.055H142.033V29.875H141.454V25.5984H144.029V26.055ZM148.13 25.5984V29.875H147.551V26.8369C147.551 26.7514 147.553 26.6628 147.557 26.5713C147.561 26.4778 147.57 26.3793 147.584 26.2758C147.55 26.3654 147.515 26.4489 147.477 26.5265C147.439 26.6041 147.4 26.6718 147.36 26.7295L145.355 29.693C145.327 29.7387 145.291 29.7805 145.248 29.8183C145.204 29.8561 145.153 29.875 145.095 29.875H144.666V25.5984H145.245V28.6395C145.245 28.725 145.243 28.8146 145.239 28.9081C145.235 28.9996 145.226 29.0981 145.212 29.2035C145.246 29.112 145.281 29.0274 145.319 28.9498C145.359 28.8723 145.398 28.8036 145.436 28.7439L147.441 25.7804C147.469 25.7347 147.505 25.6929 147.548 25.6551C147.592 25.6173 147.643 25.5984 147.701 25.5984H148.13ZM152.689 25.5984V29.875H152.11V26.8369C152.11 26.7514 152.112 26.6628 152.116 26.5713C152.12 26.4778 152.129 26.3793 152.142 26.2758C152.109 26.3654 152.073 26.4489 152.035 26.5265C151.997 26.6041 151.958 26.6718 151.919 26.7295L149.913 29.693C149.885 29.7387 149.849 29.7805 149.806 29.8183C149.762 29.8561 149.711 29.875 149.653 29.875H149.224V25.5984H149.803V28.6395C149.803 28.725 149.801 28.8146 149.797 28.9081C149.793 28.9996 149.784 29.0981 149.77 29.2035C149.804 29.112 149.84 29.0274 149.877 28.9498C149.917 28.8723 149.956 28.8036 149.994 28.7439L151.999 25.7804C152.027 25.7347 152.063 25.6929 152.107 25.6551C152.15 25.6173 152.201 25.5984 152.259 25.5984H152.689ZM50.4 36.875H49.8181V33.055H47.6813V36.875H47.1023V32.5984H50.4V36.875ZM55.4427 34.7382C55.4427 35.0585 55.392 35.353 55.2905 35.6216C55.1891 35.8882 55.0458 36.118 54.8608 36.311C54.6757 36.5039 54.4529 36.6542 54.1923 36.7616C53.9336 36.867 53.6471 36.9198 53.3328 36.9198C53.0184 36.9198 52.7319 36.867 52.4733 36.7616C52.2146 36.6542 51.9928 36.5039 51.8078 36.311C51.6227 36.118 51.4795 35.8882 51.378 35.6216C51.2765 35.353 51.2258 35.0585 51.2258 34.7382C51.2258 34.4179 51.2765 34.1244 51.378 33.8578C51.4795 33.5892 51.6227 33.3584 51.8078 33.1654C51.9928 32.9704 52.2146 32.8192 52.4733 32.7118C52.7319 32.6044 53.0184 32.5506 53.3328 32.5506C53.6471 32.5506 53.9336 32.6044 54.1923 32.7118C54.4529 32.8192 54.6757 32.9704 54.8608 33.1654C55.0458 33.3584 55.1891 33.5892 55.2905 33.8578C55.392 34.1244 55.4427 34.4179 55.4427 34.7382ZM54.8488 34.7382C54.8488 34.4756 54.813 34.2398 54.7414 34.0309C54.6698 33.822 54.5683 33.6459 54.437 33.5027C54.3057 33.3574 54.1465 33.246 53.9595 33.1684C53.7725 33.0908 53.5636 33.052 53.3328 33.052C53.104 33.052 52.8961 33.0908 52.709 33.1684C52.522 33.246 52.3619 33.3574 52.2286 33.5027C52.0972 33.6459 51.9958 33.822 51.9242 34.0309C51.8525 34.2398 51.8167 34.4756 51.8167 34.7382C51.8167 35.0008 51.8525 35.2366 51.9242 35.4455C51.9958 35.6524 52.0972 35.8285 52.2286 35.9737C52.3619 36.117 52.522 36.2274 52.709 36.305C52.8961 36.3806 53.104 36.4184 53.3328 36.4184C53.5636 36.4184 53.7725 36.3806 53.9595 36.305C54.1465 36.2274 54.3057 36.117 54.437 35.9737C54.5683 35.8285 54.6698 35.6524 54.7414 35.4455C54.813 35.2366 54.8488 35.0008 54.8488 34.7382ZM58.8121 36.4214V33.055H57.3975C57.3737 33.5425 57.3398 33.9702 57.2961 34.3383C57.2523 34.7064 57.2006 35.0257 57.1409 35.2963C57.0812 35.5669 57.0145 35.7937 56.9409 35.9767C56.8673 36.1578 56.7877 36.306 56.7022 36.4214H58.8121ZM60.0924 36.4214V37.7435C60.0924 37.7952 60.0755 37.837 60.0417 37.8688C60.0079 37.9006 59.9631 37.9165 59.9074 37.9165H59.5642V36.875H56.1172V37.7435C56.1172 37.7952 56.0993 37.837 56.0635 37.8688C56.0297 37.9006 55.9859 37.9165 55.9322 37.9165H55.586V36.4214H56.0217C56.0834 36.3915 56.1451 36.3438 56.2068 36.2781C56.2684 36.2105 56.3271 36.115 56.3828 35.9916C56.4405 35.8663 56.4943 35.7091 56.544 35.5201C56.5937 35.3311 56.6385 35.1003 56.6783 34.8277C56.7201 34.5532 56.7559 34.2328 56.7857 33.8668C56.8156 33.5007 56.8385 33.0779 56.8544 32.5984H59.3941V36.4214H60.0924ZM63.5044 36.4214V33.055H62.0898C62.0659 33.5425 62.0321 33.9702 61.9883 34.3383C61.9445 34.7064 61.8928 35.0257 61.8331 35.2963C61.7734 35.5669 61.7068 35.7937 61.6331 35.9767C61.5595 36.1578 61.48 36.306 61.3944 36.4214H63.5044ZM64.7846 36.4214V37.7435C64.7846 37.7952 64.7677 37.837 64.7339 37.8688C64.7001 37.9006 64.6553 37.9165 64.5996 37.9165H64.2564V36.875H60.8095V37.7435C60.8095 37.7952 60.7916 37.837 60.7557 37.8688C60.7219 37.9006 60.6782 37.9165 60.6244 37.9165H60.2782V36.4214H60.714C60.7756 36.3915 60.8373 36.3438 60.899 36.2781C60.9607 36.2105 61.0194 36.115 61.0751 35.9916C61.1328 35.8663 61.1865 35.7091 61.2362 35.5201C61.286 35.3311 61.3307 35.1003 61.3705 34.8277C61.4123 34.5532 61.4481 34.2328 61.478 33.8668C61.5078 33.5007 61.5307 33.0779 61.5466 32.5984H64.0863V36.4214H64.7846ZM68.113 36.4035L68.11 36.875H65.4748V32.5984H68.11V33.0699H66.0538V34.4905H67.7191V34.9441H66.0538V36.4035H68.113ZM70.1821 34.8158C70.3472 34.8158 70.4924 34.7939 70.6178 34.7501C70.7451 34.7064 70.8516 34.6457 70.9371 34.5681C71.0247 34.4885 71.0903 34.394 71.1341 34.2846C71.1779 34.1751 71.1997 34.0548 71.1997 33.9235C71.1997 33.6509 71.1152 33.438 70.9461 33.2848C70.7789 33.1316 70.5243 33.055 70.1821 33.055H69.4957V34.8158H70.1821ZM70.1821 32.5984C70.4526 32.5984 70.6874 32.6302 70.8864 32.6939C71.0873 32.7556 71.2535 32.8441 71.3848 32.9595C71.5161 33.0749 71.6136 33.2142 71.6772 33.3773C71.7429 33.5405 71.7757 33.7225 71.7757 33.9235C71.7757 34.1224 71.7409 34.3045 71.6713 34.4696C71.6016 34.6347 71.4992 34.777 71.3639 34.8964C71.2306 35.0157 71.0644 35.1092 70.8655 35.1769C70.6685 35.2425 70.4407 35.2754 70.1821 35.2754H69.4957V36.875H68.9197V32.5984H70.1821ZM78.0187 36.875H77.6337C77.5501 36.875 77.4775 36.8571 77.4158 36.8213C77.3541 36.7835 77.3044 36.7327 77.2666 36.6691L76.1833 35.153C76.1295 35.0695 76.0679 35.0098 75.9982 34.974C75.9306 34.9362 75.844 34.9173 75.7386 34.9173H75.2432V36.875H74.697V34.9173H74.2046C74.0972 34.9173 74.0087 34.9362 73.939 34.974C73.8714 35.0098 73.8107 35.0695 73.757 35.153L72.6736 36.6691C72.6378 36.7327 72.5891 36.7835 72.5274 36.8213C72.4657 36.8571 72.3931 36.875 72.3096 36.875H71.9216L73.1929 35.0217C73.2566 34.9182 73.3252 34.8357 73.3988 34.774C73.4744 34.7123 73.561 34.6666 73.6585 34.6367C73.5729 34.6089 73.5003 34.5681 73.4406 34.5144C73.3809 34.4606 73.3232 34.392 73.2675 34.3084L72.0231 32.5984H72.4737C72.5354 32.5984 72.5911 32.6143 72.6408 32.6461C72.6925 32.676 72.7343 32.7178 72.7662 32.7715L73.8375 34.2547C73.8992 34.3423 73.9639 34.401 74.0315 34.4308C74.1012 34.4587 74.1817 34.4726 74.2733 34.4726H74.697V32.5984H75.2432V34.4726H75.67C75.7595 34.4726 75.8381 34.4587 75.9057 34.4308C75.9734 34.401 76.039 34.3423 76.1027 34.2547L77.1741 32.7715C77.2059 32.7178 77.2477 32.676 77.2994 32.6461C77.3511 32.6143 77.4069 32.5984 77.4665 32.5984H77.9202L76.6727 34.3084C76.617 34.392 76.5593 34.4606 76.4996 34.5144C76.4399 34.5681 76.3683 34.6089 76.2847 34.6367C76.3802 34.6686 76.4658 34.7153 76.5414 34.777C76.617 34.8367 76.6866 34.9182 76.7503 35.0217L78.0187 36.875ZM82.0272 36.875H81.5079C81.4502 36.875 81.4005 36.8601 81.3587 36.8302C81.3189 36.7984 81.2811 36.7526 81.2453 36.693L80.1142 35.1262C80.0625 35.0486 80.0068 34.9948 79.9471 34.965C79.8874 34.9332 79.8058 34.9173 79.7024 34.9173H79.189V36.875H78.6131V32.5984H79.189V34.4726H79.6337C79.7232 34.4726 79.7988 34.4587 79.8605 34.4308C79.9242 34.4029 79.9869 34.3482 80.0485 34.2667L81.1677 32.7625C81.1975 32.7148 81.2333 32.676 81.2751 32.6461C81.3189 32.6143 81.3696 32.5984 81.4273 32.5984H81.9138L80.6215 34.3562C80.524 34.4935 80.3987 34.588 80.2455 34.6397C80.351 34.6676 80.4395 34.7123 80.5111 34.774C80.5847 34.8337 80.6544 34.9173 80.72 35.0247L82.0272 36.875ZM86.0823 32.5984V36.875H85.5034V33.8369C85.5034 33.7514 85.5054 33.6628 85.5093 33.5713C85.5133 33.4778 85.5223 33.3793 85.5362 33.2758C85.5024 33.3654 85.4666 33.4489 85.4288 33.5265C85.391 33.6041 85.3522 33.6718 85.3124 33.7295L83.3069 36.693C83.279 36.7387 83.2432 36.7805 83.1994 36.8183C83.1557 36.8561 83.1049 36.875 83.0472 36.875H82.6175V32.5984H83.1964V35.6395C83.1964 35.725 83.1945 35.8146 83.1905 35.9081C83.1865 35.9996 83.1775 36.0981 83.1636 36.2035C83.1974 36.112 83.2333 36.0274 83.2711 35.9498C83.3108 35.8723 83.3496 35.8036 83.3874 35.7439L85.3929 32.7804C85.4208 32.7347 85.4566 32.6929 85.5004 32.6551C85.5441 32.6173 85.5949 32.5984 85.6526 32.5984H86.0823ZM92.0005 36.875H91.4186V33.055H89.2818V36.875H88.7028V32.5984H92.0005V36.875ZM94.3543 34.8158C94.5194 34.8158 94.6647 34.7939 94.79 34.7501C94.9174 34.7064 95.0238 34.6457 95.1094 34.5681C95.1969 34.4885 95.2625 34.394 95.3063 34.2846C95.3501 34.1751 95.372 34.0548 95.372 33.9235C95.372 33.6509 95.2874 33.438 95.1183 33.2848C94.9512 33.1316 94.6965 33.055 94.3543 33.055H93.6679V34.8158H94.3543ZM94.3543 32.5984C94.6249 32.5984 94.8597 32.6302 95.0586 32.6939C95.2596 32.7556 95.4257 32.8441 95.557 32.9595C95.6883 33.0749 95.7858 33.2142 95.8495 33.3773C95.9151 33.5405 95.948 33.7225 95.948 33.9235C95.948 34.1224 95.9131 34.3045 95.8435 34.4696C95.7739 34.6347 95.6714 34.777 95.5361 34.8964C95.4028 35.0157 95.2367 35.1092 95.0377 35.1769C94.8408 35.2425 94.613 35.2754 94.3543 35.2754H93.6679V36.875H93.0919V32.5984H94.3543ZM100.628 34.7382C100.628 35.0585 100.577 35.353 100.476 35.6216C100.374 35.8882 100.231 36.118 100.046 36.311C99.861 36.5039 99.6382 36.6542 99.3775 36.7616C99.1189 36.867 98.8324 36.9198 98.518 36.9198C98.2037 36.9198 97.9172 36.867 97.6585 36.7616C97.3999 36.6542 97.178 36.5039 96.993 36.311C96.808 36.118 96.6647 35.8882 96.5633 35.6216C96.4618 35.353 96.4111 35.0585 96.4111 34.7382C96.4111 34.4179 96.4618 34.1244 96.5633 33.8578C96.6647 33.5892 96.808 33.3584 96.993 33.1654C97.178 32.9704 97.3999 32.8192 97.6585 32.7118C97.9172 32.6044 98.2037 32.5506 98.518 32.5506C98.8324 32.5506 99.1189 32.6044 99.3775 32.7118C99.6382 32.8192 99.861 32.9704 100.046 33.1654C100.231 33.3584 100.374 33.5892 100.476 33.8578C100.577 34.1244 100.628 34.4179 100.628 34.7382ZM100.034 34.7382C100.034 34.4756 99.9983 34.2398 99.9266 34.0309C99.855 33.822 99.7535 33.6459 99.6222 33.5027C99.4909 33.3574 99.3318 33.246 99.1447 33.1684C98.9577 33.0908 98.7488 33.052 98.518 33.052C98.2892 33.052 98.0813 33.0908 97.8943 33.1684C97.7073 33.246 97.5471 33.3574 97.4138 33.5027C97.2825 33.6459 97.181 33.822 97.1094 34.0309C97.0378 34.2398 97.002 34.4756 97.002 34.7382C97.002 35.0008 97.0378 35.2366 97.1094 35.4455C97.181 35.6524 97.2825 35.8285 97.4138 35.9737C97.5471 36.117 97.7073 36.2274 97.8943 36.305C98.0813 36.3806 98.2892 36.4184 98.518 36.4184C98.7488 36.4184 98.9577 36.3806 99.1447 36.305C99.3318 36.2274 99.4909 36.117 99.6222 35.9737C99.7535 35.8285 99.855 35.6524 99.9266 35.4455C99.9983 35.2366 100.034 35.0008 100.034 34.7382ZM104.095 36.4035L104.092 36.875H101.456V32.5984H104.092V33.0699H102.035V34.4905H103.701V34.9441H102.035V36.4035H104.095ZM108.315 36.875H107.796C107.738 36.875 107.689 36.8601 107.647 36.8302C107.607 36.7984 107.569 36.7526 107.533 36.693L106.402 35.1262C106.351 35.0486 106.295 34.9948 106.235 34.965C106.175 34.9332 106.094 34.9173 105.99 34.9173H105.477V36.875H104.901V32.5984H105.477V34.4726H105.922C106.011 34.4726 106.087 34.4587 106.149 34.4308C106.212 34.4029 106.275 34.3482 106.337 34.2667L107.456 32.7625C107.486 32.7148 107.521 32.676 107.563 32.6461C107.607 32.6143 107.658 32.5984 107.715 32.5984H108.202L106.91 34.3562C106.812 34.4935 106.687 34.588 106.534 34.6397C106.639 34.6676 106.728 34.7123 106.799 34.774C106.873 34.8337 106.942 34.9173 107.008 35.0247L108.315 36.875ZM111.797 33.0848H110.413V36.875H109.837V33.0848H108.449V32.5984H111.797V33.0848ZM116.191 34.7382C116.191 35.0585 116.14 35.353 116.039 35.6216C115.937 35.8882 115.794 36.118 115.609 36.311C115.424 36.5039 115.201 36.6542 114.941 36.7616C114.682 36.867 114.395 36.9198 114.081 36.9198C113.767 36.9198 113.48 36.867 113.222 36.7616C112.963 36.6542 112.741 36.5039 112.556 36.311C112.371 36.118 112.228 35.8882 112.126 35.6216C112.025 35.353 111.974 35.0585 111.974 34.7382C111.974 34.4179 112.025 34.1244 112.126 33.8578C112.228 33.5892 112.371 33.3584 112.556 33.1654C112.741 32.9704 112.963 32.8192 113.222 32.7118C113.48 32.6044 113.767 32.5506 114.081 32.5506C114.395 32.5506 114.682 32.6044 114.941 32.7118C115.201 32.8192 115.424 32.9704 115.609 33.1654C115.794 33.3584 115.937 33.5892 116.039 33.8578C116.14 34.1244 116.191 34.4179 116.191 34.7382ZM115.597 34.7382C115.597 34.4756 115.561 34.2398 115.49 34.0309C115.418 33.822 115.317 33.6459 115.185 33.5027C115.054 33.3574 114.895 33.246 114.708 33.1684C114.521 33.0908 114.312 33.052 114.081 33.052C113.852 33.052 113.644 33.0908 113.457 33.1684C113.27 33.246 113.11 33.3574 112.977 33.5027C112.846 33.6459 112.744 33.822 112.672 34.0309C112.601 34.2398 112.565 34.4756 112.565 34.7382C112.565 35.0008 112.601 35.2366 112.672 35.4455C112.744 35.6524 112.846 35.8285 112.977 35.9737C113.11 36.117 113.27 36.2274 113.457 36.305C113.644 36.3806 113.852 36.4184 114.081 36.4184C114.312 36.4184 114.521 36.3806 114.708 36.305C114.895 36.2274 115.054 36.117 115.185 35.9737C115.317 35.8285 115.418 35.6524 115.49 35.4455C115.561 35.2366 115.597 35.0008 115.597 34.7382ZM118.52 36.4154C118.686 36.4154 118.828 36.3965 118.947 36.3587C119.067 36.3209 119.164 36.2682 119.24 36.2005C119.317 36.1309 119.374 36.0493 119.41 35.9558C119.446 35.8603 119.464 35.7559 119.464 35.6425C119.464 35.4216 119.385 35.2475 119.228 35.1202C119.071 34.9909 118.835 34.9262 118.52 34.9262H117.595V36.4154H118.52ZM117.595 33.055V34.5144H118.359C118.522 34.5144 118.664 34.4965 118.783 34.4606C118.904 34.4248 119.004 34.3751 119.082 34.3114C119.161 34.2478 119.22 34.1712 119.258 34.0816C119.295 33.9901 119.314 33.8906 119.314 33.7832C119.314 33.5305 119.239 33.3465 119.088 33.2311C118.936 33.1137 118.702 33.055 118.383 33.055H117.595ZM118.383 32.5984C118.646 32.5984 118.872 32.6243 119.061 32.676C119.252 32.7277 119.408 32.8013 119.529 32.8968C119.653 32.9923 119.743 33.1097 119.801 33.249C119.858 33.3863 119.887 33.5415 119.887 33.7146C119.887 33.82 119.87 33.9215 119.837 34.019C119.805 34.1145 119.756 34.204 119.69 34.2876C119.625 34.3711 119.541 34.4467 119.44 34.5144C119.34 34.58 119.223 34.6337 119.088 34.6755C119.402 34.7352 119.638 34.8476 119.795 35.0128C119.954 35.1759 120.034 35.3908 120.034 35.6574C120.034 35.8384 120 36.0036 119.932 36.1528C119.866 36.302 119.769 36.4303 119.64 36.5378C119.512 36.6452 119.355 36.7288 119.168 36.7885C118.981 36.8462 118.768 36.875 118.529 36.875H117.019V32.5984H118.383Z" fill="white"/>
</svg>
