<svg width="17" height="12" viewBox="0 0 17 12" fill="none" xmlns="http://www.w3.org/2000/svg">
<path d="M16.8962 5.91699L11.5837 11.2295C11.4454 11.3678 11.2213 11.3678 11.0829 11.2295C10.9446 11.0911 10.9446 10.867 11.0829 10.7287L15.7909 6.02075H0.354177C0.158412 6.02075 0 5.86234 0 5.66657C0 5.4708 0.158412 5.31239 0.354177 5.31239H15.7909L11.0829 0.604491C10.9446 0.466134 10.9446 0.242014 11.0829 0.103689C11.1521 0.0345278 11.2427 -6.96182e-05 11.3333 -6.96182e-05C11.424 -6.96182e-05 11.5146 0.0345278 11.5838 0.103689L16.8963 5.41619C17.0346 5.55451 17.0346 5.77863 16.8962 5.91699Z" fill="white"/>
</svg>
