<svg width="17" height="12" viewBox="0 0 17 12" fill="none" xmlns="http://www.w3.org/2000/svg">
<path d="M0.103771 5.91699L5.41627 11.2295C5.55462 11.3678 5.77875 11.3678 5.91707 11.2295C6.05543 11.0911 6.05543 10.867 5.91707 10.7287L1.20914 6.02075H16.6458C16.8416 6.02075 17 5.86234 17 5.66657C17 5.4708 16.8416 5.31239 16.6458 5.31239H1.20914L5.91707 0.604491C6.05543 0.466134 6.05543 0.242014 5.91707 0.103689C5.84791 0.0345278 5.75726 -6.96182e-05 5.66665 -6.96182e-05C5.57604 -6.96182e-05 5.48543 0.0345278 5.41623 0.103689L0.103737 5.41619C-0.034586 5.55451 -0.034586 5.77863 0.103771 5.91699Z" fill="white"/>
</svg>
